<svg width="102" height="89" viewBox="0 0 102 89" fill="none" xmlns="http://www.w3.org/2000/svg">
<path d="M87.3174 14.6418H8.66113V63.2695H87.3174V14.6418Z" fill="#EEE7DB" stroke="#231815" stroke-width="0.1" stroke-linecap="round" stroke-linejoin="round"/>
<path d="M87.3584 14.642H8.66113L22.344 1H101L87.3584 14.642Z" fill="#006428" stroke="#231815" stroke-width="0.1" stroke-linecap="round" stroke-linejoin="round"/>
<path d="M101 49.6276L87.3584 63.2696V14.642L101 1V49.6276Z" fill="#C8C3B9" stroke="#231815" stroke-width="0.1" stroke-linecap="round" stroke-linejoin="round"/>
<path d="M101 75.2319L87.3583 88.8739V80.2709L85.6377 80.3528V64.9902L101 49.6277V75.2319Z" fill="#B5B5B6" stroke="#231815" stroke-width="0.1" stroke-linecap="round" stroke-linejoin="round"/>
<path d="M75.1909 70.9304H1V88.8329H75.1909V70.9304Z" fill="#E6E6E6" stroke="#231815" stroke-width="0.1" stroke-linecap="round" stroke-linejoin="round"/>
<path d="M80.2713 83.7939L75.1914 88.8737V70.9303L80.2713 65.8914V83.7939Z" fill="#727171" stroke="#231815" stroke-width="0.1" stroke-linecap="round" stroke-linejoin="round"/>
<path d="M44.5075 49.9963H36.8467V63.2696H44.5075V49.9963Z" fill="#9E948F" stroke="#231815" stroke-width="0.1" stroke-linecap="round" stroke-linejoin="round"/>
<path d="M49.6274 24.8835H39.3857V32.5443H49.6274V24.8835Z" fill="#7ECEF4" stroke="#231815" stroke-width="0.1" stroke-linecap="round" stroke-linejoin="round"/>
<path d="M41.9257 53.0278H39.3857V55.5678H41.9257V53.0278Z" fill="#7ECEF4" stroke="#231815" stroke-width="0.1" stroke-linecap="round" stroke-linejoin="round"/>
<path d="M52.1676 49.9963H44.5068V63.2696H52.1676V49.9963Z" fill="#9E948F" stroke="#231815" stroke-width="0.1" stroke-linecap="round" stroke-linejoin="round"/>
<path d="M49.6268 53.0278H47.0459V55.5678H49.6268V53.0278Z" fill="#7ECEF4" stroke="#231815" stroke-width="0.1" stroke-linecap="round" stroke-linejoin="round"/>
<path d="M72.6506 73.5522H57.2881V88.8738H72.6506V73.5522Z" fill="#9FA0A0" stroke="#231815" stroke-width="0.1" stroke-linecap="round" stroke-linejoin="round"/>
<path d="M57.2881 76.0923H72.7326" stroke="#231815" stroke-width="0.1" stroke-linecap="round" stroke-linejoin="round"/>
<path d="M57.2881 78.6321H72.7326" stroke="#231815" stroke-width="0.1" stroke-linecap="round" stroke-linejoin="round"/>
<path d="M57.2881 81.1721H72.7326" stroke="#231815" stroke-width="0.1" stroke-linecap="round" stroke-linejoin="round"/>
<path d="M57.2881 83.7532H72.7326" stroke="#231815" stroke-width="0.1" stroke-linecap="round" stroke-linejoin="round"/>
<path d="M57.2881 86.293H72.7326" stroke="#231815" stroke-width="0.1" stroke-linecap="round" stroke-linejoin="round"/>
<path d="M54.7493 73.5525H39.3867V88.8741H54.7493V73.5525Z" fill="#9FA0A0" stroke="#231815" stroke-width="0.1" stroke-linecap="round" stroke-linejoin="round"/>
<path d="M39.3867 76.0923H54.8312" stroke="#231815" stroke-width="0.1" stroke-linecap="round" stroke-linejoin="round"/>
<path d="M39.3867 78.6323H54.8312" stroke="#231815" stroke-width="0.1" stroke-linecap="round" stroke-linejoin="round"/>
<path d="M39.3867 81.1721H54.8312" stroke="#231815" stroke-width="0.1" stroke-linecap="round" stroke-linejoin="round"/>
<path d="M39.3867 83.7532H54.8312" stroke="#231815" stroke-width="0.1" stroke-linecap="round" stroke-linejoin="round"/>
<path d="M39.3867 86.2932H54.8312" stroke="#231815" stroke-width="0.1" stroke-linecap="round" stroke-linejoin="round"/>
<path d="M36.845 73.5525H21.4824V88.8741H36.845V73.5525Z" fill="#9FA0A0" stroke="#231815" stroke-width="0.1" stroke-linecap="round" stroke-linejoin="round"/>
<path d="M21.4824 76.0923H36.9269" stroke="#231815" stroke-width="0.1" stroke-linecap="round" stroke-linejoin="round"/>
<path d="M21.4824 78.6323H36.9269" stroke="#231815" stroke-width="0.1" stroke-linecap="round" stroke-linejoin="round"/>
<path d="M21.4824 81.1721H36.9269" stroke="#231815" stroke-width="0.1" stroke-linecap="round" stroke-linejoin="round"/>
<path d="M21.4824 83.7532H36.9269" stroke="#231815" stroke-width="0.1" stroke-linecap="round" stroke-linejoin="round"/>
<path d="M21.4824 86.2932H36.9269" stroke="#231815" stroke-width="0.1" stroke-linecap="round" stroke-linejoin="round"/>
<path d="M18.9016 73.5525H3.53906V88.8741H18.9016V73.5525Z" fill="#9FA0A0" stroke="#231815" stroke-width="0.1" stroke-linecap="round" stroke-linejoin="round"/>
<path d="M3.53906 76.0923H18.9836" stroke="#231815" stroke-width="0.1" stroke-linecap="round" stroke-linejoin="round"/>
<path d="M3.53906 78.6323H18.9836" stroke="#231815" stroke-width="0.1" stroke-linecap="round" stroke-linejoin="round"/>
<path d="M3.53906 81.1721H18.9836" stroke="#231815" stroke-width="0.1" stroke-linecap="round" stroke-linejoin="round"/>
<path d="M3.53906 83.7532H18.9836" stroke="#231815" stroke-width="0.1" stroke-linecap="round" stroke-linejoin="round"/>
<path d="M3.53906 86.2932H18.9836" stroke="#231815" stroke-width="0.1" stroke-linecap="round" stroke-linejoin="round"/>
<path d="M87.3174 14.6418H8.66113V17.1818H87.3174V14.6418Z" fill="#595757" stroke="#231815" stroke-width="0.1" stroke-linecap="round" stroke-linejoin="round"/>
<path d="M101 3.58091L87.3584 17.1819V14.642L101 1V3.58091Z" fill="#595757" stroke="#231815" stroke-width="0.1" stroke-linecap="round" stroke-linejoin="round"/>
<path d="M80.3123 76.0921H75.1914L78.6326 72.6509H83.7535L80.3123 76.0921Z" fill="#B5B5B6" stroke="#231815" stroke-width="0.1" stroke-linecap="round" stroke-linejoin="round"/>
<path d="M85.4736 83.7531V81.1722L88.8739 77.772V80.3529L85.4736 83.7531Z" fill="#727171" stroke="#231815" stroke-width="0.1" stroke-linecap="round" stroke-linejoin="round"/>
<path d="M85.4735 81.1722H82.8926L86.3338 77.772H88.8737L85.4735 81.1722Z" fill="#B5B5B6" stroke="#231815" stroke-width="0.1" stroke-linecap="round" stroke-linejoin="round"/>
<path d="M88.0137 86.293V83.753L91.4139 80.3528V82.8927L88.0137 86.293Z" fill="#727171" stroke="#231815" stroke-width="0.1" stroke-linecap="round" stroke-linejoin="round"/>
<path d="M88.0136 83.753H85.4736L88.8739 80.3528H91.4138L88.0136 83.753Z" fill="#B5B5B6" stroke="#231815" stroke-width="0.1" stroke-linecap="round" stroke-linejoin="round"/>
<path d="M90.5938 88.8737V86.2928L93.994 82.8926V85.4325L90.5938 88.8737Z" fill="#727171" stroke="#231815" stroke-width="0.1" stroke-linecap="round" stroke-linejoin="round"/>
<path d="M90.5936 86.2928H88.0127L91.4129 82.8926H93.9938L90.5936 86.2928Z" fill="#B5B5B6" stroke="#231815" stroke-width="0.1" stroke-linecap="round" stroke-linejoin="round"/>
<path d="M82.8936 81.1721V78.6322L86.2938 75.2319V77.7719L82.8936 81.1721Z" fill="#727171" stroke="#231815" stroke-width="0.1" stroke-linecap="round" stroke-linejoin="round"/>
<path d="M82.8934 78.6322H80.3125L83.7537 75.2319H86.2937L82.8934 78.6322Z" fill="#B5B5B6" stroke="#231815" stroke-width="0.1" stroke-linecap="round" stroke-linejoin="round"/>
<path d="M80.3115 78.632V76.0921L83.7527 72.6509V75.2318L80.3115 78.632Z" fill="#727171" stroke="#231815" stroke-width="0.1" stroke-linecap="round" stroke-linejoin="round"/>
<path d="M85.4324 65.0312H80.3115V68.3905H85.4324V65.0312Z" fill="#727171" stroke="#231815" stroke-width="0.1" stroke-linecap="round" stroke-linejoin="round"/>
<path d="M85.4736 65.0313H81.1311L75.1909 70.9306H1L8.6608 63.2698H87.3581L85.4736 65.0313Z" fill="#B5B5B6" stroke="#231815" stroke-width="0.1" stroke-linecap="round" stroke-linejoin="round"/>
<path d="M83.7527 70.1111H78.6318V72.692H83.7527V70.1111Z" fill="#727171" stroke="#231815" stroke-width="0.1" stroke-linecap="round" stroke-linejoin="round"/>
<path d="M83.7527 70.111H78.6318L80.3115 68.3904H85.4733L83.7527 70.111Z" fill="#B5B5B6" stroke="#231815" stroke-width="0.1" stroke-linecap="round" stroke-linejoin="round"/>
<path d="M75.1914 76.0923H80.3123V78.6322H82.8932V81.4589H85.4741V83.7531H88.014V86.293H90.5949V88.8739H75.1914V76.0923Z" fill="#E6E6E6" stroke="#231815" stroke-width="0.1" stroke-linecap="round" stroke-linejoin="round"/>
<path d="M85.6374 64.99V75.2317H83.7529V65.031L85.6374 64.99Z" fill="#898989" stroke="#231815" stroke-width="0.1" stroke-linecap="round" stroke-linejoin="round"/>
<path d="M75.2317 27.2598H59.8691V37.6653H75.2317V27.2598Z" fill="#7ECEF4" stroke="#231815" stroke-width="0.1" stroke-linecap="round" stroke-linejoin="round"/>
<path d="M54.749 39.3859L56.4696 37.6653H76.9121L75.1915 39.3859H54.749Z" fill="#C9CACA" stroke="#231815" stroke-width="0.1" stroke-linecap="round" stroke-linejoin="round"/>
<path d="M75.6006 39.3859V34.265C75.6006 34.265 75.6006 34.4699 75.4777 34.5518L77.1983 32.8312C77.1983 32.8312 76.9115 32.9951 76.7886 32.9131C76.6248 32.8312 76.5428 32.7083 76.5428 32.5444V37.6653C76.5428 37.8701 76.7067 38.034 76.9115 38.034C77.1164 38.034 77.2802 37.8701 77.2802 37.6653V32.5444C77.2802 32.5444 77.1983 32.2577 77.0344 32.1757C76.8706 32.1348 76.7067 32.1757 76.6248 32.2577L74.9042 33.9783C74.9042 33.9783 74.7812 34.1421 74.7812 34.265V39.3859C74.7812 39.5907 74.9451 39.7546 75.15 39.7546C75.3958 39.7546 75.5596 39.5907 75.5596 39.3859H75.6006Z" fill="#595757" stroke="#231815" stroke-width="0.1" stroke-linecap="round" stroke-linejoin="round"/>
<path d="M55.1172 39.3859V34.265C55.1172 34.265 55.0763 34.4699 54.9943 34.5518L56.7149 32.8312C56.7149 32.8312 56.4282 32.9951 56.3053 32.9131C56.1414 32.8312 56.0595 32.7083 56.0595 32.5444V37.6653C56.0595 37.8701 56.2233 38.034 56.4691 38.034C56.674 38.034 56.8378 37.8701 56.8378 37.6653V32.5444C56.8378 32.5444 56.7559 32.2577 56.633 32.1757C56.4691 32.1348 56.3053 32.1757 56.1824 32.2577L54.4618 33.9783C54.4618 33.9783 54.3389 34.1421 54.3389 34.265V39.3859C54.3389 39.5907 54.5027 39.7546 54.7076 39.7546C54.9124 39.7546 55.0763 39.5907 55.0763 39.3859H55.1172Z" fill="#595757" stroke="#231815" stroke-width="0.1" stroke-linecap="round" stroke-linejoin="round"/>
<path d="M75.191 33.8962H54.7486C54.5438 33.8962 54.3799 34.0601 54.3799 34.2649C54.3799 34.4698 54.5438 34.6336 54.7486 34.6336H75.191C75.4368 34.6336 75.6007 34.4698 75.6007 34.2649C75.6007 34.0601 75.4368 33.8962 75.191 33.8962Z" fill="#595757" stroke="#231815" stroke-width="0.1" stroke-linecap="round" stroke-linejoin="round"/>
<path d="M59.459 34.2649V39.3858C59.459 39.5906 59.6229 39.7545 59.8277 39.7545C60.0325 39.7545 60.2374 39.5906 60.2374 39.3858V34.2649C60.2374 34.0601 60.0735 33.8962 59.8277 33.8962C59.6229 33.8962 59.459 34.0601 59.459 34.2649Z" fill="#595757" stroke="#231815" stroke-width="0.1" stroke-linecap="round" stroke-linejoin="round"/>
<path d="M56.9199 34.2649V39.3858C56.9199 39.5906 57.0838 39.7545 57.2886 39.7545C57.4935 39.7545 57.6573 39.5906 57.6573 39.3858V34.2649C57.6573 34.0601 57.4935 33.8962 57.2886 33.8962C57.0838 33.8962 56.9199 34.0601 56.9199 34.2649Z" fill="#595757" stroke="#231815" stroke-width="0.1" stroke-linecap="round" stroke-linejoin="round"/>
<path d="M62.04 34.2649V39.3858C62.04 39.5906 62.2039 39.7545 62.4087 39.7545C62.6136 39.7545 62.8184 39.5906 62.8184 39.3858V34.2649C62.8184 34.0601 62.6545 33.8962 62.4087 33.8962C62.1629 33.8962 62.04 34.0601 62.04 34.2649Z" fill="#595757" stroke="#231815" stroke-width="0.1" stroke-linecap="round" stroke-linejoin="round"/>
<path d="M64.5811 34.2649V39.3858C64.5811 39.5906 64.7449 39.7545 64.9498 39.7545C65.1546 39.7545 65.3185 39.5906 65.3185 39.3858V34.2649C65.3185 34.0601 65.1546 33.8962 64.9498 33.8962C64.7449 33.8962 64.5811 34.0601 64.5811 34.2649Z" fill="#595757" stroke="#231815" stroke-width="0.1" stroke-linecap="round" stroke-linejoin="round"/>
<path d="M67.1611 34.2649V39.3858C67.1611 39.5906 67.325 39.7545 67.5298 39.7545C67.7347 39.7545 67.8985 39.5906 67.8985 39.3858V34.2649C67.8985 34.0601 67.7347 33.8962 67.5298 33.8962C67.325 33.8962 67.1611 34.0601 67.1611 34.2649Z" fill="#595757" stroke="#231815" stroke-width="0.1" stroke-linecap="round" stroke-linejoin="round"/>
<path d="M69.7012 34.2649V39.3858C69.7012 39.5906 69.865 39.7545 70.0699 39.7545C70.2747 39.7545 70.4795 39.5906 70.4795 39.3858V34.2649C70.4795 34.0601 70.3157 33.8962 70.0699 33.8962C69.8241 33.8962 69.7012 34.0601 69.7012 34.2649Z" fill="#595757" stroke="#231815" stroke-width="0.1" stroke-linecap="round" stroke-linejoin="round"/>
<path d="M72.2822 34.2649V39.3858C72.2822 39.5906 72.4461 39.7545 72.6509 39.7545C72.8558 39.7545 73.0196 39.5906 73.0196 39.3858V34.2649C73.0196 34.0601 72.8558 33.8962 72.6509 33.8962C72.4461 33.8962 72.2822 34.0601 72.2822 34.2649Z" fill="#595757" stroke="#231815" stroke-width="0.1" stroke-linecap="round" stroke-linejoin="round"/>
<path d="M75.2317 47.907H59.8691V58.3126H75.2317V47.907Z" fill="#7ECEF4" stroke="#231815" stroke-width="0.1" stroke-linecap="round" stroke-linejoin="round"/>
<path d="M54.749 60.0331L56.4696 58.3125H76.9121L75.1915 60.0331H54.749Z" fill="#C9CACA" stroke="#231815" stroke-width="0.1" stroke-linecap="round" stroke-linejoin="round"/>
<path d="M75.6006 60.0331V54.9123C75.6006 54.9123 75.6006 55.1171 75.4777 55.199L77.1983 53.4784C77.1983 53.4784 76.9115 53.6013 76.7886 53.5604C76.6248 53.5194 76.5428 53.3555 76.5428 53.1917V58.3125C76.5428 58.5173 76.7067 58.6812 76.9115 58.6812C77.1164 58.6812 77.2802 58.5173 77.2802 58.3125V53.1917C77.2802 53.1917 77.1983 52.9049 77.0344 52.823C76.8706 52.782 76.7067 52.823 76.6248 52.9049L74.9042 54.6255C74.9042 54.6255 74.7812 54.7894 74.7812 54.9123V60.0331C74.7812 60.238 74.9451 60.4018 75.15 60.4018C75.3958 60.4018 75.5596 60.238 75.5596 60.0331H75.6006Z" fill="#595757" stroke="#231815" stroke-width="0.1" stroke-linecap="round" stroke-linejoin="round"/>
<path d="M55.1172 60.0331V54.9123C55.1172 54.9123 55.0763 55.1171 54.9943 55.199L56.7149 53.4784C56.7149 53.4784 56.4282 53.6013 56.3053 53.5604C56.1414 53.5194 56.0595 53.3555 56.0595 53.1917V58.3125C56.0595 58.5173 56.2233 58.6812 56.4691 58.6812C56.674 58.6812 56.8378 58.5173 56.8378 58.3125V53.1917C56.8378 53.1917 56.7559 52.9049 56.633 52.823C56.4691 52.782 56.3053 52.823 56.1824 52.9049L54.4618 54.6255C54.4618 54.6255 54.3389 54.7894 54.3389 54.9123V60.0331C54.3389 60.238 54.5027 60.4018 54.7076 60.4018C54.9124 60.4018 55.0763 60.238 55.0763 60.0331H55.1172Z" fill="#595757" stroke="#231815" stroke-width="0.1" stroke-linecap="round" stroke-linejoin="round"/>
<path d="M75.1915 54.9121H54.749" stroke="#231815" stroke-width="0.1" stroke-linecap="round" stroke-linejoin="round"/>
<path d="M59.8691 54.9121V60.033" stroke="#231815" stroke-width="0.1" stroke-linecap="round" stroke-linejoin="round"/>
<path d="M57.2881 54.9121V60.033" stroke="#231815" stroke-width="0.1" stroke-linecap="round" stroke-linejoin="round"/>
<path d="M62.4092 54.9121V60.033" stroke="#231815" stroke-width="0.1" stroke-linecap="round" stroke-linejoin="round"/>
<path d="M64.9902 54.9121V60.033" stroke="#231815" stroke-width="0.1" stroke-linecap="round" stroke-linejoin="round"/>
<path d="M67.5303 54.9121V60.033" stroke="#231815" stroke-width="0.1" stroke-linecap="round" stroke-linejoin="round"/>
<path d="M70.1113 54.9121V60.033" stroke="#231815" stroke-width="0.1" stroke-linecap="round" stroke-linejoin="round"/>
<path d="M72.6504 54.9121V60.033" stroke="#231815" stroke-width="0.1" stroke-linecap="round" stroke-linejoin="round"/>
<path d="M31.7249 47.907H16.3623V58.3126H31.7249V47.907Z" fill="#7ECEF4" stroke="#231815" stroke-width="0.1" stroke-linecap="round" stroke-linejoin="round"/>
<path d="M11.2402 60.0331L12.9199 58.3125H33.4033L31.7236 60.0331H11.2402Z" fill="#C9CACA" stroke="#231815" stroke-width="0.1" stroke-linecap="round" stroke-linejoin="round"/>
<path d="M32.0928 60.0331V54.9123C32.0928 54.9123 32.0518 55.1171 31.9699 55.199L33.6905 53.4784C33.6905 53.4784 33.4037 53.6013 33.2808 53.5604C33.1169 53.5194 33.035 53.3555 33.035 53.1917V58.3125C33.035 58.5173 33.1989 58.6812 33.4037 58.6812C33.6085 58.6812 33.7724 58.5173 33.7724 58.3125V53.1917C33.7724 53.1917 33.6905 52.9049 33.5266 52.823C33.3627 52.782 33.1989 52.823 33.1169 52.9049L31.3963 54.6255C31.3963 54.6255 31.2734 54.7894 31.2734 54.9123V60.0331C31.2734 60.238 31.4373 60.4018 31.6421 60.4018C31.847 60.4018 32.0108 60.238 32.0108 60.0331H32.0928Z" fill="#595757" stroke="#231815" stroke-width="0.1" stroke-linecap="round" stroke-linejoin="round"/>
<path d="M11.6093 60.0331V54.9123C11.6093 54.9123 11.5684 55.1171 11.4864 55.199L13.1661 53.4784C13.1661 53.4784 12.8793 53.6013 12.7564 53.5604C12.5925 53.5194 12.5106 53.3555 12.5106 53.1917V58.3125C12.5106 58.5173 12.6745 58.6812 12.8793 58.6812C13.0841 58.6812 13.248 58.5173 13.248 58.3125V53.1917C13.248 53.1917 13.1661 52.9049 13.0022 52.823C12.8793 52.782 12.6745 52.823 12.5925 52.9049L10.8719 54.6255C10.8719 54.6255 10.749 54.7894 10.749 54.9123V60.0331C10.749 60.238 10.9129 60.4018 11.1177 60.4018C11.3226 60.4018 11.4864 60.238 11.4864 60.0331H11.6093Z" fill="#595757" stroke="#231815" stroke-width="0.1" stroke-linecap="round" stroke-linejoin="round"/>
<path d="M31.7242 54.5024H11.2408C11.0359 54.5024 10.8721 54.6663 10.8721 54.9121C10.8721 55.1169 11.0359 55.2808 11.2408 55.2808H31.7242C31.7242 55.2808 32.0929 55.1169 32.0929 54.9121C32.0929 54.7073 31.929 54.5024 31.7242 54.5024Z" fill="#595757" stroke="#231815" stroke-width="0.1" stroke-linecap="round" stroke-linejoin="round"/>
<path d="M15.9521 54.9121V60.033C15.9521 60.2378 16.116 60.4017 16.3208 60.4017C16.5257 60.4017 16.7305 60.2378 16.7305 60.033V54.9121C16.7305 54.7073 16.5667 54.5024 16.3208 54.5024C16.075 54.5024 15.9521 54.6663 15.9521 54.9121Z" fill="#595757" stroke="#231815" stroke-width="0.1" stroke-linecap="round" stroke-linejoin="round"/>
<path d="M13.4121 54.9121V60.033C13.4121 60.2378 13.576 60.4017 13.8218 60.4017C14.0676 60.4017 14.1905 60.2378 14.1905 60.033V54.9121C14.1905 54.7073 14.0266 54.5024 13.8218 54.5024C13.6169 54.5024 13.4121 54.6663 13.4121 54.9121Z" fill="#595757" stroke="#231815" stroke-width="0.1" stroke-linecap="round" stroke-linejoin="round"/>
<path d="M18.5332 54.9121V60.033C18.5332 60.2378 18.6971 60.4017 18.9429 60.4017C19.1477 60.4017 19.3116 60.2378 19.3116 60.033V54.9121C19.3116 54.7073 19.1477 54.5024 18.9429 54.5024C18.738 54.5024 18.5332 54.6663 18.5332 54.9121Z" fill="#595757" stroke="#231815" stroke-width="0.1" stroke-linecap="round" stroke-linejoin="round"/>
<path d="M21.0723 54.9121V60.033C21.0723 60.2378 21.2361 60.4017 21.441 60.4017C21.6868 60.4017 21.8097 60.2378 21.8097 60.033V54.9121C21.8097 54.7073 21.6458 54.5024 21.441 54.5024C21.2361 54.5024 21.0723 54.6663 21.0723 54.9121Z" fill="#595757" stroke="#231815" stroke-width="0.1" stroke-linecap="round" stroke-linejoin="round"/>
<path d="M23.6533 54.9121V60.033C23.6533 60.2378 23.8172 60.4017 24.063 60.4017C24.2678 60.4017 24.4727 60.2378 24.4727 60.033V54.9121C24.4727 54.7073 24.3088 54.5024 24.063 54.5024C23.8582 54.5024 23.6533 54.6663 23.6533 54.9121Z" fill="#595757" stroke="#231815" stroke-width="0.1" stroke-linecap="round" stroke-linejoin="round"/>
<path d="M26.1943 54.9121V60.033C26.1943 60.2378 26.3582 60.4017 26.563 60.4017C26.7679 60.4017 26.9317 60.2378 26.9317 60.033V54.9121C26.9317 54.7073 26.7679 54.5024 26.563 54.5024C26.3582 54.5024 26.1943 54.6663 26.1943 54.9121Z" fill="#595757" stroke="#231815" stroke-width="0.1" stroke-linecap="round" stroke-linejoin="round"/>
<path d="M28.7744 54.9121V60.033C28.7744 60.2378 28.9383 60.4017 29.1431 60.4017C29.348 60.4017 29.5118 60.2378 29.5118 60.033V54.9121C29.5118 54.7073 29.348 54.5024 29.1431 54.5024C28.9383 54.5024 28.7744 54.6663 28.7744 54.9121Z" fill="#595757" stroke="#231815" stroke-width="0.1" stroke-linecap="round" stroke-linejoin="round"/>
<path d="M31.7249 27.4233H16.3623V37.8289H31.7249V27.4233Z" fill="#7ECEF4" stroke="#231815" stroke-width="0.1" stroke-linecap="round" stroke-linejoin="round"/>
<path d="M11.2402 39.5495L12.9199 37.8289H33.4033L31.7236 39.5495H11.2402Z" fill="#C9CACA" stroke="#231815" stroke-width="0.1" stroke-linecap="round" stroke-linejoin="round"/>
<path d="M32.0928 39.5495V34.4286C32.0928 34.4286 32.0518 34.6335 31.9699 34.7154L33.6905 32.9948C33.6905 32.9948 33.4037 33.1177 33.2808 33.0767C33.1169 33.0358 33.035 32.8719 33.035 32.708V37.8289C33.035 38.0337 33.1989 38.2385 33.4037 38.2385C33.6085 38.2385 33.7724 38.0747 33.7724 37.8289V32.708C33.7724 32.708 33.6905 32.4212 33.5266 32.3393C33.3627 32.2983 33.1989 32.3393 33.1169 32.4212L31.3963 34.1009C31.3963 34.1009 31.2734 34.2648 31.2734 34.3877V39.5085C31.2734 39.7133 31.4373 39.8772 31.6421 39.8772C31.847 39.8772 32.0108 39.7133 32.0108 39.5085L32.0928 39.5495Z" fill="#595757" stroke="#231815" stroke-width="0.1" stroke-linecap="round" stroke-linejoin="round"/>
<path d="M11.6093 39.5495V34.4286C11.6093 34.4286 11.5684 34.6335 11.4864 34.7154L13.1661 32.9948C13.1661 32.9948 12.8793 33.1177 12.7564 33.0767C12.5925 33.0358 12.5106 32.8719 12.5106 32.708V37.8289C12.5106 38.0337 12.6745 38.2385 12.8793 38.2385C13.0841 38.2385 13.248 38.0747 13.248 37.8289V32.708C13.248 32.708 13.1661 32.4212 13.0022 32.3393C12.8793 32.2983 12.6745 32.3393 12.5925 32.4212L10.8719 34.1009C10.8719 34.1009 10.749 34.2648 10.749 34.3877V39.5085C10.749 39.7133 10.9129 39.8772 11.1177 39.8772C11.3226 39.8772 11.4864 39.7133 11.4864 39.5085L11.6093 39.5495Z" fill="#595757" stroke="#231815" stroke-width="0.1" stroke-linecap="round" stroke-linejoin="round"/>
<path d="M31.7242 34.0598H11.2408C11.0359 34.0598 10.8721 34.2237 10.8721 34.4695C10.8721 34.6743 11.0359 34.8382 11.2408 34.8382H31.7242C31.7242 34.8382 32.0929 34.6743 32.0929 34.4695C32.0929 34.2237 31.929 34.0598 31.7242 34.0598Z" fill="#595757" stroke="#231815" stroke-width="0.1" stroke-linecap="round" stroke-linejoin="round"/>
<path d="M15.9521 34.4285V39.5493C15.9521 39.7542 16.116 39.918 16.3208 39.918C16.5257 39.918 16.7305 39.7542 16.7305 39.5493V34.4285C16.7305 34.1827 16.5667 34.0188 16.3208 34.0188C16.075 34.0188 15.9521 34.1827 15.9521 34.4285Z" fill="#595757" stroke="#231815" stroke-width="0.1" stroke-linecap="round" stroke-linejoin="round"/>
<path d="M13.4121 34.4285V39.5493C13.4121 39.7542 13.576 39.918 13.8218 39.918C14.0676 39.918 14.1905 39.7542 14.1905 39.5493V34.4285C14.1905 34.1827 14.0266 34.0188 13.8218 34.0188C13.6169 34.0188 13.4121 34.1827 13.4121 34.4285Z" fill="#595757" stroke="#231815" stroke-width="0.1" stroke-linecap="round" stroke-linejoin="round"/>
<path d="M18.5332 34.4285V39.5493C18.5332 39.7542 18.6971 39.918 18.9429 39.918C19.1477 39.918 19.3116 39.7542 19.3116 39.5493V34.4285C19.3116 34.1827 19.1477 34.0188 18.9429 34.0188C18.738 34.0188 18.5332 34.1827 18.5332 34.4285Z" fill="#595757" stroke="#231815" stroke-width="0.1" stroke-linecap="round" stroke-linejoin="round"/>
<path d="M21.0723 34.4285V39.5493C21.0723 39.7542 21.2361 39.918 21.441 39.918C21.6868 39.918 21.8097 39.7542 21.8097 39.5493V34.4285C21.8097 34.1827 21.6458 34.0188 21.441 34.0188C21.2361 34.0188 21.0723 34.1827 21.0723 34.4285Z" fill="#595757" stroke="#231815" stroke-width="0.1" stroke-linecap="round" stroke-linejoin="round"/>
<path d="M23.6533 34.4285V39.5493C23.6533 39.7542 23.8172 39.918 24.063 39.918C24.2678 39.918 24.4727 39.7542 24.4727 39.5493V34.4285C24.4727 34.1827 24.3088 34.0188 24.063 34.0188C23.8582 34.0188 23.6533 34.1827 23.6533 34.4285Z" fill="#595757" stroke="#231815" stroke-width="0.1" stroke-linecap="round" stroke-linejoin="round"/>
<path d="M26.1943 34.4285V39.5493C26.1943 39.7542 26.3582 39.918 26.563 39.918C26.7679 39.918 26.9317 39.7542 26.9317 39.5493V34.4285C26.9317 34.1827 26.7679 34.0188 26.563 34.0188C26.3582 34.0188 26.1943 34.1827 26.1943 34.4285Z" fill="#595757" stroke="#231815" stroke-width="0.1" stroke-linecap="round" stroke-linejoin="round"/>
<path d="M28.7744 34.4285V39.5493C28.7744 39.7542 28.9383 39.918 29.1431 39.918C29.348 39.918 29.5118 39.7542 29.5118 39.5493V34.4285C29.5118 34.1827 29.348 34.0188 29.1431 34.0188C28.9383 34.0188 28.7744 34.1827 28.7744 34.4285Z" fill="#595757" stroke="#231815" stroke-width="0.1" stroke-linecap="round" stroke-linejoin="round"/>
<path d="M85.6377 64.8263V59.7055L87.3583 57.9849" stroke="#231815" stroke-width="0.1" stroke-linecap="round" stroke-linejoin="round"/>
<path d="M75.1909 65.8506H1" stroke="#231815" stroke-width="0.1" stroke-linecap="round" stroke-linejoin="round"/>
<path d="M6.12012 65.8506V70.9305" stroke="#231815" stroke-width="0.1" stroke-linecap="round" stroke-linejoin="round"/>
<path d="M3.54004 65.8506V70.9305" stroke="#231815" stroke-width="0.1" stroke-linecap="round" stroke-linejoin="round"/>
<path d="M8.66113 65.8506V70.9305" stroke="#231815" stroke-width="0.1" stroke-linecap="round" stroke-linejoin="round"/>
<path d="M11.2422 65.8506V70.9305" stroke="#231815" stroke-width="0.1" stroke-linecap="round" stroke-linejoin="round"/>
<path d="M13.7812 65.8506V70.9305" stroke="#231815" stroke-width="0.1" stroke-linecap="round" stroke-linejoin="round"/>
<path d="M16.3623 65.8506V70.9305" stroke="#231815" stroke-width="0.1" stroke-linecap="round" stroke-linejoin="round"/>
<path d="M18.9023 65.8506V70.9305" stroke="#231815" stroke-width="0.1" stroke-linecap="round" stroke-linejoin="round"/>
<path d="M21.4834 65.8506V70.9305" stroke="#231815" stroke-width="0.1" stroke-linecap="round" stroke-linejoin="round"/>
<path d="M24.0234 65.8506V70.9305" stroke="#231815" stroke-width="0.1" stroke-linecap="round" stroke-linejoin="round"/>
<path d="M26.6045 65.8506V70.9305" stroke="#231815" stroke-width="0.1" stroke-linecap="round" stroke-linejoin="round"/>
<path d="M29.1445 65.8506V70.9305" stroke="#231815" stroke-width="0.1" stroke-linecap="round" stroke-linejoin="round"/>
<path d="M31.7246 65.8506V70.9305" stroke="#231815" stroke-width="0.1" stroke-linecap="round" stroke-linejoin="round"/>
<path d="M34.2646 65.8506V70.9305" stroke="#231815" stroke-width="0.1" stroke-linecap="round" stroke-linejoin="round"/>
<path d="M36.8467 65.8506V70.9305" stroke="#231815" stroke-width="0.1" stroke-linecap="round" stroke-linejoin="round"/>
<path d="M39.3857 65.8506V70.9305" stroke="#231815" stroke-width="0.1" stroke-linecap="round" stroke-linejoin="round"/>
<path d="M41.9668 65.8506V70.9305" stroke="#231815" stroke-width="0.1" stroke-linecap="round" stroke-linejoin="round"/>
<path d="M44.5068 65.8506V70.9305" stroke="#231815" stroke-width="0.1" stroke-linecap="round" stroke-linejoin="round"/>
<path d="M47.0459 65.8506V70.9305" stroke="#231815" stroke-width="0.1" stroke-linecap="round" stroke-linejoin="round"/>
<path d="M49.6279 65.8506V70.9305" stroke="#231815" stroke-width="0.1" stroke-linecap="round" stroke-linejoin="round"/>
<path d="M52.168 65.8506V70.9305" stroke="#231815" stroke-width="0.1" stroke-linecap="round" stroke-linejoin="round"/>
<path d="M54.749 65.8506V70.9305" stroke="#231815" stroke-width="0.1" stroke-linecap="round" stroke-linejoin="round"/>
<path d="M57.2881 65.8506V70.9305" stroke="#231815" stroke-width="0.1" stroke-linecap="round" stroke-linejoin="round"/>
<path d="M59.8691 65.8506V70.9305" stroke="#231815" stroke-width="0.1" stroke-linecap="round" stroke-linejoin="round"/>
<path d="M62.4102 65.8506V70.9305" stroke="#231815" stroke-width="0.1" stroke-linecap="round" stroke-linejoin="round"/>
<path d="M64.9902 65.8506V70.9305" stroke="#231815" stroke-width="0.1" stroke-linecap="round" stroke-linejoin="round"/>
<path d="M67.5303 65.8506V70.9305" stroke="#231815" stroke-width="0.1" stroke-linecap="round" stroke-linejoin="round"/>
<path d="M70.1113 65.8506V70.9305" stroke="#231815" stroke-width="0.1" stroke-linecap="round" stroke-linejoin="round"/>
<path d="M72.6504 65.8506V70.9305" stroke="#231815" stroke-width="0.1" stroke-linecap="round" stroke-linejoin="round"/>
<path d="M75.1914 70.9305V65.8506L80.2713 60.7708V65.8916" stroke="#231815" stroke-width="0.1" stroke-linecap="round" stroke-linejoin="round"/>
<path d="M78.6318 62.4094V67.5303" stroke="#231815" stroke-width="0.1" stroke-linecap="round" stroke-linejoin="round"/>
<path d="M76.9121 69.2507V64.1299" stroke="#231815" stroke-width="0.1" stroke-linecap="round" stroke-linejoin="round"/>
<path d="M1 70.9302V65.8503L8.66079 58.0256" stroke="#231815" stroke-width="0.1" stroke-linecap="round" stroke-linejoin="round"/>
<path d="M6.12012 60.7297V65.8506" stroke="#231815" stroke-width="0.1" stroke-linecap="round" stroke-linejoin="round"/>
<path d="M4.40039 62.4092V67.53" stroke="#231815" stroke-width="0.1" stroke-linecap="round" stroke-linejoin="round"/>
<path d="M2.7207 64.1299V69.2507" stroke="#231815" stroke-width="0.1" stroke-linecap="round" stroke-linejoin="round"/>
<path d="M90.5942 86.2932V82.9749L80.3115 72.7332V76.0924" stroke="#231815" stroke-width="0.1" stroke-linecap="round" stroke-linejoin="round"/>
<path d="M80.3123 72.7332H75.1914" stroke="#231815" stroke-width="0.1" stroke-linecap="round" stroke-linejoin="round"/>
<path d="M52.1683 40.246C52.1683 41.6389 48.7271 42.7859 44.5075 42.7859C40.2879 42.7859 36.8467 41.6389 36.8467 40.246C36.8467 38.8531 40.2879 37.7061 44.5075 37.7061C48.7271 37.7061 52.1683 38.8531 52.1683 40.246Z" fill="#584136" stroke="#231815" stroke-width="0.1" stroke-linecap="round" stroke-linejoin="round"/>
</svg>
