<svg width="43" height="102" viewBox="0 0 43 102" fill="none" xmlns="http://www.w3.org/2000/svg">
<path d="M32.279 36.5543L25.6406 26.1155V27.5407L32.279 37.967V36.5543Z" fill="#717E7E" stroke="#231815" stroke-width="0.1" stroke-linecap="round" stroke-linejoin="round"/>
<path d="M32.279 52.1814L25.6406 41.7676V43.1803L32.279 53.6066V52.1814Z" fill="#717E7E" stroke="#231815" stroke-width="0.1" stroke-linecap="round" stroke-linejoin="round"/>
<path d="M33.7041 68.2958L25.6406 57.407V58.8197L33.7041 69.721V68.2958Z" fill="#717E7E" stroke="#231815" stroke-width="0.1" stroke-linecap="round" stroke-linejoin="round"/>
<path d="M36.5424 83.9478L25.7285 73.0464V74.4591L36.5424 85.3604V83.9478Z" fill="#717E7E" stroke="#231815" stroke-width="0.1" stroke-linecap="round" stroke-linejoin="round"/>
<path d="M22.8034 74.9342L5.26367 85.3605V83.9478L22.8034 73.509V74.9342Z" fill="#96A8A7" stroke="#231815" stroke-width="0.1" stroke-linecap="round" stroke-linejoin="round"/>
<path d="M22.8911 59.3324L8.11426 69.7212V68.296L22.8911 57.9072V59.3324Z" fill="#96A8A7" stroke="#231815" stroke-width="0.1" stroke-linecap="round" stroke-linejoin="round"/>
<path d="M22.8907 43.6928L9.53906 54.0815V52.6564L22.8907 42.2676V43.6928Z" fill="#96A8A7" stroke="#231815" stroke-width="0.1" stroke-linecap="round" stroke-linejoin="round"/>
<path d="M22.8907 28.0534L9.53906 38.4422V37.017L22.8907 26.6282V28.0534Z" fill="#96A8A7" stroke="#231815" stroke-width="0.1" stroke-linecap="round" stroke-linejoin="round"/>
<path d="M22.8907 12.4139L9.53906 22.8027L10.3017 21.3776L22.8907 10.9888V12.4139Z" fill="#96A8A7" stroke="#231815" stroke-width="0.1" stroke-linecap="round" stroke-linejoin="round"/>
<path d="M22.8037 74.9343H25.6416L27.0667 90.5738H24.2289L22.8037 74.9343Z" fill="#96A8A7" stroke="#231815" stroke-width="0.1" stroke-linecap="round" stroke-linejoin="round"/>
<path d="M25.6406 74.9342L26.5907 73.9966L28.0159 89.636L27.0658 90.5737L25.6406 74.9342Z" fill="#717E7E" stroke="#231815" stroke-width="0.1" stroke-linecap="round" stroke-linejoin="round"/>
<path d="M25.6541 59.2947H22.8037V74.9341H25.6541V59.2947Z" fill="#A40000" stroke="#231815" stroke-width="0.1" stroke-linecap="round" stroke-linejoin="round"/>
<path d="M25.6406 59.2948L26.5907 58.3447V73.9967L25.6406 74.9343V59.2948Z" fill="#7D0000" stroke="#231815" stroke-width="0.1" stroke-linecap="round" stroke-linejoin="round"/>
<path d="M25.6541 43.6553H22.8037V59.2947H25.6541V43.6553Z" fill="#96A8A7" stroke="#231815" stroke-width="0.1" stroke-linecap="round" stroke-linejoin="round"/>
<path d="M25.6406 43.6552L26.5907 42.7051V58.3445L25.6406 59.2947V43.6552Z" fill="#717E7E" stroke="#231815" stroke-width="0.1" stroke-linecap="round" stroke-linejoin="round"/>
<path d="M25.6541 28.0159H22.8037V43.6553H25.6541V28.0159Z" fill="#A40000" stroke="#231815" stroke-width="0.1" stroke-linecap="round" stroke-linejoin="round"/>
<path d="M25.6406 28.0158L26.5907 27.0657V42.7051L25.6406 43.6552V28.0158Z" fill="#7D0000" stroke="#231815" stroke-width="0.1" stroke-linecap="round" stroke-linejoin="round"/>
<path d="M25.6541 12.3765H22.8037V28.0159H25.6541V12.3765Z" fill="#96A8A7" stroke="#231815" stroke-width="0.1" stroke-linecap="round" stroke-linejoin="round"/>
<path d="M25.6406 12.3764L26.5907 11.4263V27.0657L25.6406 28.0158V12.3764Z" fill="#717E7E" stroke="#231815" stroke-width="0.1" stroke-linecap="round" stroke-linejoin="round"/>
<path d="M20.3271 4.30054H23.1775L25.6403 12.3765H22.8025L20.3271 4.30054Z" fill="#A40000" stroke="#231815" stroke-width="0.1" stroke-linecap="round" stroke-linejoin="round"/>
<path d="M23.1777 4.30046L24.1279 3.35034L26.5907 11.4264L25.6405 12.3765L23.1777 4.30046Z" fill="#7D0000" stroke="#231815" stroke-width="0.1" stroke-linecap="round" stroke-linejoin="round"/>
<path d="M10.0002 83.4604L8.11245 85.3607L3.83691 101L5.73715 99.1124L10.0002 83.4604Z" fill="#B7CCCB" stroke="#231815" stroke-width="0.1" stroke-linecap="round" stroke-linejoin="round"/>
<path d="M8.11339 85.3606H5.26303L1 101H3.83785L8.11339 85.3606Z" fill="#D4ECEA" stroke="#231815" stroke-width="0.1" stroke-linecap="round" stroke-linejoin="round"/>
<path d="M12.8523 67.8335L10.9521 69.7212L8.11426 85.3607L10.002 83.4605L12.8523 67.8335Z" fill="#C7000B" stroke="#231815" stroke-width="0.1" stroke-linecap="round" stroke-linejoin="round"/>
<path d="M10.9519 69.7214H8.11403L5.26367 85.3609H8.11403L10.9519 69.7214Z" fill="#E60012" stroke="#231815" stroke-width="0.1" stroke-linecap="round" stroke-linejoin="round"/>
<path d="M14.2766 52.1816L12.3763 54.0819L10.9512 69.7213L12.8514 67.8336L14.2766 52.1816Z" fill="#B7CCCB" stroke="#231815" stroke-width="0.1" stroke-linecap="round" stroke-linejoin="round"/>
<path d="M12.3773 54.0818H9.53944L8.11426 69.7212H10.9521L12.3773 54.0818Z" fill="#D4ECEA" stroke="#231815" stroke-width="0.1" stroke-linecap="round" stroke-linejoin="round"/>
<path d="M14.2762 36.5547L12.376 38.4424V54.0819L14.2762 52.1816V36.5547Z" fill="#C7000B" stroke="#231815" stroke-width="0.1" stroke-linecap="round" stroke-linejoin="round"/>
<path d="M12.3769 38.4424H9.53906V54.0818H12.3769V38.4424Z" fill="#E60012" stroke="#231815" stroke-width="0.1" stroke-linecap="round" stroke-linejoin="round"/>
<path d="M14.2762 20.9026L12.376 22.8028V38.4423L14.2762 36.5545V20.9026Z" fill="#B7CCCB" stroke="#231815" stroke-width="0.1" stroke-linecap="round" stroke-linejoin="round"/>
<path d="M12.3769 22.803H9.53906V38.4424H12.3769V22.803Z" fill="#D4ECEA" stroke="#231815" stroke-width="0.1" stroke-linecap="round" stroke-linejoin="round"/>
<path d="M22.8023 5.26318L20.902 7.16342L12.376 22.8029L14.2762 20.9026L22.8023 5.26318Z" fill="#C7000B" stroke="#231815" stroke-width="0.1" stroke-linecap="round" stroke-linejoin="round"/>
<path d="M20.903 7.16357H18.0651L9.53906 22.803H12.3769L20.903 7.16357Z" fill="#E60012" stroke="#231815" stroke-width="0.1" stroke-linecap="round" stroke-linejoin="round"/>
<path d="M33.7041 85.3606H36.542L40.8175 101H37.9671L33.7041 85.3606Z" fill="#D4ECEA" stroke="#231815" stroke-width="0.1" stroke-linecap="round" stroke-linejoin="round"/>
<path d="M36.542 85.3607L38.4422 83.4604L42.7053 99.1124L40.8175 101L36.542 85.3607Z" fill="#B7CCCB" stroke="#231815" stroke-width="0.1" stroke-linecap="round" stroke-linejoin="round"/>
<path d="M30.8535 69.7214H33.7039L36.5417 85.3609H33.7039L30.8535 69.7214Z" fill="#E60012" stroke="#231815" stroke-width="0.1" stroke-linecap="round" stroke-linejoin="round"/>
<path d="M33.7041 69.7212L35.5918 67.8335L38.4422 83.4605L36.542 85.3607L33.7041 69.7212Z" fill="#C7000B" stroke="#231815" stroke-width="0.1" stroke-linecap="round" stroke-linejoin="round"/>
<path d="M29.4414 54.0818H32.2793L33.7044 69.7212H30.8541L29.4414 54.0818Z" fill="#D4ECEA" stroke="#231815" stroke-width="0.1" stroke-linecap="round" stroke-linejoin="round"/>
<path d="M32.2783 54.0819L34.1786 52.1816L35.5912 67.8336L33.7035 69.7213L32.2783 54.0819Z" fill="#B7CCCB" stroke="#231815" stroke-width="0.1" stroke-linecap="round" stroke-linejoin="round"/>
<path d="M32.2918 38.4424H29.4414V54.0818H32.2918V38.4424Z" fill="#E60012" stroke="#231815" stroke-width="0.1" stroke-linecap="round" stroke-linejoin="round"/>
<path d="M32.2783 38.4424L34.1786 36.5547V52.1816L32.2783 54.0819V38.4424Z" fill="#C7000B" stroke="#231815" stroke-width="0.1" stroke-linecap="round" stroke-linejoin="round"/>
<path d="M32.2918 22.803H29.4414V38.4424H32.2918V22.803Z" fill="#D4ECEA" stroke="#231815" stroke-width="0.1" stroke-linecap="round" stroke-linejoin="round"/>
<path d="M32.2783 22.8028L34.1786 20.9026V36.5545L32.2783 38.4423V22.8028Z" fill="#B7CCCB" stroke="#231815" stroke-width="0.1" stroke-linecap="round" stroke-linejoin="round"/>
<path d="M20.9023 7.16357H23.7527L32.2788 22.803H29.4409L20.9023 7.16357Z" fill="#E60012" stroke="#231815" stroke-width="0.1" stroke-linecap="round" stroke-linejoin="round"/>
<path d="M23.7529 7.16342L25.6407 5.26318L34.1792 20.9026L32.279 22.8029L23.7529 7.16342Z" fill="#C7000B" stroke="#231815" stroke-width="0.1" stroke-linecap="round" stroke-linejoin="round"/>
<path d="M25.6414 1H19.9532L18.0654 2.90024H23.7536L25.6414 1Z" fill="#EA5504" stroke="#231815" stroke-width="0.1" stroke-linecap="round" stroke-linejoin="round"/>
<path d="M23.7536 2.90015H18.0654V7.16318H23.7536V2.90015Z" fill="#E60012" stroke="#231815" stroke-width="0.1" stroke-linecap="round" stroke-linejoin="round"/>
<path d="M25.6407 1L23.7529 2.90024V7.16327L25.6407 5.26303V1Z" fill="#C7000B" stroke="#231815" stroke-width="0.1" stroke-linecap="round" stroke-linejoin="round"/>
<path d="M36.5426 83.9478H5.26367V85.3729H36.5426V83.9478Z" fill="#D4ECEA" stroke="#231815" stroke-width="0.1" stroke-linecap="round" stroke-linejoin="round"/>
<path d="M33.705 68.2959H8.11426V69.7211H33.705V68.2959Z" fill="#D4ECEA" stroke="#231815" stroke-width="0.1" stroke-linecap="round" stroke-linejoin="round"/>
<path d="M32.2919 52.6565H9.53906V54.0817H32.2919V52.6565Z" fill="#D4ECEA" stroke="#231815" stroke-width="0.1" stroke-linecap="round" stroke-linejoin="round"/>
<path d="M32.2919 37.0171H9.53906V38.4423H32.2919V37.0171Z" fill="#D4ECEA" stroke="#231815" stroke-width="0.1" stroke-linecap="round" stroke-linejoin="round"/>
<path d="M31.5043 21.3777H10.3017L9.53906 22.8029H32.2794L31.5043 21.3777Z" fill="#D4ECEA" stroke="#231815" stroke-width="0.1" stroke-linecap="round" stroke-linejoin="round"/>
<path d="M33.6792 19.9897L31.5039 21.3774L32.279 22.8026L34.1792 20.9024L33.6792 19.9897Z" fill="#96A8A7" stroke="#231815" stroke-width="0.1" stroke-linecap="round" stroke-linejoin="round"/>
<path d="M34.1786 35.1167L32.2783 37.0169V38.4421L34.1786 36.5419V35.1167Z" fill="#96A8A7" stroke="#231815" stroke-width="0.1" stroke-linecap="round" stroke-linejoin="round"/>
<path d="M34.1786 50.7688L32.2783 52.6565V54.0817L34.1786 52.1815V50.7688Z" fill="#96A8A7" stroke="#231815" stroke-width="0.1" stroke-linecap="round" stroke-linejoin="round"/>
<path d="M35.5918 66.4082L33.7041 68.2959V69.7211L35.5918 67.8334V66.4082Z" fill="#96A8A7" stroke="#231815" stroke-width="0.1" stroke-linecap="round" stroke-linejoin="round"/>
<path d="M38.4422 82.0476L36.542 83.9479V85.3605L38.4422 83.4603V82.0476Z" fill="#96A8A7" stroke="#231815" stroke-width="0.1" stroke-linecap="round" stroke-linejoin="round"/>
</svg>
