<svg width="60" height="60" viewBox="0 0 60 60" fill="none" xmlns="http://www.w3.org/2000/svg">
<g clip-path="url(#clip0_223_1524)">
<path d="M46.6758 0.398346C44.8242 -0.527435 42.5742 0.222565 41.6484 2.07413C40.7227 3.92569 41.4727 6.16397 43.3125 7.10147L43.3594 7.12491C43.4062 7.14835 43.4883 7.19522 43.6055 7.26553C43.8398 7.40616 44.1914 7.6171 44.625 7.92178C45.5039 8.53116 46.6875 9.46866 47.8711 10.7577C50.2148 13.289 52.5 17.1093 52.5 22.4999C52.5 24.5741 54.1758 26.2499 56.25 26.2499C58.3242 26.2499 60 24.5741 60 22.4999C60 14.7655 56.6602 9.21085 53.3789 5.66006C51.75 3.89053 50.1211 2.60147 48.9023 1.75772C48.2812 1.32413 47.7656 1.00772 47.3789 0.785065C47.1914 0.667877 47.0273 0.585846 46.9102 0.527252C46.8516 0.492096 46.8047 0.468658 46.7695 0.445221L46.7227 0.421783L46.6992 0.410065H46.6875C46.6875 0.410065 46.6875 0.410064 45.0117 3.76163L46.6758 0.398346ZM15.082 26.6601C15.8086 20.0976 21.375 14.9999 28.125 14.9999C35.3789 14.9999 41.25 20.871 41.25 28.1249C41.25 31.5585 39.9375 34.6757 37.7812 37.0194C35.7891 39.1757 33.75 42.3046 33.75 46.1601V46.8749C33.75 49.9804 31.2305 52.4999 28.125 52.4999C26.0508 52.4999 24.375 54.1757 24.375 56.2499C24.375 58.3241 26.0508 59.9999 28.125 59.9999C35.3789 59.9999 41.25 54.1288 41.25 46.8749V46.1601C41.25 45.0116 41.8828 43.6171 43.2891 42.0937C46.6758 38.4257 48.75 33.5155 48.75 28.1249C48.75 16.7343 39.5156 7.49991 28.125 7.49991C17.5078 7.49991 8.76562 15.5273 7.62891 25.8398C7.40625 27.9023 8.88281 29.7538 10.9453 29.9765C13.0078 30.1991 14.8594 28.7226 15.082 26.6601ZM3.75 59.9999C4.74456 59.9999 5.69839 59.6048 6.40165 58.9016C7.10491 58.1983 7.5 57.2445 7.5 56.2499C7.5 55.2554 7.10491 54.3015 6.40165 53.5983C5.69839 52.895 4.74456 52.4999 3.75 52.4999C2.75544 52.4999 1.80161 52.895 1.09835 53.5983C0.395088 54.3015 0 55.2554 0 56.2499C0 57.2445 0.395088 58.1983 1.09835 58.9016C1.80161 59.6048 2.75544 59.9999 3.75 59.9999ZM22.5 41.2499C22.5 40.2554 22.1049 39.3015 21.4016 38.5983C20.6984 37.895 19.7446 37.4999 18.75 37.4999C17.7554 37.4999 16.8016 37.895 16.0984 38.5983C15.3951 39.3015 15 40.2554 15 41.2499C15 42.2445 15.3951 43.1983 16.0984 43.9016C16.8016 44.6048 17.7554 44.9999 18.75 44.9999C19.7446 44.9999 20.6984 44.6048 21.4016 43.9016C22.1049 43.1983 22.5 42.2445 22.5 41.2499ZM4.85156 42.3515C3.38672 43.8163 3.38672 46.1952 4.85156 47.6601L12.3516 55.1601C13.8164 56.6249 16.1953 56.6249 17.6602 55.1601C19.125 53.6952 19.125 51.3163 17.6602 49.8515L10.1602 42.3515C8.69531 40.8866 6.31641 40.8866 4.85156 42.3515ZM24.375 28.1249C24.375 26.0507 26.0508 24.3749 28.125 24.3749C30.1992 24.3749 31.875 26.0507 31.875 28.1249C31.875 29.6835 33.1289 30.9374 34.6875 30.9374C36.2461 30.9374 37.5 29.6835 37.5 28.1249C37.5 22.9452 33.3047 18.7499 28.125 18.7499C22.9453 18.7499 18.75 22.9452 18.75 28.1249C18.75 29.6835 20.0039 30.9374 21.5625 30.9374C23.1211 30.9374 24.375 29.6835 24.375 28.1249Z" fill="black"/>
</g>
<defs>
<clipPath id="clip0_223_1524">
<rect width="60" height="60" fill="white"/>
</clipPath>
</defs>
</svg>
