<svg width="45" height="40" viewBox="0 0 45 40" fill="none" xmlns="http://www.w3.org/2000/svg">
<g clip-path="url(#clip0_259_1169)">
<path d="M42.4844 22.4688C43.8125 22.4688 44.9844 21.375 44.9844 19.9609C45.0625 19.2578 44.75 18.6328 44.125 18.0859L40 14.4531V5C40 3.61719 38.8828 2.5 37.5 2.5H35C33.6172 2.5 32.5 3.61719 32.5 5V7.86719L24.1797 0.546875C23.7109 0.15625 23.0859 0 22.5391 0C21.9922 0 21.3672 0.078125 20.8203 0.625L0.78125 18.0859C0.234375 18.6328 0 19.2578 0 19.9609C0 21.3672 1.09375 22.4688 2.5 22.4688H5V27.9141C4.99219 27.9844 4.99219 28.0547 4.99219 28.1328V36.875C4.99219 38.6016 6.39062 40 8.11719 40H9.36719C9.46094 40 9.55469 39.9922 9.64844 39.9844C9.76562 39.9922 9.88281 40 10 40H12.5H14.375C16.1016 40 17.5 38.6016 17.5 36.875V35V30C17.5 28.6172 18.6172 27.5 20 27.5H25C26.3828 27.5 27.5 28.6172 27.5 30V35V36.875C27.5 38.6016 28.8984 40 30.625 40H32.5H35.0391C35.1484 40 35.2578 40 35.3672 39.9922C35.4531 40 35.5391 40 35.625 40H36.875C38.6016 40 40 38.6016 40 36.875V35.6094C40.0234 35.4062 40.0391 35.1953 40.0391 34.9766L39.9844 22.4609H42.4844V22.4688Z" fill="black"/>
</g>
<defs>
<clipPath id="clip0_259_1169">
<rect width="45" height="40" fill="white"/>
</clipPath>
</defs>
</svg>
