<svg width="100" height="67" viewBox="0 0 100 67" fill="none" xmlns="http://www.w3.org/2000/svg">
<g clip-path="url(#clip0_226_1568)">
<path d="M80.1434 44.4019H0.0795898V66.7463H80.1434V44.4019Z" fill="#EFEFEF" stroke="#231815" stroke-width="0.1" stroke-linecap="round" stroke-linejoin="round"/>
<path d="M80.1434 44.402H0.0795898L19.7925 25.5981H99.8404L80.1434 44.402Z" fill="#009E96" stroke="#231815" stroke-width="0.1" stroke-linecap="round" stroke-linejoin="round"/>
<path d="M99.8405 47.9267L80.1436 66.7465V44.402L99.8405 25.5981V47.9267Z" fill="#DDDCCF" stroke="#231815" stroke-width="0.1" stroke-linecap="round" stroke-linejoin="round"/>
<path d="M12.3921 47.9268H6.23584V50.2713H12.3921V47.9268Z" fill="#6DB3D4" stroke="#231815" stroke-width="0.1" stroke-linecap="round" stroke-linejoin="round"/>
<path d="M24.7046 47.9268H18.5483V50.2713H24.7046V47.9268Z" fill="#6DB3D4" stroke="#231815" stroke-width="0.1" stroke-linecap="round" stroke-linejoin="round"/>
<path d="M37.0333 47.9268H30.877V50.2713H37.0333V47.9268Z" fill="#6DB3D4" stroke="#231815" stroke-width="0.1" stroke-linecap="round" stroke-linejoin="round"/>
<path d="M49.3458 47.9268H43.1895V50.2713H49.3458V47.9268Z" fill="#6DB3D4" stroke="#231815" stroke-width="0.1" stroke-linecap="round" stroke-linejoin="round"/>
<path d="M61.6587 47.9268H55.5024V50.2713H61.6587V47.9268Z" fill="#6DB3D4" stroke="#231815" stroke-width="0.1" stroke-linecap="round" stroke-linejoin="round"/>
<path d="M73.9869 47.9268H67.8306V50.2713H73.9869V47.9268Z" fill="#6DB3D4" stroke="#231815" stroke-width="0.1" stroke-linecap="round" stroke-linejoin="round"/>
<path d="M85.0717 62.0414L82.5996 64.3859V58.5167L85.0717 56.1562V62.0414Z" fill="#9FA0A0" stroke="#231815" stroke-width="0.1" stroke-linecap="round" stroke-linejoin="round"/>
<path d="M73.9713 53.7959H55.5024V66.7465H73.9713V53.7959Z" fill="#4C829A" stroke="#231815" stroke-width="0.1" stroke-linecap="round" stroke-linejoin="round"/>
<path d="M55.5024 64.3857H73.9873" stroke="#231815" stroke-width="0.1" stroke-linecap="round" stroke-linejoin="round"/>
<path d="M55.5024 62.0415H73.9873" stroke="#231815" stroke-width="0.1" stroke-linecap="round" stroke-linejoin="round"/>
<path d="M55.5024 59.6812H73.9873" stroke="#231815" stroke-width="0.1" stroke-linecap="round" stroke-linejoin="round"/>
<path d="M55.5024 57.3364H73.9873" stroke="#231815" stroke-width="0.1" stroke-linecap="round" stroke-linejoin="round"/>
<path d="M55.5024 54.9761H73.9873" stroke="#231815" stroke-width="0.1" stroke-linecap="round" stroke-linejoin="round"/>
<path d="M49.3618 53.7959H30.877V66.7465H49.3618V53.7959Z" fill="#4C829A" stroke="#231815" stroke-width="0.1" stroke-linecap="round" stroke-linejoin="round"/>
<path d="M30.877 65.5664H49.3459" stroke="#231815" stroke-width="0.1" stroke-linecap="round" stroke-linejoin="round"/>
<path d="M30.877 63.2056H49.3459" stroke="#231815" stroke-width="0.1" stroke-linecap="round" stroke-linejoin="round"/>
<path d="M30.877 62.0415H49.3459" stroke="#231815" stroke-width="0.1" stroke-linecap="round" stroke-linejoin="round"/>
<path d="M30.877 59.6812H49.3459" stroke="#231815" stroke-width="0.1" stroke-linecap="round" stroke-linejoin="round"/>
<path d="M30.877 58.5166H49.3459" stroke="#231815" stroke-width="0.1" stroke-linecap="round" stroke-linejoin="round"/>
<path d="M30.877 54.9761H49.3459" stroke="#231815" stroke-width="0.1" stroke-linecap="round" stroke-linejoin="round"/>
<path d="M24.7047 53.7959H6.23584V66.7465H24.7047V53.7959Z" fill="#4C829A" stroke="#231815" stroke-width="0.1" stroke-linecap="round" stroke-linejoin="round"/>
<path d="M6.23584 64.3857H24.7207" stroke="#231815" stroke-width="0.1" stroke-linecap="round" stroke-linejoin="round"/>
<path d="M6.23584 62.0415H24.7207" stroke="#231815" stroke-width="0.1" stroke-linecap="round" stroke-linejoin="round"/>
<path d="M6.23584 60.8613H24.7207" stroke="#231815" stroke-width="0.1" stroke-linecap="round" stroke-linejoin="round"/>
<path d="M6.23584 58.5166H24.7207" stroke="#231815" stroke-width="0.1" stroke-linecap="round" stroke-linejoin="round"/>
<path d="M6.23584 54.9761H24.7207" stroke="#231815" stroke-width="0.1" stroke-linecap="round" stroke-linejoin="round"/>
<path d="M91.3075 14.019H13.8115V33.5406H91.3075V14.019Z" fill="#EFEFEF" stroke="#231815" stroke-width="0.1" stroke-linecap="round" stroke-linejoin="round"/>
<path d="M21.3396 17.0972H15.9648V19.1546H21.3396V17.0972Z" fill="#6DB3D4" stroke="#231815" stroke-width="0.1" stroke-linecap="round" stroke-linejoin="round"/>
<path d="M32.1048 17.0972H26.73V19.1546H32.1048V17.0972Z" fill="#6DB3D4" stroke="#231815" stroke-width="0.1" stroke-linecap="round" stroke-linejoin="round"/>
<path d="M42.8704 17.0972H37.4956V19.1546H42.8704V17.0972Z" fill="#6DB3D4" stroke="#231815" stroke-width="0.1" stroke-linecap="round" stroke-linejoin="round"/>
<path d="M53.636 17.0972H48.2612V19.1546H53.636V17.0972Z" fill="#6DB3D4" stroke="#231815" stroke-width="0.1" stroke-linecap="round" stroke-linejoin="round"/>
<path d="M64.4176 17.0972H59.0269V19.1546H64.4176V17.0972Z" fill="#6DB3D4" stroke="#231815" stroke-width="0.1" stroke-linecap="round" stroke-linejoin="round"/>
<path d="M75.1832 17.0972H69.7925V19.1546H75.1832V17.0972Z" fill="#6DB3D4" stroke="#231815" stroke-width="0.1" stroke-linecap="round" stroke-linejoin="round"/>
<path d="M85.9489 17.0972H80.5581V19.1546H85.9489V17.0972Z" fill="#6DB3D4" stroke="#231815" stroke-width="0.1" stroke-linecap="round" stroke-linejoin="round"/>
<path d="M91.3235 14.019L99.92 0.0795898H22.424L13.8115 14.019H91.3235Z" fill="#009E96" stroke="#231815" stroke-width="0.1" stroke-linecap="round" stroke-linejoin="round"/>
<path d="M99.9197 0.0795898L91.3232 14.019V33.5405L99.9197 25.3268V0.0795898Z" fill="#DDDCCF" stroke="#231815" stroke-width="0.1" stroke-linecap="round" stroke-linejoin="round"/>
</g>
<defs>
<clipPath id="clip0_226_1568">
<rect width="100" height="66.8262" fill="white"/>
</clipPath>
</defs>
</svg>
