<svg width="100" height="79" viewBox="0 0 100 79" fill="none" xmlns="http://www.w3.org/2000/svg">
<g clip-path="url(#clip0_226_1621)">
<mask id="mask0_226_1621" style="mask-type:alpha" maskUnits="userSpaceOnUse" x="2" y="-12" width="100" height="100">
<rect x="2" y="-12" width="100" height="100" fill="#D9D9D9"/>
</mask>
<g mask="url(#mask0_226_1621)">
<path d="M56.3586 -0.925293H101.926L53.1795 47.821C53.1795 47.821 29.1646 69.7165 3.73177 69.7165C3.73177 69.7165 -1.92494 58.418 7.61237 47.821L56.3586 -0.925293Z" fill="#748F9D" stroke="#231815" stroke-width="0.1" stroke-linecap="round" stroke-linejoin="round"/>
<path d="M98.672 20.4628L58.4332 59.8508C58.4332 59.8508 38.5973 77.5374 17.6123 77.5374C13.5526 77.1792 3.74658 69.7165 3.74658 69.7165C29.1794 69.7165 53.1943 47.821 53.1943 47.821L101.926 -0.925293C101.926 -0.925293 99.6421 18.5523 98.672 20.4628Z" fill="#004077" stroke="#231815" stroke-width="0.1" stroke-linecap="round" stroke-linejoin="round"/>
<path d="M56.493 0.835938H99.9557L52.5079 48.5524C52.5079 48.5524 29.5975 69.5673 5.34374 69.5673C5.34374 69.5673 -0.0443163 58.7315 9.04524 48.5524L56.493 0.835938Z" fill="#C8DCCA" stroke="#231815" stroke-width="0.1" stroke-linecap="round" stroke-linejoin="round"/>
<path d="M74.7316 8.10449H37.6421V22.9403H74.7316V8.10449Z" fill="white" stroke="#231815" stroke-width="0.1" stroke-linecap="round" stroke-linejoin="round"/>
<path d="M74.7316 12.3137L80.3884 6.67188H43.2988L37.6421 12.3137H74.7316Z" fill="#C8DCCA" stroke="#231815" stroke-width="0.1" stroke-linecap="round" stroke-linejoin="round"/>
<path d="M13.269 47.3132H50.3586L51.9556 26.6416H14.8661L13.269 47.3132Z" fill="white" stroke="#231815" stroke-width="0.1" stroke-linecap="round" stroke-linejoin="round"/>
<path d="M51.9558 26.6418L74.7319 3.86572H37.6423L14.8662 26.6418H51.9558Z" fill="#F7F8F8" stroke="#231815" stroke-width="0.1" stroke-linecap="round" stroke-linejoin="round"/>
<path d="M17.3286 34.5972H48.06L48.2391 30.3584H17.5077L17.3286 34.5972Z" fill="#BAE3F9" stroke="#231815" stroke-width="0.1" stroke-linecap="round" stroke-linejoin="round"/>
<path d="M74.7315 12.3135V3.86572L51.9554 26.6418L50.3584 47.3135L74.7315 22.9404L80.3882 17.2836V6.67169L74.7315 12.3135Z" fill="#C9CACA" stroke="#231815" stroke-width="0.1" stroke-linecap="round" stroke-linejoin="round"/>
<path d="M74.7466 5.61182H80.3884" stroke="#231815" stroke-width="0.1" stroke-linecap="round" stroke-linejoin="round"/>
<path d="M80.3887 5.61182V6.67152" stroke="#231815" stroke-width="0.1" stroke-linecap="round" stroke-linejoin="round"/>
<path d="M75.7915 5.61182V6.67152" stroke="#231815" stroke-width="0.1" stroke-linecap="round" stroke-linejoin="round"/>
<path d="M74.7466 11.2387L80.3884 5.61182" stroke="#231815" stroke-width="0.1" stroke-linecap="round" stroke-linejoin="round"/>
<path d="M75.6123 10.373V11.4327" stroke="#231815" stroke-width="0.1" stroke-linecap="round" stroke-linejoin="round"/>
<path d="M78.7915 7.19385V8.25355" stroke="#231815" stroke-width="0.1" stroke-linecap="round" stroke-linejoin="round"/>
<path d="M56.0155 38.4778L53.1797 41.2987V39.1793L56.0155 36.3584V38.4778Z" fill="#7ECEF4" stroke="#231815" stroke-width="0.1" stroke-linecap="round" stroke-linejoin="round"/>
<path d="M78.6124 15.8806L75.7915 18.7015V16.5821L78.6124 13.7612V15.8806Z" fill="#7ECEF4" stroke="#231815" stroke-width="0.1" stroke-linecap="round" stroke-linejoin="round"/>
<path d="M70.1348 24.3582L61.6572 32.8358V30.7164L70.1348 22.2388V24.3582Z" fill="#7ECEF4" stroke="#231815" stroke-width="0.1" stroke-linecap="round" stroke-linejoin="round"/>
<path d="M59.5379 25.4033L53.1797 31.7764V29.657L59.5379 23.2988V25.4033Z" fill="#7ECEF4" stroke="#231815" stroke-width="0.1" stroke-linecap="round" stroke-linejoin="round"/>
<path d="M70.1348 14.8211L61.6572 23.2987V21.1793L70.1348 12.7017V14.8211Z" fill="#7ECEF4" stroke="#231815" stroke-width="0.1" stroke-linecap="round" stroke-linejoin="round"/>
<path d="M59.5377 38.1495L58.1348 39.5376V34.4779L59.5377 33.0898V38.1495Z" fill="#4C829A" stroke="#231815" stroke-width="0.1" stroke-linecap="round" stroke-linejoin="round"/>
<path d="M73.6723 24.0299L72.2544 25.418V20.3583L73.6723 18.9702V24.0299Z" fill="#4C829A" stroke="#231815" stroke-width="0.1" stroke-linecap="round" stroke-linejoin="round"/>
<path d="M51.0005 3.04468C51.0005 1.43274 47.3139 0.462587 42.7617 0.865572C38.2095 1.26856 34.5229 2.8805 34.5229 4.49244L32.2095 15.8656C32.2095 17.9253 36.9408 19.179 42.7617 18.6566C48.5975 18.1492 53.314 16.0745 53.314 14.0148L51.0005 3.04468Z" fill="#B60005" stroke="#231815" stroke-width="0.1" stroke-linecap="round" stroke-linejoin="round"/>
<path d="M51.0006 3.04477C51.0006 4.64179 47.314 6.26865 42.7618 6.67164C38.2095 7.07462 34.5229 6.08955 34.5229 4.49253C34.5229 2.89552 38.2095 1.26865 42.7618 0.865669C47.314 0.462684 51.0006 1.44776 51.0006 3.04477Z" fill="#E60012" stroke="#231815" stroke-width="0.1" stroke-linecap="round" stroke-linejoin="round"/>
<path d="M52.3287 10.2986C52.3287 12.1643 48.0451 14.0449 42.7466 14.5076C37.4481 14.9702 33.1646 13.8359 33.1646 11.9702L33.4034 9.82099C33.4034 11.6419 37.5825 12.7464 42.7466 12.2986C47.9108 11.8508 52.0899 10.0001 52.0899 8.1792L52.3287 10.2837V10.2986Z" fill="white" stroke="#231815" stroke-width="0.1" stroke-linecap="round" stroke-linejoin="round"/>
</g>
</g>
<defs>
<clipPath id="clip0_226_1621">
<rect width="100" height="78.6119" fill="white"/>
</clipPath>
</defs>
</svg>
