<svg width="101" height="89" viewBox="0 0 101 89" fill="none" xmlns="http://www.w3.org/2000/svg">
<path d="M86.9653 14.5862H8.62988V63.0154H86.9653V14.5862Z" fill="#EEE7DB" stroke="#231815" stroke-width="0.1" stroke-linecap="round" stroke-linejoin="round"/>
<path d="M87.006 14.5863H8.62988L22.257 1H100.592L87.006 14.5863Z" fill="#006428" stroke="#231815" stroke-width="0.1" stroke-linecap="round" stroke-linejoin="round"/>
<path d="M100.592 49.4292L87.0059 63.0155V14.5863L100.592 1V49.4292Z" fill="#C8C3B9" stroke="#231815" stroke-width="0.1" stroke-linecap="round" stroke-linejoin="round"/>
<path d="M100.592 74.929L87.0056 88.5153V79.9474L85.292 80.029V64.7291L100.592 49.4292V74.929Z" fill="#B5B5B6" stroke="#231815" stroke-width="0.1" stroke-linecap="round" stroke-linejoin="round"/>
<path d="M74.8882 70.645H1V88.4745H74.8882V70.645Z" fill="#E6E6E6" stroke="#231815" stroke-width="0.1" stroke-linecap="round" stroke-linejoin="round"/>
<path d="M79.9478 83.4562L74.8887 88.5153V70.6451L79.9478 65.6267V83.4562Z" fill="#727171" stroke="#231815" stroke-width="0.1" stroke-linecap="round" stroke-linejoin="round"/>
<path d="M44.3297 49.7964H36.7002V63.0155H44.3297V49.7964Z" fill="#9E948F" stroke="#231815" stroke-width="0.1" stroke-linecap="round" stroke-linejoin="round"/>
<path d="M49.4294 24.7861H39.2295V32.4157H49.4294V24.7861Z" fill="#7ECEF4" stroke="#231815" stroke-width="0.1" stroke-linecap="round" stroke-linejoin="round"/>
<path d="M41.7591 52.8157H39.2295V55.3453H41.7591V52.8157Z" fill="#7ECEF4" stroke="#231815" stroke-width="0.1" stroke-linecap="round" stroke-linejoin="round"/>
<path d="M51.9586 49.7964H44.3291V63.0155H51.9586V49.7964Z" fill="#9E948F" stroke="#231815" stroke-width="0.1" stroke-linecap="round" stroke-linejoin="round"/>
<path d="M49.4288 52.8157H46.8584V55.3453H49.4288V52.8157Z" fill="#7ECEF4" stroke="#231815" stroke-width="0.1" stroke-linecap="round" stroke-linejoin="round"/>
<path d="M72.3585 73.2563H57.0586V88.5154H72.3585V73.2563Z" fill="#9FA0A0" stroke="#231815" stroke-width="0.1" stroke-linecap="round" stroke-linejoin="round"/>
<path d="M57.0586 75.7859H72.4401" stroke="#231815" stroke-width="0.1" stroke-linecap="round" stroke-linejoin="round"/>
<path d="M57.0586 78.3154H72.4401" stroke="#231815" stroke-width="0.1" stroke-linecap="round" stroke-linejoin="round"/>
<path d="M57.0586 80.845H72.4401" stroke="#231815" stroke-width="0.1" stroke-linecap="round" stroke-linejoin="round"/>
<path d="M57.0586 83.4155H72.4401" stroke="#231815" stroke-width="0.1" stroke-linecap="round" stroke-linejoin="round"/>
<path d="M57.0586 85.9451H72.4401" stroke="#231815" stroke-width="0.1" stroke-linecap="round" stroke-linejoin="round"/>
<path d="M54.5294 73.2563H39.2295V88.5154H54.5294V73.2563Z" fill="#9FA0A0" stroke="#231815" stroke-width="0.1" stroke-linecap="round" stroke-linejoin="round"/>
<path d="M39.2295 75.7859H54.611" stroke="#231815" stroke-width="0.1" stroke-linecap="round" stroke-linejoin="round"/>
<path d="M39.2295 78.3154H54.611" stroke="#231815" stroke-width="0.1" stroke-linecap="round" stroke-linejoin="round"/>
<path d="M39.2295 80.845H54.611" stroke="#231815" stroke-width="0.1" stroke-linecap="round" stroke-linejoin="round"/>
<path d="M39.2295 83.4155H54.611" stroke="#231815" stroke-width="0.1" stroke-linecap="round" stroke-linejoin="round"/>
<path d="M39.2295 85.9451H54.611" stroke="#231815" stroke-width="0.1" stroke-linecap="round" stroke-linejoin="round"/>
<path d="M36.6993 73.2563H21.3994V88.5154H36.6993V73.2563Z" fill="#9FA0A0" stroke="#231815" stroke-width="0.1" stroke-linecap="round" stroke-linejoin="round"/>
<path d="M21.3994 75.7859H36.7809" stroke="#231815" stroke-width="0.1" stroke-linecap="round" stroke-linejoin="round"/>
<path d="M21.3994 78.3154H36.7809" stroke="#231815" stroke-width="0.1" stroke-linecap="round" stroke-linejoin="round"/>
<path d="M21.3994 80.845H36.7809" stroke="#231815" stroke-width="0.1" stroke-linecap="round" stroke-linejoin="round"/>
<path d="M21.3994 83.4155H36.7809" stroke="#231815" stroke-width="0.1" stroke-linecap="round" stroke-linejoin="round"/>
<path d="M21.3994 85.9451H36.7809" stroke="#231815" stroke-width="0.1" stroke-linecap="round" stroke-linejoin="round"/>
<path d="M18.8292 73.2563H3.5293V88.5154H18.8292V73.2563Z" fill="#9FA0A0" stroke="#231815" stroke-width="0.1" stroke-linecap="round" stroke-linejoin="round"/>
<path d="M3.5293 75.7859H18.9108" stroke="#231815" stroke-width="0.1" stroke-linecap="round" stroke-linejoin="round"/>
<path d="M3.5293 78.3154H18.9108" stroke="#231815" stroke-width="0.1" stroke-linecap="round" stroke-linejoin="round"/>
<path d="M3.5293 80.845H18.9108" stroke="#231815" stroke-width="0.1" stroke-linecap="round" stroke-linejoin="round"/>
<path d="M3.5293 83.4155H18.9108" stroke="#231815" stroke-width="0.1" stroke-linecap="round" stroke-linejoin="round"/>
<path d="M3.5293 85.9451H18.9108" stroke="#231815" stroke-width="0.1" stroke-linecap="round" stroke-linejoin="round"/>
<path d="M86.9653 14.5862H8.62988V17.1158H86.9653V14.5862Z" fill="#595757" stroke="#231815" stroke-width="0.1" stroke-linecap="round" stroke-linejoin="round"/>
<path d="M100.592 3.57038L87.0059 17.1159V14.5863L100.592 1V3.57038Z" fill="#595757" stroke="#231815" stroke-width="0.1" stroke-linecap="round" stroke-linejoin="round"/>
<path d="M79.9886 75.7858H74.8887L78.3158 72.3586H83.4158L79.9886 75.7858Z" fill="#B5B5B6" stroke="#231815" stroke-width="0.1" stroke-linecap="round" stroke-linejoin="round"/>
<path d="M85.1289 83.4155V80.8451L88.5153 77.4587V80.0291L85.1289 83.4155Z" fill="#727171" stroke="#231815" stroke-width="0.1" stroke-linecap="round" stroke-linejoin="round"/>
<path d="M85.129 80.8451H82.5586L85.9858 77.4587H88.5153L85.129 80.8451Z" fill="#B5B5B6" stroke="#231815" stroke-width="0.1" stroke-linecap="round" stroke-linejoin="round"/>
<path d="M87.6582 85.945V83.4154L91.0446 80.0291V82.5586L87.6582 85.945Z" fill="#727171" stroke="#231815" stroke-width="0.1" stroke-linecap="round" stroke-linejoin="round"/>
<path d="M87.6585 83.4154H85.1289L88.5153 80.0291H91.0449L87.6585 83.4154Z" fill="#B5B5B6" stroke="#231815" stroke-width="0.1" stroke-linecap="round" stroke-linejoin="round"/>
<path d="M90.2285 88.5153V85.945L93.6149 82.5586V85.0882L90.2285 88.5153Z" fill="#727171" stroke="#231815" stroke-width="0.1" stroke-linecap="round" stroke-linejoin="round"/>
<path d="M90.2286 85.945H87.6582L91.0446 82.5586H93.615L90.2286 85.945Z" fill="#B5B5B6" stroke="#231815" stroke-width="0.1" stroke-linecap="round" stroke-linejoin="round"/>
<path d="M82.5586 80.8452V78.3156L85.945 74.9292V77.4588L82.5586 80.8452Z" fill="#727171" stroke="#231815" stroke-width="0.1" stroke-linecap="round" stroke-linejoin="round"/>
<path d="M82.5587 78.3156H79.9883L83.4155 74.9292H85.945L82.5587 78.3156Z" fill="#B5B5B6" stroke="#231815" stroke-width="0.1" stroke-linecap="round" stroke-linejoin="round"/>
<path d="M79.9883 78.3154V75.7858L83.4155 72.3586V74.929L79.9883 78.3154Z" fill="#727171" stroke="#231815" stroke-width="0.1" stroke-linecap="round" stroke-linejoin="round"/>
<path d="M85.0882 64.77H79.9883V68.1156H85.0882V64.77Z" fill="#727171" stroke="#231815" stroke-width="0.1" stroke-linecap="round" stroke-linejoin="round"/>
<path d="M85.1289 64.77H80.8042L74.8882 70.6452H1L8.62954 63.0156H87.0057L85.1289 64.77Z" fill="#B5B5B6" stroke="#231815" stroke-width="0.1" stroke-linecap="round" stroke-linejoin="round"/>
<path d="M83.4154 69.8291H78.3154V72.3995H83.4154V69.8291Z" fill="#727171" stroke="#231815" stroke-width="0.1" stroke-linecap="round" stroke-linejoin="round"/>
<path d="M83.4154 69.8291H78.3154L79.9882 68.1155H85.129L83.4154 69.8291Z" fill="#B5B5B6" stroke="#231815" stroke-width="0.1" stroke-linecap="round" stroke-linejoin="round"/>
<path d="M74.8887 75.7859H79.9886V78.3155H82.559V81.1307H85.1294V83.4154H87.659V85.945H90.2294V88.5154H74.8887V75.7859Z" fill="#E6E6E6" stroke="#231815" stroke-width="0.1" stroke-linecap="round" stroke-linejoin="round"/>
<path d="M85.2918 64.729V74.9289H83.415V64.7698L85.2918 64.729Z" fill="#898989" stroke="#231815" stroke-width="0.1" stroke-linecap="round" stroke-linejoin="round"/>
<path d="M74.9288 27.1526H59.6289V37.5157H74.9288V27.1526Z" fill="#7ECEF4" stroke="#231815" stroke-width="0.1" stroke-linecap="round" stroke-linejoin="round"/>
<path d="M54.5293 39.2292L56.2429 37.5156H76.6019L74.8883 39.2292H54.5293Z" fill="#C9CACA" stroke="#231815" stroke-width="0.1" stroke-linecap="round" stroke-linejoin="round"/>
<path d="M75.2965 39.2292V34.1293C75.2965 34.1293 75.2965 34.3333 75.1741 34.4149L76.8877 32.7013C76.8877 32.7013 76.6021 32.8645 76.4797 32.7829C76.3165 32.7013 76.2349 32.5789 76.2349 32.4157V37.5156C76.2349 37.7196 76.3981 37.8828 76.6021 37.8828C76.8061 37.8828 76.9693 37.7196 76.9693 37.5156V32.4157C76.9693 32.4157 76.8877 32.1301 76.7245 32.0485C76.5613 32.0077 76.3981 32.0485 76.3165 32.1301L74.6029 33.8437C74.6029 33.8437 74.4805 34.0069 74.4805 34.1293V39.2292C74.4805 39.4332 74.6437 39.5964 74.8477 39.5964C75.0925 39.5964 75.2557 39.4332 75.2557 39.2292H75.2965Z" fill="#595757" stroke="#231815" stroke-width="0.1" stroke-linecap="round" stroke-linejoin="round"/>
<path d="M54.8963 39.2292V34.1293C54.8963 34.1293 54.8555 34.3333 54.7739 34.4149L56.4875 32.7013C56.4875 32.7013 56.2019 32.8645 56.0795 32.7829C55.9163 32.7013 55.8347 32.5789 55.8347 32.4157V37.5156C55.8347 37.7196 55.9979 37.8828 56.2427 37.8828C56.4467 37.8828 56.6099 37.7196 56.6099 37.5156V32.4157C56.6099 32.4157 56.5283 32.1301 56.4059 32.0485C56.2427 32.0077 56.0795 32.0485 55.9571 32.1301L54.2435 33.8437C54.2435 33.8437 54.1211 34.0069 54.1211 34.1293V39.2292C54.1211 39.4332 54.2843 39.5964 54.4883 39.5964C54.6923 39.5964 54.8555 39.4332 54.8555 39.2292H54.8963Z" fill="#595757" stroke="#231815" stroke-width="0.1" stroke-linecap="round" stroke-linejoin="round"/>
<path d="M74.8883 33.762H54.5293C54.3253 33.762 54.1621 33.9252 54.1621 34.1292C54.1621 34.3332 54.3253 34.4964 54.5293 34.4964H74.8883C75.1331 34.4964 75.2963 34.3332 75.2963 34.1292C75.2963 33.9252 75.1331 33.762 74.8883 33.762Z" fill="#595757" stroke="#231815" stroke-width="0.1" stroke-linecap="round" stroke-linejoin="round"/>
<path d="M59.2207 34.1292V39.2291C59.2207 39.4331 59.3839 39.5963 59.5879 39.5963C59.7919 39.5963 59.9959 39.4331 59.9959 39.2291V34.1292C59.9959 33.9252 59.8327 33.762 59.5879 33.762C59.3839 33.762 59.2207 33.9252 59.2207 34.1292Z" fill="#595757" stroke="#231815" stroke-width="0.1" stroke-linecap="round" stroke-linejoin="round"/>
<path d="M56.6914 34.1292V39.2291C56.6914 39.4331 56.8546 39.5963 57.0586 39.5963C57.2626 39.5963 57.4258 39.4331 57.4258 39.2291V34.1292C57.4258 33.9252 57.2626 33.762 57.0586 33.762C56.8546 33.762 56.6914 33.9252 56.6914 34.1292Z" fill="#595757" stroke="#231815" stroke-width="0.1" stroke-linecap="round" stroke-linejoin="round"/>
<path d="M61.791 34.1292V39.2291C61.791 39.4331 61.9542 39.5963 62.1582 39.5963C62.3622 39.5963 62.5662 39.4331 62.5662 39.2291V34.1292C62.5662 33.9252 62.403 33.762 62.1582 33.762C61.9134 33.762 61.791 33.9252 61.791 34.1292Z" fill="#595757" stroke="#231815" stroke-width="0.1" stroke-linecap="round" stroke-linejoin="round"/>
<path d="M64.3213 34.1292V39.2291C64.3213 39.4331 64.4845 39.5963 64.6885 39.5963C64.8925 39.5963 65.0557 39.4331 65.0557 39.2291V34.1292C65.0557 33.9252 64.8925 33.762 64.6885 33.762C64.4845 33.762 64.3213 33.9252 64.3213 34.1292Z" fill="#595757" stroke="#231815" stroke-width="0.1" stroke-linecap="round" stroke-linejoin="round"/>
<path d="M66.8916 34.1292V39.2291C66.8916 39.4331 67.0548 39.5963 67.2588 39.5963C67.4628 39.5963 67.626 39.4331 67.626 39.2291V34.1292C67.626 33.9252 67.4628 33.762 67.2588 33.762C67.0548 33.762 66.8916 33.9252 66.8916 34.1292Z" fill="#595757" stroke="#231815" stroke-width="0.1" stroke-linecap="round" stroke-linejoin="round"/>
<path d="M69.4209 34.1292V39.2291C69.4209 39.4331 69.5841 39.5963 69.7881 39.5963C69.9921 39.5963 70.1961 39.4331 70.1961 39.2291V34.1292C70.1961 33.9252 70.0329 33.762 69.7881 33.762C69.5433 33.762 69.4209 33.9252 69.4209 34.1292Z" fill="#595757" stroke="#231815" stroke-width="0.1" stroke-linecap="round" stroke-linejoin="round"/>
<path d="M71.9912 34.1292V39.2291C71.9912 39.4331 72.1544 39.5963 72.3584 39.5963C72.5624 39.5963 72.7256 39.4331 72.7256 39.2291V34.1292C72.7256 33.9252 72.5624 33.762 72.3584 33.762C72.1544 33.762 71.9912 33.9252 71.9912 34.1292Z" fill="#595757" stroke="#231815" stroke-width="0.1" stroke-linecap="round" stroke-linejoin="round"/>
<path d="M74.9288 47.7156H59.6289V58.0787H74.9288V47.7156Z" fill="#7ECEF4" stroke="#231815" stroke-width="0.1" stroke-linecap="round" stroke-linejoin="round"/>
<path d="M54.5293 59.7922L56.2429 58.0786H76.6019L74.8883 59.7922H54.5293Z" fill="#C9CACA" stroke="#231815" stroke-width="0.1" stroke-linecap="round" stroke-linejoin="round"/>
<path d="M75.2965 59.7922V54.6922C75.2965 54.6922 75.2965 54.8962 75.1741 54.9778L76.8877 53.2643C76.8877 53.2643 76.6021 53.3867 76.4797 53.3459C76.3165 53.3051 76.2349 53.1419 76.2349 52.9787V58.0786C76.2349 58.2826 76.3981 58.4458 76.6021 58.4458C76.8061 58.4458 76.9693 58.2826 76.9693 58.0786V52.9787C76.9693 52.9787 76.8877 52.6931 76.7245 52.6115C76.5613 52.5707 76.3981 52.6115 76.3165 52.6931L74.6029 54.4067C74.6029 54.4067 74.4805 54.5698 74.4805 54.6922V59.7922C74.4805 59.9962 74.6437 60.1594 74.8477 60.1594C75.0925 60.1594 75.2557 59.9962 75.2557 59.7922H75.2965Z" fill="#595757" stroke="#231815" stroke-width="0.1" stroke-linecap="round" stroke-linejoin="round"/>
<path d="M54.8963 59.7922V54.6922C54.8963 54.6922 54.8555 54.8962 54.7739 54.9778L56.4875 53.2643C56.4875 53.2643 56.2019 53.3867 56.0795 53.3459C55.9163 53.3051 55.8347 53.1419 55.8347 52.9787V58.0786C55.8347 58.2826 55.9979 58.4458 56.2427 58.4458C56.4467 58.4458 56.6099 58.2826 56.6099 58.0786V52.9787C56.6099 52.9787 56.5283 52.6931 56.4059 52.6115C56.2427 52.5707 56.0795 52.6115 55.9571 52.6931L54.2435 54.4067C54.2435 54.4067 54.1211 54.5698 54.1211 54.6922V59.7922C54.1211 59.9962 54.2843 60.1594 54.4883 60.1594C54.6923 60.1594 54.8555 59.9962 54.8555 59.7922H54.8963Z" fill="#595757" stroke="#231815" stroke-width="0.1" stroke-linecap="round" stroke-linejoin="round"/>
<path d="M74.8883 54.6921H54.5293" stroke="#231815" stroke-width="0.1" stroke-linecap="round" stroke-linejoin="round"/>
<path d="M59.6289 54.6921V59.7921" stroke="#231815" stroke-width="0.1" stroke-linecap="round" stroke-linejoin="round"/>
<path d="M57.0586 54.6921V59.7921" stroke="#231815" stroke-width="0.1" stroke-linecap="round" stroke-linejoin="round"/>
<path d="M62.1582 54.6921V59.7921" stroke="#231815" stroke-width="0.1" stroke-linecap="round" stroke-linejoin="round"/>
<path d="M64.7295 54.6921V59.7921" stroke="#231815" stroke-width="0.1" stroke-linecap="round" stroke-linejoin="round"/>
<path d="M67.2588 54.6921V59.7921" stroke="#231815" stroke-width="0.1" stroke-linecap="round" stroke-linejoin="round"/>
<path d="M69.8291 54.6921V59.7921" stroke="#231815" stroke-width="0.1" stroke-linecap="round" stroke-linejoin="round"/>
<path d="M72.3584 54.6921V59.7921" stroke="#231815" stroke-width="0.1" stroke-linecap="round" stroke-linejoin="round"/>
<path d="M31.5997 47.7156H16.2998V58.0787H31.5997V47.7156Z" fill="#7ECEF4" stroke="#231815" stroke-width="0.1" stroke-linecap="round" stroke-linejoin="round"/>
<path d="M11.1992 59.7922L12.872 58.0786H33.2718L31.5991 59.7922H11.1992Z" fill="#C9CACA" stroke="#231815" stroke-width="0.1" stroke-linecap="round" stroke-linejoin="round"/>
<path d="M31.9664 59.7922V54.6922C31.9664 54.6922 31.9256 54.8962 31.844 54.9778L33.5576 53.2643C33.5576 53.2643 33.272 53.3867 33.1496 53.3459C32.9864 53.3051 32.9048 53.1419 32.9048 52.9787V58.0786C32.9048 58.2826 33.068 58.4458 33.272 58.4458C33.476 58.4458 33.6392 58.2826 33.6392 58.0786V52.9787C33.6392 52.9787 33.5576 52.6931 33.3944 52.6115C33.2312 52.5707 33.068 52.6115 32.9864 52.6931L31.2728 54.4067C31.2728 54.4067 31.1504 54.5698 31.1504 54.6922V59.7922C31.1504 59.9962 31.3136 60.1594 31.5176 60.1594C31.7216 60.1594 31.8848 59.9962 31.8848 59.7922H31.9664Z" fill="#595757" stroke="#231815" stroke-width="0.1" stroke-linecap="round" stroke-linejoin="round"/>
<path d="M11.5668 59.7922V54.6922C11.5668 54.6922 11.526 54.8962 11.4444 54.9778L13.1171 53.2643C13.1171 53.2643 12.8315 53.3867 12.7091 53.3459C12.5459 53.3051 12.4643 53.1419 12.4643 52.9787V58.0786C12.4643 58.2826 12.6275 58.4458 12.8315 58.4458C13.0355 58.4458 13.1987 58.2826 13.1987 58.0786V52.9787C13.1987 52.9787 13.1171 52.6931 12.9539 52.6115C12.8315 52.5707 12.6275 52.6115 12.5459 52.6931L10.8324 54.4067C10.8324 54.4067 10.71 54.5698 10.71 54.6922V59.7922C10.71 59.9962 10.8732 60.1594 11.0772 60.1594C11.2812 60.1594 11.4444 59.9962 11.4444 59.7922H11.5668Z" fill="#595757" stroke="#231815" stroke-width="0.1" stroke-linecap="round" stroke-linejoin="round"/>
<path d="M31.5991 54.2842H11.1992C10.9952 54.2842 10.832 54.4474 10.832 54.6922C10.832 54.8962 10.9952 55.0594 11.1992 55.0594H31.5991C31.5991 55.0594 31.9663 54.8962 31.9663 54.6922C31.9663 54.4882 31.8031 54.2842 31.5991 54.2842Z" fill="#595757" stroke="#231815" stroke-width="0.1" stroke-linecap="round" stroke-linejoin="round"/>
<path d="M15.8916 54.6922V59.7921C15.8916 59.9961 16.0548 60.1593 16.2588 60.1593C16.4628 60.1593 16.6668 59.9961 16.6668 59.7921V54.6922C16.6668 54.4882 16.5036 54.2842 16.2588 54.2842C16.014 54.2842 15.8916 54.4474 15.8916 54.6922Z" fill="#595757" stroke="#231815" stroke-width="0.1" stroke-linecap="round" stroke-linejoin="round"/>
<path d="M13.3623 54.6922V59.7921C13.3623 59.9961 13.5255 60.1593 13.7703 60.1593C14.0151 60.1593 14.1375 59.9961 14.1375 59.7921V54.6922C14.1375 54.4882 13.9743 54.2842 13.7703 54.2842C13.5663 54.2842 13.3623 54.4474 13.3623 54.6922Z" fill="#595757" stroke="#231815" stroke-width="0.1" stroke-linecap="round" stroke-linejoin="round"/>
<path d="M18.4619 54.6922V59.7921C18.4619 59.9961 18.6251 60.1593 18.8699 60.1593C19.0739 60.1593 19.2371 59.9961 19.2371 59.7921V54.6922C19.2371 54.4882 19.0739 54.2842 18.8699 54.2842C18.6659 54.2842 18.4619 54.4474 18.4619 54.6922Z" fill="#595757" stroke="#231815" stroke-width="0.1" stroke-linecap="round" stroke-linejoin="round"/>
<path d="M20.9912 54.6922V59.7921C20.9912 59.9961 21.1544 60.1593 21.3584 60.1593C21.6032 60.1593 21.7256 59.9961 21.7256 59.7921V54.6922C21.7256 54.4882 21.5624 54.2842 21.3584 54.2842C21.1544 54.2842 20.9912 54.4474 20.9912 54.6922Z" fill="#595757" stroke="#231815" stroke-width="0.1" stroke-linecap="round" stroke-linejoin="round"/>
<path d="M23.5615 54.6922V59.7921C23.5615 59.9961 23.7247 60.1593 23.9695 60.1593C24.1735 60.1593 24.3775 59.9961 24.3775 59.7921V54.6922C24.3775 54.4882 24.2143 54.2842 23.9695 54.2842C23.7655 54.2842 23.5615 54.4474 23.5615 54.6922Z" fill="#595757" stroke="#231815" stroke-width="0.1" stroke-linecap="round" stroke-linejoin="round"/>
<path d="M26.0918 54.6922V59.7921C26.0918 59.9961 26.255 60.1593 26.459 60.1593C26.663 60.1593 26.8262 59.9961 26.8262 59.7921V54.6922C26.8262 54.4882 26.663 54.2842 26.459 54.2842C26.255 54.2842 26.0918 54.4474 26.0918 54.6922Z" fill="#595757" stroke="#231815" stroke-width="0.1" stroke-linecap="round" stroke-linejoin="round"/>
<path d="M28.6621 54.6922V59.7921C28.6621 59.9961 28.8253 60.1593 29.0293 60.1593C29.2333 60.1593 29.3965 59.9961 29.3965 59.7921V54.6922C29.3965 54.4882 29.2333 54.2842 29.0293 54.2842C28.8253 54.2842 28.6621 54.4474 28.6621 54.6922Z" fill="#595757" stroke="#231815" stroke-width="0.1" stroke-linecap="round" stroke-linejoin="round"/>
<path d="M31.5997 27.3157H16.2998V37.6788H31.5997V27.3157Z" fill="#7ECEF4" stroke="#231815" stroke-width="0.1" stroke-linecap="round" stroke-linejoin="round"/>
<path d="M11.1992 39.3923L12.872 37.6787H33.2718L31.5991 39.3923H11.1992Z" fill="#C9CACA" stroke="#231815" stroke-width="0.1" stroke-linecap="round" stroke-linejoin="round"/>
<path d="M31.9664 39.3923V34.2923C31.9664 34.2923 31.9256 34.4963 31.844 34.5779L33.5576 32.8644C33.5576 32.8644 33.272 32.9868 33.1496 32.946C32.9864 32.9052 32.9048 32.742 32.9048 32.5788V37.6787C32.9048 37.8827 33.068 38.0867 33.272 38.0867C33.476 38.0867 33.6392 37.9235 33.6392 37.6787V32.5788C33.6392 32.5788 33.5576 32.2932 33.3944 32.2116C33.2312 32.1708 33.068 32.2116 32.9864 32.2932L31.2728 33.9659C31.2728 33.9659 31.1504 34.1291 31.1504 34.2515V39.3515C31.1504 39.5555 31.3136 39.7187 31.5176 39.7187C31.7216 39.7187 31.8848 39.5555 31.8848 39.3515L31.9664 39.3923Z" fill="#595757" stroke="#231815" stroke-width="0.1" stroke-linecap="round" stroke-linejoin="round"/>
<path d="M11.5668 39.3923V34.2923C11.5668 34.2923 11.526 34.4963 11.4444 34.5779L13.1171 32.8644C13.1171 32.8644 12.8315 32.9868 12.7091 32.946C12.5459 32.9052 12.4643 32.742 12.4643 32.5788V37.6787C12.4643 37.8827 12.6275 38.0867 12.8315 38.0867C13.0355 38.0867 13.1987 37.9235 13.1987 37.6787V32.5788C13.1987 32.5788 13.1171 32.2932 12.9539 32.2116C12.8315 32.1708 12.6275 32.2116 12.5459 32.2932L10.8324 33.9659C10.8324 33.9659 10.71 34.1291 10.71 34.2515V39.3515C10.71 39.5555 10.8732 39.7187 11.0772 39.7187C11.2812 39.7187 11.4444 39.5555 11.4444 39.3515L11.5668 39.3923Z" fill="#595757" stroke="#231815" stroke-width="0.1" stroke-linecap="round" stroke-linejoin="round"/>
<path d="M31.5991 33.925H11.1992C10.9952 33.925 10.832 34.0882 10.832 34.333C10.832 34.537 10.9952 34.7002 11.1992 34.7002H31.5991C31.5991 34.7002 31.9663 34.537 31.9663 34.333C31.9663 34.0882 31.8031 33.925 31.5991 33.925Z" fill="#595757" stroke="#231815" stroke-width="0.1" stroke-linecap="round" stroke-linejoin="round"/>
<path d="M15.8916 34.2923V39.3922C15.8916 39.5962 16.0548 39.7594 16.2588 39.7594C16.4628 39.7594 16.6668 39.5962 16.6668 39.3922V34.2923C16.6668 34.0475 16.5036 33.8843 16.2588 33.8843C16.014 33.8843 15.8916 34.0475 15.8916 34.2923Z" fill="#595757" stroke="#231815" stroke-width="0.1" stroke-linecap="round" stroke-linejoin="round"/>
<path d="M13.3623 34.2923V39.3922C13.3623 39.5962 13.5255 39.7594 13.7703 39.7594C14.0151 39.7594 14.1375 39.5962 14.1375 39.3922V34.2923C14.1375 34.0475 13.9743 33.8843 13.7703 33.8843C13.5663 33.8843 13.3623 34.0475 13.3623 34.2923Z" fill="#595757" stroke="#231815" stroke-width="0.1" stroke-linecap="round" stroke-linejoin="round"/>
<path d="M18.4619 34.2923V39.3922C18.4619 39.5962 18.6251 39.7594 18.8699 39.7594C19.0739 39.7594 19.2371 39.5962 19.2371 39.3922V34.2923C19.2371 34.0475 19.0739 33.8843 18.8699 33.8843C18.6659 33.8843 18.4619 34.0475 18.4619 34.2923Z" fill="#595757" stroke="#231815" stroke-width="0.1" stroke-linecap="round" stroke-linejoin="round"/>
<path d="M20.9912 34.2923V39.3922C20.9912 39.5962 21.1544 39.7594 21.3584 39.7594C21.6032 39.7594 21.7256 39.5962 21.7256 39.3922V34.2923C21.7256 34.0475 21.5624 33.8843 21.3584 33.8843C21.1544 33.8843 20.9912 34.0475 20.9912 34.2923Z" fill="#595757" stroke="#231815" stroke-width="0.1" stroke-linecap="round" stroke-linejoin="round"/>
<path d="M23.5615 34.2923V39.3922C23.5615 39.5962 23.7247 39.7594 23.9695 39.7594C24.1735 39.7594 24.3775 39.5962 24.3775 39.3922V34.2923C24.3775 34.0475 24.2143 33.8843 23.9695 33.8843C23.7655 33.8843 23.5615 34.0475 23.5615 34.2923Z" fill="#595757" stroke="#231815" stroke-width="0.1" stroke-linecap="round" stroke-linejoin="round"/>
<path d="M26.0918 34.2923V39.3922C26.0918 39.5962 26.255 39.7594 26.459 39.7594C26.663 39.7594 26.8262 39.5962 26.8262 39.3922V34.2923C26.8262 34.0475 26.663 33.8843 26.459 33.8843C26.255 33.8843 26.0918 34.0475 26.0918 34.2923Z" fill="#595757" stroke="#231815" stroke-width="0.1" stroke-linecap="round" stroke-linejoin="round"/>
<path d="M28.6621 34.2923V39.3922C28.6621 39.5962 28.8253 39.7594 29.0293 39.7594C29.2333 39.7594 29.3965 39.5962 29.3965 39.3922V34.2923C29.3965 34.0475 29.2333 33.8843 29.0293 33.8843C28.8253 33.8843 28.6621 34.0475 28.6621 34.2923Z" fill="#595757" stroke="#231815" stroke-width="0.1" stroke-linecap="round" stroke-linejoin="round"/>
<path d="M85.292 64.566V59.466L87.0056 57.7524" stroke="#231815" stroke-width="0.1" stroke-linecap="round" stroke-linejoin="round"/>
<path d="M74.8882 65.5859H1" stroke="#231815" stroke-width="0.1" stroke-linecap="round" stroke-linejoin="round"/>
<path d="M6.09961 65.5859V70.6451" stroke="#231815" stroke-width="0.1" stroke-linecap="round" stroke-linejoin="round"/>
<path d="M3.5293 65.5859V70.6451" stroke="#231815" stroke-width="0.1" stroke-linecap="round" stroke-linejoin="round"/>
<path d="M8.62988 65.5859V70.6451" stroke="#231815" stroke-width="0.1" stroke-linecap="round" stroke-linejoin="round"/>
<path d="M11.2002 65.5859V70.6451" stroke="#231815" stroke-width="0.1" stroke-linecap="round" stroke-linejoin="round"/>
<path d="M13.7295 65.5859V70.6451" stroke="#231815" stroke-width="0.1" stroke-linecap="round" stroke-linejoin="round"/>
<path d="M16.2998 65.5859V70.6451" stroke="#231815" stroke-width="0.1" stroke-linecap="round" stroke-linejoin="round"/>
<path d="M18.8291 65.5859V70.6451" stroke="#231815" stroke-width="0.1" stroke-linecap="round" stroke-linejoin="round"/>
<path d="M21.3994 65.5859V70.6451" stroke="#231815" stroke-width="0.1" stroke-linecap="round" stroke-linejoin="round"/>
<path d="M23.9297 65.5859V70.6451" stroke="#231815" stroke-width="0.1" stroke-linecap="round" stroke-linejoin="round"/>
<path d="M26.5 65.5859V70.6451" stroke="#231815" stroke-width="0.1" stroke-linecap="round" stroke-linejoin="round"/>
<path d="M29.0293 65.5859V70.6451" stroke="#231815" stroke-width="0.1" stroke-linecap="round" stroke-linejoin="round"/>
<path d="M31.5996 65.5859V70.6451" stroke="#231815" stroke-width="0.1" stroke-linecap="round" stroke-linejoin="round"/>
<path d="M34.1289 65.5859V70.6451" stroke="#231815" stroke-width="0.1" stroke-linecap="round" stroke-linejoin="round"/>
<path d="M36.7002 65.5859V70.6451" stroke="#231815" stroke-width="0.1" stroke-linecap="round" stroke-linejoin="round"/>
<path d="M39.2295 65.5859V70.6451" stroke="#231815" stroke-width="0.1" stroke-linecap="round" stroke-linejoin="round"/>
<path d="M41.7998 65.5859V70.6451" stroke="#231815" stroke-width="0.1" stroke-linecap="round" stroke-linejoin="round"/>
<path d="M44.3291 65.5859V70.6451" stroke="#231815" stroke-width="0.1" stroke-linecap="round" stroke-linejoin="round"/>
<path d="M46.8584 65.5859V70.6451" stroke="#231815" stroke-width="0.1" stroke-linecap="round" stroke-linejoin="round"/>
<path d="M49.4297 65.5859V70.6451" stroke="#231815" stroke-width="0.1" stroke-linecap="round" stroke-linejoin="round"/>
<path d="M51.959 65.5859V70.6451" stroke="#231815" stroke-width="0.1" stroke-linecap="round" stroke-linejoin="round"/>
<path d="M54.5293 65.5859V70.6451" stroke="#231815" stroke-width="0.1" stroke-linecap="round" stroke-linejoin="round"/>
<path d="M57.0586 65.5859V70.6451" stroke="#231815" stroke-width="0.1" stroke-linecap="round" stroke-linejoin="round"/>
<path d="M59.6289 65.5859V70.6451" stroke="#231815" stroke-width="0.1" stroke-linecap="round" stroke-linejoin="round"/>
<path d="M62.1592 65.5859V70.6451" stroke="#231815" stroke-width="0.1" stroke-linecap="round" stroke-linejoin="round"/>
<path d="M64.7295 65.5859V70.6451" stroke="#231815" stroke-width="0.1" stroke-linecap="round" stroke-linejoin="round"/>
<path d="M67.2588 65.5859V70.6451" stroke="#231815" stroke-width="0.1" stroke-linecap="round" stroke-linejoin="round"/>
<path d="M69.8291 65.5859V70.6451" stroke="#231815" stroke-width="0.1" stroke-linecap="round" stroke-linejoin="round"/>
<path d="M72.3584 65.5859V70.6451" stroke="#231815" stroke-width="0.1" stroke-linecap="round" stroke-linejoin="round"/>
<path d="M74.8887 70.6452V65.586L79.9478 60.5269V65.6268" stroke="#231815" stroke-width="0.1" stroke-linecap="round" stroke-linejoin="round"/>
<path d="M78.3154 62.1589V67.2589" stroke="#231815" stroke-width="0.1" stroke-linecap="round" stroke-linejoin="round"/>
<path d="M76.6025 68.9723V63.8723" stroke="#231815" stroke-width="0.1" stroke-linecap="round" stroke-linejoin="round"/>
<path d="M1 70.6451V65.5859L8.62954 57.7932" stroke="#231815" stroke-width="0.1" stroke-linecap="round" stroke-linejoin="round"/>
<path d="M6.09961 60.4861V65.586" stroke="#231815" stroke-width="0.1" stroke-linecap="round" stroke-linejoin="round"/>
<path d="M4.38672 62.1587V67.2587" stroke="#231815" stroke-width="0.1" stroke-linecap="round" stroke-linejoin="round"/>
<path d="M2.71387 63.8723V68.9723" stroke="#231815" stroke-width="0.1" stroke-linecap="round" stroke-linejoin="round"/>
<path d="M90.229 85.9451V82.6403L79.9883 72.4404V75.786" stroke="#231815" stroke-width="0.1" stroke-linecap="round" stroke-linejoin="round"/>
<path d="M79.9886 72.4404H74.8887" stroke="#231815" stroke-width="0.1" stroke-linecap="round" stroke-linejoin="round"/>
<path d="M51.9593 40.086C51.9593 41.4732 48.5321 42.6156 44.3297 42.6156C40.1274 42.6156 36.7002 41.4732 36.7002 40.086C36.7002 38.6988 40.1274 37.5564 44.3297 37.5564C48.5321 37.5564 51.9593 38.6988 51.9593 40.086Z" fill="#584136" stroke="#231815" stroke-width="0.1" stroke-linecap="round" stroke-linejoin="round"/>
</svg>
