<svg width="102" height="80" viewBox="0 0 102 80" fill="none" xmlns="http://www.w3.org/2000/svg">
<path d="M95.3018 55.9959L71.7676 79.6128V41.5451L95.3018 17.9282V55.9959Z" fill="#DCDDDD" stroke="#231815" stroke-width="0.1" stroke-linecap="round" stroke-linejoin="round"/>
<path d="M71.7681 41.5449H6.4502V79.6126H71.7681V41.5449Z" fill="white" stroke="#231815" stroke-width="0.1" stroke-linecap="round" stroke-linejoin="round"/>
<path d="M66.3172 25.1949H11.8994L35.6814 1H90.0992L66.3172 25.1949Z" fill="#5F906D" stroke="#231815" stroke-width="0.1" stroke-linecap="round" stroke-linejoin="round"/>
<path d="M101 17.763L77.2184 41.9579L66.3184 25.1949L90.1004 1L101 17.763Z" fill="#375A42" stroke="#231815" stroke-width="0.1" stroke-linecap="round" stroke-linejoin="round"/>
<path d="M77.218 41.9581L66.3179 25.1951H11.9001L1 41.9581H77.218Z" fill="#527F5F" stroke="#231815" stroke-width="0.1" stroke-linecap="round" stroke-linejoin="round"/>
<path d="M39.0679 52.4451H22.7178V79.6127H39.0679V52.4451Z" fill="#7ECEF4" stroke="#231815" stroke-width="0.1" stroke-linecap="round" stroke-linejoin="round"/>
<path d="M55.4175 52.4451H39.0674V79.6127H55.4175V52.4451Z" fill="#7ECEF4" stroke="#231815" stroke-width="0.1" stroke-linecap="round" stroke-linejoin="round"/>
<path d="M58.2259 20.5708H20.1582V36.9209H58.2259V20.5708Z" fill="white" stroke="#231815" stroke-width="0.1" stroke-linecap="round" stroke-linejoin="round"/>
</svg>
