<svg width="102" height="90" viewBox="0 0 102 90" fill="none" xmlns="http://www.w3.org/2000/svg">
<path d="M4.23579 12.3676L13.9432 12.4942V85.1728H1L4.23579 12.3676Z" fill="#C9C8BD" stroke="#231815" stroke-width="0.1" stroke-linecap="round" stroke-linejoin="round"/>
<path d="M13.9434 12.4942L22.5674 3.87012V76.5347L13.9434 85.1729V12.4942Z" fill="#727069" stroke="#231815" stroke-width="0.1" stroke-linecap="round" stroke-linejoin="round"/>
<path d="M4.23535 12.3675L12.8594 3.72937L22.5668 3.87006L13.9427 12.4941L4.23535 12.3675Z" fill="#EFEEDF" stroke="#231815" stroke-width="0.1" stroke-linecap="round" stroke-linejoin="round"/>
<path d="M39.8292 77.224H17.1787V85.3135H39.8292V77.224Z" fill="#9B7B6C" stroke="#231815" stroke-width="0.1" stroke-linecap="round" stroke-linejoin="round"/>
<path d="M39.8291 85.3134L48.4673 76.6753V68.5858L39.8291 77.224V85.3134Z" fill="#6F5549" stroke="#231815" stroke-width="0.1" stroke-linecap="round" stroke-linejoin="round"/>
<path d="M39.8292 77.224L48.4674 68.5858H25.8169L17.1787 77.224H39.8292Z" fill="#584136" stroke="#231815" stroke-width="0.1" stroke-linecap="round" stroke-linejoin="round"/>
<path d="M46.8485 55.6427H25.2812V58.8785H46.8485V55.6427Z" fill="#485150" stroke="#231815" stroke-width="0.1" stroke-linecap="round" stroke-linejoin="round"/>
<path d="M46.8485 55.6427H25.2812L26.3505 54.5594H47.9318L46.8485 55.6427Z" fill="#717E7E" stroke="#231815" stroke-width="0.1" stroke-linecap="round" stroke-linejoin="round"/>
<path d="M26.8996 58.8785L19.3447 66.4334V63.1976L26.8996 55.6427V58.8785Z" fill="#717E7E" stroke="#231815" stroke-width="0.1" stroke-linecap="round" stroke-linejoin="round"/>
<path d="M26.8993 55.6427L19.3445 63.1976H17.7266L25.2814 55.6427H26.8993Z" fill="#485150" stroke="#231815" stroke-width="0.1" stroke-linecap="round" stroke-linejoin="round"/>
<path d="M46.8485 49.1711H25.2812V52.4069H46.8485V49.1711Z" fill="#485150" stroke="#231815" stroke-width="0.1" stroke-linecap="round" stroke-linejoin="round"/>
<path d="M46.8485 49.1711H25.2812L26.3505 48.1019H47.9318L46.8485 49.1711Z" fill="#717E7E" stroke="#231815" stroke-width="0.1" stroke-linecap="round" stroke-linejoin="round"/>
<path d="M26.8996 52.4069L19.3447 59.9618V56.726L26.8996 49.1711V52.4069Z" fill="#717E7E" stroke="#231815" stroke-width="0.1" stroke-linecap="round" stroke-linejoin="round"/>
<path d="M26.8993 49.1711L19.3445 56.726H17.7266L25.2814 49.1711H26.8993Z" fill="#485150" stroke="#231815" stroke-width="0.1" stroke-linecap="round" stroke-linejoin="round"/>
<path d="M46.8485 42.6996H25.2812V45.9354H46.8485V42.6996Z" fill="#485150" stroke="#231815" stroke-width="0.1" stroke-linecap="round" stroke-linejoin="round"/>
<path d="M46.8485 42.6996H25.2812L26.3505 41.6163H47.9318L46.8485 42.6996Z" fill="#717E7E" stroke="#231815" stroke-width="0.1" stroke-linecap="round" stroke-linejoin="round"/>
<path d="M26.8996 45.9354L19.3447 53.4902V50.2545L26.8996 42.6996V45.9354Z" fill="#717E7E" stroke="#231815" stroke-width="0.1" stroke-linecap="round" stroke-linejoin="round"/>
<path d="M26.8993 42.6996L19.3445 50.2545H17.7266L25.2814 42.6996H26.8993Z" fill="#485150" stroke="#231815" stroke-width="0.1" stroke-linecap="round" stroke-linejoin="round"/>
<path d="M46.8485 36.2279H25.2812V39.4637H46.8485V36.2279Z" fill="#485150" stroke="#231815" stroke-width="0.1" stroke-linecap="round" stroke-linejoin="round"/>
<path d="M46.8485 36.2279H25.2812L26.3505 35.1587H47.9318L46.8485 36.2279Z" fill="#717E7E" stroke="#231815" stroke-width="0.1" stroke-linecap="round" stroke-linejoin="round"/>
<path d="M26.8996 39.4637L19.3447 47.0186V43.7828L26.8996 36.2279V39.4637Z" fill="#717E7E" stroke="#231815" stroke-width="0.1" stroke-linecap="round" stroke-linejoin="round"/>
<path d="M26.8993 36.2279L19.3445 43.7828H17.7266L25.2814 36.2279H26.8993Z" fill="#485150" stroke="#231815" stroke-width="0.1" stroke-linecap="round" stroke-linejoin="round"/>
<path d="M46.8485 29.7563H25.2812V32.9921H46.8485V29.7563Z" fill="#485150" stroke="#231815" stroke-width="0.1" stroke-linecap="round" stroke-linejoin="round"/>
<path d="M46.8485 29.7564H25.2812L26.3505 28.6731H47.9318L46.8485 29.7564Z" fill="#717E7E" stroke="#231815" stroke-width="0.1" stroke-linecap="round" stroke-linejoin="round"/>
<path d="M26.8996 32.9921L19.3447 40.547V37.3112L26.8996 29.7563V32.9921Z" fill="#717E7E" stroke="#231815" stroke-width="0.1" stroke-linecap="round" stroke-linejoin="round"/>
<path d="M26.8993 29.7563L19.3445 37.3112H17.7266L25.2814 29.7563H26.8993Z" fill="#485150" stroke="#231815" stroke-width="0.1" stroke-linecap="round" stroke-linejoin="round"/>
<path d="M46.8485 23.2848H25.2812V26.5206H46.8485V23.2848Z" fill="#485150" stroke="#231815" stroke-width="0.1" stroke-linecap="round" stroke-linejoin="round"/>
<path d="M46.8485 23.2848H25.2812L26.3505 22.2156H47.9318L46.8485 23.2848Z" fill="#717E7E" stroke="#231815" stroke-width="0.1" stroke-linecap="round" stroke-linejoin="round"/>
<path d="M26.8996 26.5206L19.3447 34.0754V30.8397L26.8996 23.2848V26.5206Z" fill="#717E7E" stroke="#231815" stroke-width="0.1" stroke-linecap="round" stroke-linejoin="round"/>
<path d="M26.8993 23.2848L19.3445 30.8397H17.7266L25.2814 23.2848H26.8993Z" fill="#485150" stroke="#231815" stroke-width="0.1" stroke-linecap="round" stroke-linejoin="round"/>
<path d="M46.8485 16.8132H25.2812V20.049H46.8485V16.8132Z" fill="#485150" stroke="#231815" stroke-width="0.1" stroke-linecap="round" stroke-linejoin="round"/>
<path d="M46.8485 16.8132H25.2812L26.3505 15.744H47.9318L46.8485 16.8132Z" fill="#717E7E" stroke="#231815" stroke-width="0.1" stroke-linecap="round" stroke-linejoin="round"/>
<path d="M26.8996 20.049L19.3447 27.6039V24.3681L26.8996 16.8132V20.049Z" fill="#717E7E" stroke="#231815" stroke-width="0.1" stroke-linecap="round" stroke-linejoin="round"/>
<path d="M26.8993 16.8132L19.3445 24.3681H17.7266L25.2814 16.8132H26.8993Z" fill="#485150" stroke="#231815" stroke-width="0.1" stroke-linecap="round" stroke-linejoin="round"/>
<path d="M46.8485 10.3416H25.2812V13.5773H46.8485V10.3416Z" fill="#485150" stroke="#231815" stroke-width="0.1" stroke-linecap="round" stroke-linejoin="round"/>
<path d="M46.8485 10.3416H25.2812L26.3505 9.2583H47.9318L46.8485 10.3416Z" fill="#717E7E" stroke="#231815" stroke-width="0.1" stroke-linecap="round" stroke-linejoin="round"/>
<path d="M26.8996 13.5773L19.3447 21.1322V17.8964L26.8996 10.3416V13.5773Z" fill="#717E7E" stroke="#231815" stroke-width="0.1" stroke-linecap="round" stroke-linejoin="round"/>
<path d="M26.8993 10.3416L19.3445 17.8964H17.7266L25.2814 10.3416H26.8993Z" fill="#485150" stroke="#231815" stroke-width="0.1" stroke-linecap="round" stroke-linejoin="round"/>
<path d="M46.8485 3.87012H25.2812V7.10591H46.8485V3.87012Z" fill="#485150" stroke="#231815" stroke-width="0.1" stroke-linecap="round" stroke-linejoin="round"/>
<path d="M46.8485 3.87012H25.2812L26.3505 2.8009H47.9318L46.8485 3.87012Z" fill="#717E7E" stroke="#231815" stroke-width="0.1" stroke-linecap="round" stroke-linejoin="round"/>
<path d="M26.8996 7.10591L19.3447 14.6608V11.425L26.8996 3.87012V7.10591Z" fill="#717E7E" stroke="#231815" stroke-width="0.1" stroke-linecap="round" stroke-linejoin="round"/>
<path d="M26.8993 3.87012L19.3445 11.425H17.7266L25.2814 3.87012H26.8993Z" fill="#485150" stroke="#231815" stroke-width="0.1" stroke-linecap="round" stroke-linejoin="round"/>
<path d="M46.8485 62.1143H25.2812V65.35H46.8485V62.1143Z" fill="#485150" stroke="#231815" stroke-width="0.1" stroke-linecap="round" stroke-linejoin="round"/>
<path d="M46.8485 62.1143H25.2812L26.3505 61.045H47.9318L46.8485 62.1143Z" fill="#717E7E" stroke="#231815" stroke-width="0.1" stroke-linecap="round" stroke-linejoin="round"/>
<path d="M26.8996 65.35L19.3447 72.9049V69.6691L26.8996 62.1143V65.35Z" fill="#717E7E" stroke="#231815" stroke-width="0.1" stroke-linecap="round" stroke-linejoin="round"/>
<path d="M26.8993 62.1143L19.3445 69.6691H17.7266L25.2814 62.1143H26.8993Z" fill="#485150" stroke="#231815" stroke-width="0.1" stroke-linecap="round" stroke-linejoin="round"/>
<path d="M29.1084 4.4469V73.4959C29.1084 74.5369 30.5293 75.367 32.2879 75.367C34.0465 75.367 35.4674 74.5369 35.4674 73.4959V4.4469H29.1084Z" fill="#849493" stroke="#231815" stroke-width="0.1" stroke-linecap="round" stroke-linejoin="round"/>
<path d="M35.4674 4.44694C35.4674 5.48802 34.0465 6.31807 32.2879 6.31807C30.5293 6.31807 29.1084 5.47395 29.1084 4.44694C29.1084 3.41993 30.5293 2.57581 32.2879 2.57581C34.0465 2.57581 35.4674 3.41993 35.4674 4.44694Z" fill="#849493" stroke="#231815" stroke-width="0.1" stroke-linecap="round" stroke-linejoin="round"/>
<path d="M24.1846 3.92639V73.4959C24.1846 74.0305 24.9161 74.4526 25.8025 74.4526C26.6888 74.4526 27.4204 74.0305 27.4204 73.4959V3.92639H24.1846Z" fill="#A7BBBA" stroke="#231815" stroke-width="0.1" stroke-linecap="round" stroke-linejoin="round"/>
<path d="M27.434 3.9264C27.434 4.461 26.7165 4.88306 25.8161 4.88306C24.9157 4.88306 24.1982 4.461 24.1982 3.9264C24.1982 3.39179 24.9298 2.96973 25.8161 2.96973C26.7025 2.96973 27.434 3.39179 27.434 3.9264Z" fill="#A7BBBA" stroke="#231815" stroke-width="0.1" stroke-linecap="round" stroke-linejoin="round"/>
<path d="M37.1416 3.92639V73.4959C37.1416 74.0305 37.8732 74.4526 38.7595 74.4526C39.6458 74.4526 40.3774 74.0305 40.3774 73.4959V3.92639H37.1416Z" fill="#A7BBBA" stroke="#231815" stroke-width="0.1" stroke-linecap="round" stroke-linejoin="round"/>
<path d="M40.3774 3.9264C40.3774 4.461 39.6458 4.88306 38.7595 4.88306C37.8732 4.88306 37.1416 4.461 37.1416 3.9264C37.1416 3.39179 37.8732 2.96973 38.7595 2.96973C39.6458 2.96973 40.3774 3.39179 40.3774 3.9264Z" fill="#A7BBBA" stroke="#231815" stroke-width="0.1" stroke-linecap="round" stroke-linejoin="round"/>
<path d="M47.9321 64.2808L39.2939 72.9049V69.6691L47.9321 61.045V64.2808Z" fill="#849493" stroke="#231815" stroke-width="0.1" stroke-linecap="round" stroke-linejoin="round"/>
<path d="M46.8485 62.1143L39.2937 69.6691H37.6758L45.2306 62.1143H46.8485Z" fill="#96A8A7" stroke="#231815" stroke-width="0.1" stroke-linecap="round" stroke-linejoin="round"/>
<path d="M39.2938 69.6691H17.7266V72.9049H39.2938V69.6691Z" fill="#A7BBBA" stroke="#231815" stroke-width="0.1" stroke-linecap="round" stroke-linejoin="round"/>
<path d="M39.2938 69.6691H17.7266L18.8098 68.5858H40.3771L39.2938 69.6691Z" fill="#96A8A7" stroke="#231815" stroke-width="0.1" stroke-linecap="round" stroke-linejoin="round"/>
<path d="M47.9321 57.8093L39.2939 66.4334V63.1976L47.9321 54.5594V57.8093Z" fill="#849493" stroke="#231815" stroke-width="0.1" stroke-linecap="round" stroke-linejoin="round"/>
<path d="M46.8485 55.6427L39.2937 63.1976H37.6758L45.2306 55.6427H46.8485Z" fill="#96A8A7" stroke="#231815" stroke-width="0.1" stroke-linecap="round" stroke-linejoin="round"/>
<path d="M39.2938 63.1975H17.7266V66.4333H39.2938V63.1975Z" fill="#A7BBBA" stroke="#231815" stroke-width="0.1" stroke-linecap="round" stroke-linejoin="round"/>
<path d="M39.2938 63.1975H17.7266L18.8098 62.1143H40.3771L39.2938 63.1975Z" fill="#96A8A7" stroke="#231815" stroke-width="0.1" stroke-linecap="round" stroke-linejoin="round"/>
<path d="M47.9321 51.3237L39.2939 59.9618V56.726L47.9321 48.1019V51.3237Z" fill="#849493" stroke="#231815" stroke-width="0.1" stroke-linecap="round" stroke-linejoin="round"/>
<path d="M46.8485 49.1711L39.2937 56.726H37.6758L45.2306 49.1711H46.8485Z" fill="#96A8A7" stroke="#231815" stroke-width="0.1" stroke-linecap="round" stroke-linejoin="round"/>
<path d="M39.2938 56.726H17.7266V59.9617H39.2938V56.726Z" fill="#A7BBBA" stroke="#231815" stroke-width="0.1" stroke-linecap="round" stroke-linejoin="round"/>
<path d="M39.2938 56.726H17.7266L18.8098 55.6427H40.3771L39.2938 56.726Z" fill="#96A8A7" stroke="#231815" stroke-width="0.1" stroke-linecap="round" stroke-linejoin="round"/>
<path d="M47.9321 44.8521L39.2939 53.4903V50.2545L47.9321 41.6163V44.8521Z" fill="#849493" stroke="#231815" stroke-width="0.1" stroke-linecap="round" stroke-linejoin="round"/>
<path d="M46.8485 42.6996L39.2937 50.2545H37.6758L45.2306 42.6996H46.8485Z" fill="#96A8A7" stroke="#231815" stroke-width="0.1" stroke-linecap="round" stroke-linejoin="round"/>
<path d="M39.2938 50.2544H17.7266V53.4902H39.2938V50.2544Z" fill="#A7BBBA" stroke="#231815" stroke-width="0.1" stroke-linecap="round" stroke-linejoin="round"/>
<path d="M39.2938 50.2544H17.7266L18.8098 49.1711H40.3771L39.2938 50.2544Z" fill="#96A8A7" stroke="#231815" stroke-width="0.1" stroke-linecap="round" stroke-linejoin="round"/>
<path d="M47.9321 38.3945L39.2939 47.0186V43.7828L47.9321 35.1587V38.3945Z" fill="#849493" stroke="#231815" stroke-width="0.1" stroke-linecap="round" stroke-linejoin="round"/>
<path d="M46.8485 36.2279L39.2937 43.7828H37.6758L45.2306 36.2279H46.8485Z" fill="#96A8A7" stroke="#231815" stroke-width="0.1" stroke-linecap="round" stroke-linejoin="round"/>
<path d="M39.2938 43.7827H17.7266V47.0185H39.2938V43.7827Z" fill="#A7BBBA" stroke="#231815" stroke-width="0.1" stroke-linecap="round" stroke-linejoin="round"/>
<path d="M39.2938 43.7827H17.7266L18.8098 42.6995H40.3771L39.2938 43.7827Z" fill="#96A8A7" stroke="#231815" stroke-width="0.1" stroke-linecap="round" stroke-linejoin="round"/>
<path d="M47.9321 31.9089L39.2939 40.547V37.3113L47.9321 28.6731V31.9089Z" fill="#849493" stroke="#231815" stroke-width="0.1" stroke-linecap="round" stroke-linejoin="round"/>
<path d="M46.8485 29.7563L39.2937 37.3112H37.6758L45.2306 29.7563H46.8485Z" fill="#96A8A7" stroke="#231815" stroke-width="0.1" stroke-linecap="round" stroke-linejoin="round"/>
<path d="M39.2938 37.3112H17.7266V40.5469H39.2938V37.3112Z" fill="#A7BBBA" stroke="#231815" stroke-width="0.1" stroke-linecap="round" stroke-linejoin="round"/>
<path d="M39.2938 37.3112H17.7266L18.8098 36.2279H40.3771L39.2938 37.3112Z" fill="#96A8A7" stroke="#231815" stroke-width="0.1" stroke-linecap="round" stroke-linejoin="round"/>
<path d="M47.9321 25.4373L39.2939 34.0755V30.8397L47.9321 22.2156V25.4373Z" fill="#849493" stroke="#231815" stroke-width="0.1" stroke-linecap="round" stroke-linejoin="round"/>
<path d="M46.8485 23.2848L39.2937 30.8397H37.6758L45.2306 23.2848H46.8485Z" fill="#96A8A7" stroke="#231815" stroke-width="0.1" stroke-linecap="round" stroke-linejoin="round"/>
<path d="M39.2938 30.8396H17.7266V34.0754H39.2938V30.8396Z" fill="#A7BBBA" stroke="#231815" stroke-width="0.1" stroke-linecap="round" stroke-linejoin="round"/>
<path d="M39.2938 30.8396H17.7266L18.8098 29.7563H40.3771L39.2938 30.8396Z" fill="#96A8A7" stroke="#231815" stroke-width="0.1" stroke-linecap="round" stroke-linejoin="round"/>
<path d="M47.9321 18.9657L39.2939 27.6039V24.3681L47.9321 15.744V18.9657Z" fill="#849493" stroke="#231815" stroke-width="0.1" stroke-linecap="round" stroke-linejoin="round"/>
<path d="M46.8485 16.8132L39.2937 24.3681H37.6758L45.2306 16.8132H46.8485Z" fill="#96A8A7" stroke="#231815" stroke-width="0.1" stroke-linecap="round" stroke-linejoin="round"/>
<path d="M39.2938 24.368H17.7266V27.6038H39.2938V24.368Z" fill="#A7BBBA" stroke="#231815" stroke-width="0.1" stroke-linecap="round" stroke-linejoin="round"/>
<path d="M39.2938 24.3681H17.7266L18.8098 23.2848H40.3771L39.2938 24.3681Z" fill="#96A8A7" stroke="#231815" stroke-width="0.1" stroke-linecap="round" stroke-linejoin="round"/>
<path d="M47.9321 12.4941L39.2939 21.1322V17.8965L47.9321 9.2583V12.4941Z" fill="#849493" stroke="#231815" stroke-width="0.1" stroke-linecap="round" stroke-linejoin="round"/>
<path d="M46.8485 10.3416L39.2937 17.8964H37.6758L45.2306 10.3416H46.8485Z" fill="#96A8A7" stroke="#231815" stroke-width="0.1" stroke-linecap="round" stroke-linejoin="round"/>
<path d="M39.2938 17.8964H17.7266V21.1322H39.2938V17.8964Z" fill="#A7BBBA" stroke="#231815" stroke-width="0.1" stroke-linecap="round" stroke-linejoin="round"/>
<path d="M39.2938 17.8964H17.7266L18.8098 16.8131H40.3771L39.2938 17.8964Z" fill="#96A8A7" stroke="#231815" stroke-width="0.1" stroke-linecap="round" stroke-linejoin="round"/>
<path d="M47.9321 6.02263L39.2939 14.6608V11.425L47.9321 2.8009V6.02263Z" fill="#849493" stroke="#231815" stroke-width="0.1" stroke-linecap="round" stroke-linejoin="round"/>
<path d="M46.8485 3.87012L39.2937 11.425H37.6758L45.2306 3.87012H46.8485Z" fill="#96A8A7" stroke="#231815" stroke-width="0.1" stroke-linecap="round" stroke-linejoin="round"/>
<path d="M39.2938 11.4249H17.7266V14.6607H39.2938V11.4249Z" fill="#A7BBBA" stroke="#231815" stroke-width="0.1" stroke-linecap="round" stroke-linejoin="round"/>
<path d="M39.2938 11.425H17.7266L18.8098 10.3417H40.3771L39.2938 11.425Z" fill="#96A8A7" stroke="#231815" stroke-width="0.1" stroke-linecap="round" stroke-linejoin="round"/>
<path d="M64.4065 79.278H45.5264V86.0309H64.4065V79.278Z" fill="#9B7B6C" stroke="#231815" stroke-width="0.1" stroke-linecap="round" stroke-linejoin="round"/>
<path d="M64.4062 86.017L71.5953 78.8279V72.089L64.4062 79.2781V86.017Z" fill="#6F5549" stroke="#231815" stroke-width="0.1" stroke-linecap="round" stroke-linejoin="round"/>
<path d="M64.4065 75.2404H45.5264V79.2781H64.4065V75.2404Z" fill="#C7DDDC" stroke="#231815" stroke-width="0.1" stroke-linecap="round" stroke-linejoin="round"/>
<path d="M64.4062 79.278L71.5953 72.0889V68.0371L64.4062 75.2403V79.278Z" fill="#849493" stroke="#231815" stroke-width="0.1" stroke-linecap="round" stroke-linejoin="round"/>
<path d="M64.4065 71.1882H45.5264V75.24H64.4065V71.1882Z" fill="#C7DDDC" stroke="#231815" stroke-width="0.1" stroke-linecap="round" stroke-linejoin="round"/>
<path d="M64.4062 75.2401L71.5953 68.037V63.9993L64.4062 71.1883V75.2401Z" fill="#849493" stroke="#231815" stroke-width="0.1" stroke-linecap="round" stroke-linejoin="round"/>
<path d="M64.4065 67.1365H45.5264V71.1882H64.4065V67.1365Z" fill="#C7DDDC" stroke="#231815" stroke-width="0.1" stroke-linecap="round" stroke-linejoin="round"/>
<path d="M64.4062 71.1884L71.5953 63.9993V59.9475L64.4062 67.1366V71.1884Z" fill="#849493" stroke="#231815" stroke-width="0.1" stroke-linecap="round" stroke-linejoin="round"/>
<path d="M64.4065 56.3601H45.5264V67.1508H64.4065V56.3601Z" fill="#C7DDDC" stroke="#231815" stroke-width="0.1" stroke-linecap="round" stroke-linejoin="round"/>
<path d="M64.4062 67.1367L71.5953 59.9476V49.171L64.4062 56.3601V67.1367Z" fill="#849493" stroke="#231815" stroke-width="0.1" stroke-linecap="round" stroke-linejoin="round"/>
<path d="M64.4065 56.3601L71.5956 49.171H52.7295L45.5264 56.3601H64.4065Z" fill="#849493" stroke="#231815" stroke-width="0.1" stroke-linecap="round" stroke-linejoin="round"/>
<path d="M68.2621 51.7738C68.2621 51.7738 68.2199 51.6894 68.1918 51.6472C68.1496 51.4924 68.0792 51.3517 67.9808 51.211C63.3662 41.1238 65.5469 2.74451 65.5469 2.74451L50.9295 4.41868C52.8007 27.5475 49.6212 50.0433 49.1006 53.5042C49.0443 53.659 49.0303 53.8137 49.0303 53.9544C49.1147 55.305 51.7455 56.2757 55.8114 56.2757C60.8761 56.2757 66.2644 54.7704 67.8119 52.9133C68.1355 52.5194 68.2762 52.1396 68.234 51.7878H68.2762L68.2621 51.7738Z" fill="#EFEEDF" stroke="#231815" stroke-width="0.1" stroke-linecap="round" stroke-linejoin="round"/>
<path d="M50.9295 3.77158C50.9295 3.77158 51.6048 6.51497 57.176 6.17732C57.176 6.17732 65.2373 5.5161 65.6453 2.87119C65.6453 2.87119 65.7719 2.49133 65.3358 2.15369C65.3358 2.15369 68.1495 4.1655 64.0274 5.75526C64.0274 5.75526 57.3729 8.18914 52.4348 6.83855C52.4348 6.83855 48.58 6.0507 50.9436 3.75751L50.9295 3.77158Z" fill="#C7DDDC" stroke="#231815" stroke-width="0.1" stroke-linecap="round" stroke-linejoin="round"/>
<path d="M51.3648 10.7354C51.3648 10.7354 52.0261 13.4788 57.4003 13.1412C57.4003 13.1412 65.2084 12.4799 65.5882 9.83502C65.5882 9.83502 65.7149 9.45517 65.2928 9.13159C65.2928 9.13159 68.0221 11.1434 64.0266 12.7332C64.0266 12.7332 57.5972 15.167 52.8139 13.8165C52.8139 13.8165 49.0857 13.0286 51.3648 10.7354Z" fill="#C7DDDC" stroke="#231815" stroke-width="0.1" stroke-linecap="round" stroke-linejoin="round"/>
<path d="M51.365 16.6442C51.365 16.6442 52.0121 19.4017 57.3441 19.05C57.3441 19.05 65.0819 18.3887 65.4617 15.7438C65.4617 15.7438 65.5884 15.364 65.1663 15.0404C65.1663 15.0404 67.8675 17.0522 63.9142 18.642C63.9142 18.642 57.5411 21.0759 52.8 19.7253C52.8 19.7253 49.114 18.9374 51.365 16.6442Z" fill="#C7DDDC" stroke="#231815" stroke-width="0.1" stroke-linecap="round" stroke-linejoin="round"/>
<path d="M51.365 23.2848C51.365 23.2848 52.0121 26.0422 57.316 25.6905C57.316 25.6905 65.0256 25.0293 65.4055 22.3844C65.4055 22.3844 65.5321 22.0045 65.11 21.6669C65.11 21.6669 67.7971 23.6787 63.8579 25.2684C63.8579 25.2684 57.513 27.7023 52.7859 26.3658C52.7859 26.3658 49.114 25.578 51.365 23.2848Z" fill="#C7DDDC" stroke="#231815" stroke-width="0.1" stroke-linecap="round" stroke-linejoin="round"/>
<path d="M51.365 30.3471C51.365 30.3471 52.0121 33.1046 57.316 32.7529C57.316 32.7529 65.0256 32.0917 65.4055 29.4467C65.4055 29.4467 65.5321 29.0669 65.11 28.7292C65.11 28.7292 67.7971 30.7551 63.8579 32.3308C63.8579 32.3308 57.513 34.7647 52.7859 33.4282C52.7859 33.4282 49.114 32.6403 51.365 30.3471Z" fill="#C7DDDC" stroke="#231815" stroke-width="0.1" stroke-linecap="round" stroke-linejoin="round"/>
<path d="M65.4476 3.6027C64.2096 5.0377 59.9609 6.2054 55.9654 6.2054C51.9699 6.2054 49.7189 5.0377 50.9428 3.6027C52.1809 2.1677 56.4296 1 60.4251 1C64.4206 1 66.6857 2.1677 65.4476 3.6027Z" fill="#5D6968" stroke="#231815" stroke-width="0.1" stroke-linecap="round" stroke-linejoin="round"/>
<path d="M68.7406 62.1283V86.3405C68.7406 88.1272 75.5077 89.5762 83.8363 89.5762C92.1649 89.5762 98.932 88.1272 98.932 86.3405V62.1283H68.7266H68.7406Z" fill="#849493" stroke="#231815" stroke-width="0.1" stroke-linecap="round" stroke-linejoin="round"/>
<path d="M98.9462 62.1284C98.9462 60.3416 92.1792 58.8926 83.8506 58.8926C75.5219 58.8926 68.7549 60.3416 68.7549 62.1284C68.7549 63.9151 75.5219 65.3642 83.8506 65.3642C92.1792 65.3642 98.9462 63.9151 98.9462 62.1284Z" fill="#A7BBBA" stroke="#231815" stroke-width="0.1" stroke-linecap="round" stroke-linejoin="round"/>
<path d="M66.7002 58.9347V62.6066C66.7002 64.6325 74.3817 66.2785 83.8499 66.2785C93.3181 66.2785 101 64.6325 101 62.6066V58.9347H66.7002Z" fill="#C7DDDC" stroke="#231815" stroke-width="0.1" stroke-linecap="round" stroke-linejoin="round"/>
<path d="M100.986 58.9347C100.986 56.9089 93.3044 55.2628 83.8362 55.2628C74.368 55.2628 66.6865 56.9089 66.6865 58.9347C66.6865 60.9606 74.368 62.6067 83.8362 62.6067C93.3044 62.6067 100.986 60.9606 100.986 58.9347Z" fill="#C7DDDC" stroke="#231815" stroke-width="0.1" stroke-linecap="round" stroke-linejoin="round"/>
<path d="M72.1875 51.2673V58.3017C72.1875 59.6945 77.4492 60.82 83.9489 60.82C90.4486 60.82 95.7103 59.6945 95.7103 58.3017V51.2673H72.1875Z" fill="#849493" stroke="#231815" stroke-width="0.1" stroke-linecap="round" stroke-linejoin="round"/>
<path d="M95.7103 51.2673C95.7103 49.8745 90.4486 48.749 83.9489 48.749C77.4492 48.749 72.1875 49.8745 72.1875 51.2673C72.1875 52.6601 77.4492 53.7856 83.9489 53.7856C90.4486 53.7856 95.7103 52.6601 95.7103 51.2673Z" fill="#A7BBBA" stroke="#231815" stroke-width="0.1" stroke-linecap="round" stroke-linejoin="round"/>
<path d="M78.6455 3.6449V50.4513C78.6455 51.0844 81.0231 51.5909 83.9494 51.5909C86.8757 51.5909 89.2533 51.0844 89.2533 50.4513V3.6449H78.6455Z" fill="#EFEEDF" stroke="#231815" stroke-width="0.1" stroke-linecap="round" stroke-linejoin="round"/>
<path d="M89.2533 3.64493C89.2533 3.02591 86.8757 2.50537 83.9494 2.50537C81.0231 2.50537 78.6455 3.01184 78.6455 3.64493C78.6455 4.27802 81.0231 4.78449 83.9494 4.78449C86.8757 4.78449 89.2533 4.27802 89.2533 3.64493Z" fill="#EFEEDF" stroke="#231815" stroke-width="0.1" stroke-linecap="round" stroke-linejoin="round"/>
<path d="M77.6748 3.4198V5.305C77.6748 6.03657 80.4885 6.64152 83.9494 6.64152C87.4103 6.64152 90.224 6.03657 90.224 5.305V3.4198H77.6748Z" fill="#849493" stroke="#231815" stroke-width="0.1" stroke-linecap="round" stroke-linejoin="round"/>
<path d="M90.224 3.41977C90.224 2.67414 87.4244 2.08325 83.9494 2.08325C80.4745 2.08325 77.6748 2.6882 77.6748 3.41977C77.6748 4.15134 80.4885 4.7563 83.9494 4.7563C87.4103 4.7563 90.224 4.15134 90.224 3.41977Z" fill="#A7BBBA" stroke="#231815" stroke-width="0.1" stroke-linecap="round" stroke-linejoin="round"/>
</svg>
