<svg width="102" height="102" viewBox="0 0 102 102" fill="none" xmlns="http://www.w3.org/2000/svg">
<path d="M19.4031 14.488H1V101.002H19.4031V14.488Z" fill="#BF795D" stroke="#231815" stroke-width="0.1" stroke-linecap="round" stroke-linejoin="round"/>
<path d="M19.4031 14.4882H1L14.4882 1H32.8912L19.4031 14.4882Z" fill="#B5B5B6" stroke="#231815" stroke-width="0.1" stroke-linecap="round" stroke-linejoin="round"/>
<path d="M32.8915 87.5141L19.4033 101.002V14.4882L32.8915 1V87.5141Z" fill="#985F47" stroke="#231815" stroke-width="0.1" stroke-linecap="round" stroke-linejoin="round"/>
<path d="M25.5466 89.3569L21.8604 93.0431V87.5138L25.5466 83.8276V89.3569Z" fill="#7ECEF4" stroke="#231815" stroke-width="0.1" stroke-linecap="round" stroke-linejoin="round"/>
<path d="M30.4327 84.4421L26.7744 88.1283V82.599L30.4327 78.9128V84.4421Z" fill="#7ECEF4" stroke="#231815" stroke-width="0.1" stroke-linecap="round" stroke-linejoin="round"/>
<path d="M25.5466 76.4555L21.8604 80.1417V74.6124L25.5466 70.9541V76.4555Z" fill="#7ECEF4" stroke="#231815" stroke-width="0.1" stroke-linecap="round" stroke-linejoin="round"/>
<path d="M30.4327 71.5684L26.7744 75.2266V69.7253L30.4327 66.0391V71.5684Z" fill="#7ECEF4" stroke="#231815" stroke-width="0.1" stroke-linecap="round" stroke-linejoin="round"/>
<path d="M25.5466 63.5815L21.8604 67.2678V61.7384L25.5466 58.0522V63.5815Z" fill="#7ECEF4" stroke="#231815" stroke-width="0.1" stroke-linecap="round" stroke-linejoin="round"/>
<path d="M30.4327 58.6667L26.7744 62.3529V56.8236L30.4327 53.1653V58.6667Z" fill="#7ECEF4" stroke="#231815" stroke-width="0.1" stroke-linecap="round" stroke-linejoin="round"/>
<path d="M25.5466 50.708L21.8604 54.3663V48.8649L25.5466 45.1787V50.708Z" fill="#7ECEF4" stroke="#231815" stroke-width="0.1" stroke-linecap="round" stroke-linejoin="round"/>
<path d="M30.4327 45.793L26.7744 49.4792V43.9499L30.4327 40.2637V45.793Z" fill="#7ECEF4" stroke="#231815" stroke-width="0.1" stroke-linecap="round" stroke-linejoin="round"/>
<path d="M25.5466 37.8061L21.8604 41.4923V35.963L25.5466 32.3047V37.8061Z" fill="#7ECEF4" stroke="#231815" stroke-width="0.1" stroke-linecap="round" stroke-linejoin="round"/>
<path d="M30.4327 32.891L26.7744 36.5772V31.0759L30.4327 27.3896V32.891Z" fill="#7ECEF4" stroke="#231815" stroke-width="0.1" stroke-linecap="round" stroke-linejoin="round"/>
<path d="M30.4346 20.0173L26.7764 23.7035V18.1742L30.4346 14.488V20.0173Z" fill="#7ECEF4" stroke="#231815" stroke-width="0.1" stroke-linecap="round" stroke-linejoin="round"/>
<path d="M13.9017 88.1282H6.5293V95.5006H13.9017V88.1282Z" fill="#7ECEF4" stroke="#231815" stroke-width="0.1" stroke-linecap="round" stroke-linejoin="round"/>
<path d="M13.9017 23.7036H6.5293V31.076H13.9017V23.7036Z" fill="#7ECEF4" stroke="#231815" stroke-width="0.1" stroke-linecap="round" stroke-linejoin="round"/>
<path d="M13.9017 36.5774H6.5293V43.9498H13.9017V36.5774Z" fill="#7ECEF4" stroke="#231815" stroke-width="0.1" stroke-linecap="round" stroke-linejoin="round"/>
<path d="M13.9017 49.479H6.5293V56.8514H13.9017V49.479Z" fill="#7ECEF4" stroke="#231815" stroke-width="0.1" stroke-linecap="round" stroke-linejoin="round"/>
<path d="M13.9017 62.3528H6.5293V69.7252H13.9017V62.3528Z" fill="#7ECEF4" stroke="#231815" stroke-width="0.1" stroke-linecap="round" stroke-linejoin="round"/>
<path d="M13.9017 75.2266H6.5293V82.599H13.9017V75.2266Z" fill="#7ECEF4" stroke="#231815" stroke-width="0.1" stroke-linecap="round" stroke-linejoin="round"/>
<path d="M69.1083 31.0757H19.4004V101.03H69.1083V31.0757Z" fill="#DCDDDD" stroke="#231815" stroke-width="0.1" stroke-linecap="round" stroke-linejoin="round"/>
<path d="M69.1083 31.0756H19.4004L32.8885 17.5596H82.5964L69.1083 31.0756Z" fill="#B5B5B6" stroke="#231815" stroke-width="0.1" stroke-linecap="round" stroke-linejoin="round"/>
<path d="M82.5956 87.5137L69.1074 101.002V31.0756L82.5956 17.5596V87.5137Z" fill="#DCDDDD" stroke="#231815" stroke-width="0.1" stroke-linecap="round" stroke-linejoin="round"/>
<path d="M63.5809 87.7932H24.9316V101.03H63.5809V87.7932Z" fill="#7ECEF4" stroke="#231815" stroke-width="0.1" stroke-linecap="round" stroke-linejoin="round"/>
<path d="M63.3854 75.0029H24.9316V82.487H63.3854V75.0029Z" fill="#7ECEF4" stroke="#231815" stroke-width="0.1" stroke-linecap="round" stroke-linejoin="round"/>
<path d="M75.2262 94.8582L71.54 98.5444V89.3569L75.2262 85.6707V94.8582Z" fill="#6D402D" stroke="#231815" stroke-width="0.1" stroke-linecap="round" stroke-linejoin="round"/>
<path d="M80.142 73.6626L77.6846 76.1201V70.8701L80.142 68.4126V73.6626Z" fill="#7ECEF4" stroke="#231815" stroke-width="0.1" stroke-linecap="round" stroke-linejoin="round"/>
<path d="M63.3864 62.241H24.9326V69.7251H63.3864V62.241Z" fill="#7ECEF4" stroke="#231815" stroke-width="0.1" stroke-linecap="round" stroke-linejoin="round"/>
<path d="M80.142 60.9007L77.6846 63.3581V58.0802L80.142 55.6506V60.9007Z" fill="#7ECEF4" stroke="#231815" stroke-width="0.1" stroke-linecap="round" stroke-linejoin="round"/>
<path d="M63.3864 49.3672H24.9326V56.8513H63.3864V49.3672Z" fill="#7ECEF4" stroke="#231815" stroke-width="0.1" stroke-linecap="round" stroke-linejoin="round"/>
<path d="M80.142 47.9991L77.6846 50.4565V45.2065L80.142 42.749V47.9991Z" fill="#7ECEF4" stroke="#231815" stroke-width="0.1" stroke-linecap="round" stroke-linejoin="round"/>
<path d="M63.3864 36.4656H24.9326V43.9497H63.3864V36.4656Z" fill="#7ECEF4" stroke="#231815" stroke-width="0.1" stroke-linecap="round" stroke-linejoin="round"/>
<path d="M80.142 35.1253L77.6846 37.5828V32.3327L80.142 29.8752V35.1253Z" fill="#7ECEF4" stroke="#231815" stroke-width="0.1" stroke-linecap="round" stroke-linejoin="round"/>
<path d="M87.5115 14.488H69.1084V101.002H87.5115V14.488Z" fill="#BF795D" stroke="#231815" stroke-width="0.1" stroke-linecap="round" stroke-linejoin="round"/>
<path d="M87.5115 14.4882H69.1084L82.5965 1H101L87.5115 14.4882Z" fill="#B5B5B6" stroke="#231815" stroke-width="0.1" stroke-linecap="round" stroke-linejoin="round"/>
<path d="M101 87.5141L87.5117 101.002V14.4882L101 1V87.5141Z" fill="#985F47" stroke="#231815" stroke-width="0.1" stroke-linecap="round" stroke-linejoin="round"/>
<path d="M93.6261 89.3572L89.9678 93.0434V87.5141L93.6261 83.8279V89.3572Z" fill="#7ECEF4" stroke="#231815" stroke-width="0.1" stroke-linecap="round" stroke-linejoin="round"/>
<path d="M98.5417 84.4421L94.8555 88.1283V82.599L98.5417 78.9128V84.4421Z" fill="#7ECEF4" stroke="#231815" stroke-width="0.1" stroke-linecap="round" stroke-linejoin="round"/>
<path d="M93.6261 76.4555L89.9678 80.1417V74.6124L93.6261 70.9541V76.4555Z" fill="#7ECEF4" stroke="#231815" stroke-width="0.1" stroke-linecap="round" stroke-linejoin="round"/>
<path d="M98.5417 71.5684L94.8555 75.2266V69.7253L98.5417 66.0391V71.5684Z" fill="#7ECEF4" stroke="#231815" stroke-width="0.1" stroke-linecap="round" stroke-linejoin="round"/>
<path d="M93.6261 63.5815L89.9678 67.2678V61.7384L93.6261 58.0522V63.5815Z" fill="#7ECEF4" stroke="#231815" stroke-width="0.1" stroke-linecap="round" stroke-linejoin="round"/>
<path d="M98.5417 58.6667L94.8555 62.3529V56.8236L98.5417 53.1653V58.6667Z" fill="#7ECEF4" stroke="#231815" stroke-width="0.1" stroke-linecap="round" stroke-linejoin="round"/>
<path d="M93.6261 50.708L89.9678 54.3663V48.8649L93.6261 45.1787V50.708Z" fill="#7ECEF4" stroke="#231815" stroke-width="0.1" stroke-linecap="round" stroke-linejoin="round"/>
<path d="M98.5417 45.793L94.8555 49.4792V43.9499L98.5417 40.2637V45.793Z" fill="#7ECEF4" stroke="#231815" stroke-width="0.1" stroke-linecap="round" stroke-linejoin="round"/>
<path d="M93.6261 37.8061L89.9678 41.4923V35.963L93.6261 32.3047V37.8061Z" fill="#7ECEF4" stroke="#231815" stroke-width="0.1" stroke-linecap="round" stroke-linejoin="round"/>
<path d="M98.5417 32.891L94.8555 36.5772V31.0759L98.5417 27.3896V32.891Z" fill="#7ECEF4" stroke="#231815" stroke-width="0.1" stroke-linecap="round" stroke-linejoin="round"/>
<path d="M98.5417 20.0173L94.8555 23.7035V18.1742L98.5417 14.488V20.0173Z" fill="#7ECEF4" stroke="#231815" stroke-width="0.1" stroke-linecap="round" stroke-linejoin="round"/>
<path d="M81.9818 88.1282H74.6094V95.5006H81.9818V88.1282Z" fill="#7ECEF4" stroke="#231815" stroke-width="0.1" stroke-linecap="round" stroke-linejoin="round"/>
<path d="M81.9818 23.7036H74.6094V31.076H81.9818V23.7036Z" fill="#7ECEF4" stroke="#231815" stroke-width="0.1" stroke-linecap="round" stroke-linejoin="round"/>
<path d="M81.9818 36.5774H74.6094V43.9498H81.9818V36.5774Z" fill="#7ECEF4" stroke="#231815" stroke-width="0.1" stroke-linecap="round" stroke-linejoin="round"/>
<path d="M81.9818 49.479H74.6094V56.8514H81.9818V49.479Z" fill="#7ECEF4" stroke="#231815" stroke-width="0.1" stroke-linecap="round" stroke-linejoin="round"/>
<path d="M81.9818 62.3528H74.6094V69.7252H81.9818V62.3528Z" fill="#7ECEF4" stroke="#231815" stroke-width="0.1" stroke-linecap="round" stroke-linejoin="round"/>
<path d="M81.9818 75.2266H74.6094V82.599H81.9818V75.2266Z" fill="#7ECEF4" stroke="#231815" stroke-width="0.1" stroke-linecap="round" stroke-linejoin="round"/>
</svg>
