<svg width="870" height="926" viewBox="0 0 870 926" fill="none" xmlns="http://www.w3.org/2000/svg">
<path d="M681.904 632.72C681.882 632.696 681.859 632.672 681.837 632.648L680.143 630.819C676.331 626.704 671.998 623.495 667.373 621.193C659.211 616.598 649.931 614 640.089 614C607.455 614 581 642.56 581 677.791C581 688.416 583.406 698.435 587.662 707.246C589.795 712.24 592.767 716.918 596.579 721.034L773.456 911.987C790.763 930.671 818.822 930.671 836.129 911.987L857.02 889.433C874.327 870.749 874.327 840.457 857.02 821.773L681.904 632.72Z" fill="black"/>
<circle cx="386.774" cy="386.774" r="346.774" stroke="#B9B9B9" stroke-width="80"/>
</svg>
