<svg width="308" height="59" viewBox="0 0 308 59" fill="none" xmlns="http://www.w3.org/2000/svg">
<path d="M276.673 56.9999H255.289V1.55994H280.561L285.385 21.7199H286.033L285.745 1.55994H307.129V56.9999H283.801L276.961 31.0799H276.313L276.673 56.9999Z" fill="black"/>
<path d="M226.98 35.2559V38.2079H249.012V56.9999H204.3V1.55994H247.716V17.7599H226.98V20.7119H245.772V35.2559H226.98Z" fill="black"/>
<path d="M197.823 1.55994V22.9439H183.927V56.9999H159.951V22.9439H145.983V1.55994H197.823Z" fill="black"/>
<path d="M139.413 57.0719L116.733 56.9999V1.55994H139.413V57.0719Z" fill="black"/>
<path d="M86.2537 17.1119V1.55994H109.582V56.9999H86.2537V39.1439H80.4217V56.9999H57.0938V1.55994H80.4217V17.1119H86.2537Z" fill="black"/>
<path d="M47.3365 26.184C44.7925 24.648 42.0805 23.52 39.2005 22.8C36.3205 22.032 32.8645 21.504 28.8325 21.216C28.4965 21.168 28.1605 21.144 27.8245 21.144C27.5365 21.096 27.2485 21.072 26.9605 21.072C25.9525 21.072 25.4485 21.48 25.4485 22.296C25.4485 22.776 25.7125 23.112 26.2405 23.304C26.8165 23.448 27.5845 23.568 28.5445 23.664C30.4165 23.904 32.3845 24.192 34.4485 24.528C36.5125 24.816 38.5285 25.272 40.4965 25.896C42.4645 26.52 44.2405 27.432 45.8245 28.632C47.4565 29.832 48.7285 31.416 49.6405 33.384C50.6005 35.352 51.0805 37.824 51.0805 40.8C51.0805 44.112 50.3125 46.896 48.7765 49.152C47.2405 51.36 45.1525 53.136 42.5125 54.48C39.9205 55.776 36.9445 56.712 33.5845 57.288C30.2725 57.864 26.8405 58.152 23.2885 58.152C19.1605 58.2 15.0565 57.96 10.9765 57.432C6.94453 56.952 3.36854 56.328 0.248535 55.56L2.26454 30.216C3.36854 31.032 4.68854 31.92 6.22454 32.88C7.76054 33.792 9.84854 34.632 12.4885 35.4C15.1285 36.168 18.6085 36.768 22.9285 37.2C23.1685 37.248 23.3845 37.272 23.5765 37.272C23.8165 37.272 24.0325 37.272 24.2245 37.272C24.7525 37.272 25.1365 37.2 25.3765 37.056C25.6645 36.912 25.8085 36.6 25.8085 36.12C25.8085 35.592 25.5685 35.256 25.0885 35.112C24.6565 34.968 23.9605 34.824 23.0005 34.68C20.4085 34.392 17.8165 33.984 15.2245 33.456C12.6805 32.928 10.3525 32.112 8.24054 31.008C6.12854 29.904 4.42454 28.368 3.12854 26.4C1.88054 24.432 1.25654 21.864 1.25654 18.696C1.25654 14.184 2.31254 10.608 4.42454 7.96796C6.58454 5.27996 9.48854 3.35996 13.1365 2.20796C16.7845 1.00796 20.8645 0.407959 25.3765 0.407959C29.1685 0.407959 33.1285 0.767959 37.2565 1.48796C41.3845 2.15996 45.4645 3.09596 49.4965 4.29596L47.3365 26.184Z" fill="black"/>
</svg>
