<svg width="60" height="57" viewBox="0 0 60 57" fill="none" xmlns="http://www.w3.org/2000/svg">
<path opacity="0.5" d="M49.2912 48.3058C52.8575 46.4606 55 44.0947 55 41.5153C55 38.7812 52.593 36.2869 48.6342 34.3983C44.0565 32.2144 37.4043 30.8398 30 30.8398C22.5958 30.8398 15.9434 32.2144 11.3658 34.3983C7.40712 36.2869 5 38.7812 5 41.5153C5 44.2493 7.40712 46.7436 11.3658 48.6322C15.9434 50.8161 22.5958 52.1907 30 52.1907C37.7665 52.1907 44.7057 50.6783 49.2912 48.3058Z" fill="#FF0000"/>
<path fill-rule="evenodd" clip-rule="evenodd" d="M12.5 20.1994C12.5 11.664 20.335 4.74463 30 4.74463C39.665 4.74463 47.5 11.664 47.5 20.1994C47.5 28.668 41.9145 38.5499 33.2002 42.0839C31.1687 42.9076 28.8313 42.9076 26.7998 42.0839C18.0854 38.5499 12.5 28.668 12.5 20.1994ZM30 26.0955C32.7615 26.0955 35 23.9713 35 21.3508C35 18.7304 32.7615 16.6062 30 16.6062C27.2385 16.6062 25 18.7304 25 21.3508C25 23.9713 27.2385 26.0955 30 26.0955Z" fill="#FF0000"/>
</svg>
