<svg width="102" height="54" viewBox="0 0 102 54" fill="none" xmlns="http://www.w3.org/2000/svg">
<path d="M97.0412 37.0155L81.0127 52.9792V20.987L97.0412 5.02332V37.0155Z" fill="#AC6C53" stroke="#231815" stroke-width="0.1" stroke-linecap="round" stroke-linejoin="round"/>
<path d="M81.0121 20.9869H5.02246V52.9792H81.0121V20.9869Z" fill="#D18566" stroke="#231815" stroke-width="0.1" stroke-linecap="round" stroke-linejoin="round"/>
<path d="M73.0308 32.9922H13.0049V52.9792H73.0308V32.9922Z" fill="#985F47" stroke="#231815" stroke-width="0.1" stroke-linecap="round" stroke-linejoin="round"/>
<path d="M81.013 25.0104L88.9948 1H13.0052L1 25.0104H81.013Z" fill="#985F47" stroke="#231815" stroke-width="0.1" stroke-linecap="round" stroke-linejoin="round"/>
<path d="M97.0423 5.02336L88.9955 1L83.0254 18.9753L97.0423 5.02336Z" fill="#9E9384" stroke="#231815" stroke-width="0.1" stroke-linecap="round" stroke-linejoin="round"/>
<path d="M88.9956 1L101.001 7.03504L96.9774 7.22972L88.3467 3.01168L88.9956 1Z" fill="#985F47" stroke="#231815" stroke-width="0.1" stroke-linecap="round" stroke-linejoin="round"/>
<path d="M88.9951 32.9921L94.3812 27.6709V19.6891L88.9951 25.0103V32.9921Z" fill="#7ECEF4" stroke="#231815" stroke-width="0.1" stroke-linecap="round" stroke-linejoin="round"/>
<path d="M73.2256 39.6761H30.3314L17.0283 52.9792H73.0309L73.2256 39.6761Z" fill="#985F47" stroke="#231815" stroke-width="0.1" stroke-linecap="round" stroke-linejoin="round"/>
<path d="M73.2259 32.8624H29.2285V39.6762H73.2259V32.8624Z" fill="#985F47" stroke="#231815" stroke-width="0.1" stroke-linecap="round" stroke-linejoin="round"/>
<mask id="mask0_238_1222" style="mask-type:luminance" maskUnits="userSpaceOnUse" x="13" y="32" width="61" height="21">
<path d="M73.0328 32.9921H13.0068V52.9791H73.0328V32.9921Z" fill="white"/>
</mask>
<g mask="url(#mask0_238_1222)">
<path d="M73.0322 49.0205H37.0166V53.0439H73.0322V49.0205Z" fill="#527F5F" stroke="#231815" stroke-width="0.1" stroke-linecap="round" stroke-linejoin="round"/>
<path d="M37.0166 49.0206H73.0322L78.3534 39.676H42.3378L37.0166 49.0206Z" fill="#6BA079" stroke="#231815" stroke-width="0.1" stroke-linecap="round" stroke-linejoin="round"/>
<path d="M73.0322 52.9791L78.3535 47.6579V39.676L73.0322 49.0206V52.9791Z" fill="#527F5F" stroke="#231815" stroke-width="0.1" stroke-linecap="round" stroke-linejoin="round"/>
<path d="M25.012 44.9973H13.0068V52.9791H25.012V44.9973Z" fill="white" stroke="#231815" stroke-width="0.1" stroke-linecap="round" stroke-linejoin="round"/>
<path d="M25.012 37.0155H13.0068V44.9973H25.012V37.0155Z" fill="#BAE3F9" stroke="#231815" stroke-width="0.1" stroke-linecap="round" stroke-linejoin="round"/>
<path d="M25.012 33.3165H13.0068V37.0154H25.012V33.3165Z" fill="white" stroke="#231815" stroke-width="0.1" stroke-linecap="round" stroke-linejoin="round"/>
<path d="M25.012 32.9921H13.0068L18.3281 27.6709H30.3332L25.012 32.9921Z" fill="white" stroke="#231815" stroke-width="0.1" stroke-linecap="round" stroke-linejoin="round"/>
<path d="M25.0117 37.0155V32.9921L30.3329 27.6709V31.6943L25.0117 37.0155Z" fill="white" stroke="#231815" stroke-width="0.1" stroke-linecap="round" stroke-linejoin="round"/>
<path d="M25.0117 44.9974V37.0156L30.3329 31.6943V39.6762L25.0117 44.9974Z" fill="#BAE3F9" stroke="#231815" stroke-width="0.1" stroke-linecap="round" stroke-linejoin="round"/>
<path d="M25.0117 52.9791V44.9972L30.3329 39.676V47.6579L25.0117 52.9791Z" fill="white" stroke="#231815" stroke-width="0.1" stroke-linecap="round" stroke-linejoin="round"/>
</g>
<path d="M73.0318 32.9922H13.0059V52.9792H73.0318V32.9922Z" stroke="#231815" stroke-width="0.1" stroke-linecap="round" stroke-linejoin="round"/>
<path d="M73.0308 13.0051H13.0049V29.0337H73.0308V13.0051Z" fill="white" stroke="#231815" stroke-width="0.1" stroke-linecap="round" stroke-linejoin="round"/>
<path d="M29.0334 13.0051H13.0049V29.0337H29.0334V13.0051Z" fill="#E60012" stroke="#231815" stroke-width="0.1" stroke-linecap="round" stroke-linejoin="round"/>
<path d="M44.9969 13.0051H29.0332V29.0337H44.9969V13.0051Z" fill="#009E96" stroke="#231815" stroke-width="0.1" stroke-linecap="round" stroke-linejoin="round"/>
<path d="M44.7372 41.558H40.7139V43.5697H44.7372V41.558Z" fill="#FFFCDB" stroke="#231815" stroke-width="0.1" stroke-linecap="round" stroke-linejoin="round"/>
<path d="M47.3974 40.9091L44.6719 43.5698V41.5581L47.3974 38.8975V40.9091Z" fill="#FFFCDB" stroke="#231815" stroke-width="0.1" stroke-linecap="round" stroke-linejoin="round"/>
<path d="M44.6723 41.5581H40.7139L43.3745 38.8975H47.3978L44.6723 41.5581Z" fill="#FFFCDB" stroke="#231815" stroke-width="0.1" stroke-linecap="round" stroke-linejoin="round"/>
<path d="M49.9296 41.558H45.9062V43.5697H49.9296V41.558Z" fill="#FFFCDB" stroke="#231815" stroke-width="0.1" stroke-linecap="round" stroke-linejoin="round"/>
<path d="M52.5903 40.909L49.9297 43.5696V41.558L52.5903 38.8973V40.909Z" fill="#FFFCDB" stroke="#231815" stroke-width="0.1" stroke-linecap="round" stroke-linejoin="round"/>
<path d="M49.9296 41.558H45.9062L48.5669 38.8973H52.5902L49.9296 41.558Z" fill="#FFFCDB" stroke="#231815" stroke-width="0.1" stroke-linecap="round" stroke-linejoin="round"/>
<path d="M55.9648 41.558H51.9414V43.5697H55.9648V41.558Z" fill="#FFFCDB" stroke="#231815" stroke-width="0.1" stroke-linecap="round" stroke-linejoin="round"/>
<path d="M58.6255 40.909L55.9648 43.5696V41.558L58.6255 38.8973V40.909Z" fill="#FFFCDB" stroke="#231815" stroke-width="0.1" stroke-linecap="round" stroke-linejoin="round"/>
<path d="M55.9648 41.558H51.9414L54.602 38.8973H58.6254L55.9648 41.558Z" fill="#FFFCDB" stroke="#231815" stroke-width="0.1" stroke-linecap="round" stroke-linejoin="round"/>
<path d="M61.9989 41.558H57.9756V43.5697H61.9989V41.558Z" fill="#FFFCDB" stroke="#231815" stroke-width="0.1" stroke-linecap="round" stroke-linejoin="round"/>
<path d="M64.6596 40.9091L61.999 43.5698V41.5581L64.6596 38.8975V40.9091Z" fill="#FFFCDB" stroke="#231815" stroke-width="0.1" stroke-linecap="round" stroke-linejoin="round"/>
<path d="M61.9989 41.5581H57.9756L60.7011 38.8975H64.6596L61.9989 41.5581Z" fill="#FFFCDB" stroke="#231815" stroke-width="0.1" stroke-linecap="round" stroke-linejoin="round"/>
<path d="M68.0995 41.558H64.0762V43.5697H68.0995V41.558Z" fill="#FFFCDB" stroke="#231815" stroke-width="0.1" stroke-linecap="round" stroke-linejoin="round"/>
<path d="M70.7597 40.909L68.0342 43.5696V41.558L70.7597 38.8973V40.909Z" fill="#FFFCDB" stroke="#231815" stroke-width="0.1" stroke-linecap="round" stroke-linejoin="round"/>
<path d="M68.0346 41.558H64.0762L66.7368 38.8973H70.7601L68.0346 41.558Z" fill="#FFFCDB" stroke="#231815" stroke-width="0.1" stroke-linecap="round" stroke-linejoin="round"/>
<path d="M42.4667 45.4517H38.4434V47.4633H42.4667V45.4517Z" fill="#FFFCDB" stroke="#231815" stroke-width="0.1" stroke-linecap="round" stroke-linejoin="round"/>
<path d="M45.1274 42.791L42.4668 47.4633V45.4516L45.1274 40.7793V42.791Z" fill="#FFFCDB" stroke="#231815" stroke-width="0.1" stroke-linecap="round" stroke-linejoin="round"/>
<path d="M42.4667 45.4516H38.4434L41.104 40.7793H45.1273L42.4667 45.4516Z" fill="#FFFCDB" stroke="#231815" stroke-width="0.1" stroke-linecap="round" stroke-linejoin="round"/>
<path d="M47.5927 45.4517H43.5693V47.4633H47.5927V45.4517Z" fill="#FFFCDB" stroke="#231815" stroke-width="0.1" stroke-linecap="round" stroke-linejoin="round"/>
<path d="M50.2534 42.791L47.5928 47.4633V45.4516L50.2534 40.7793V42.791Z" fill="#FFFCDB" stroke="#231815" stroke-width="0.1" stroke-linecap="round" stroke-linejoin="round"/>
<path d="M47.5927 45.4516H43.5693L46.2299 40.7793H50.2533L47.5927 45.4516Z" fill="#FFFCDB" stroke="#231815" stroke-width="0.1" stroke-linecap="round" stroke-linejoin="round"/>
<path d="M54.0829 45.4517H50.0596V47.4633H54.0829V45.4517Z" fill="#FFFCDB" stroke="#231815" stroke-width="0.1" stroke-linecap="round" stroke-linejoin="round"/>
<path d="M56.7426 42.791L54.082 47.4633V45.4516L56.7426 40.7793V42.791Z" fill="#FFFCDB" stroke="#231815" stroke-width="0.1" stroke-linecap="round" stroke-linejoin="round"/>
<path d="M54.0829 45.4516H50.0596L52.7202 40.7793H56.7435L54.0829 45.4516Z" fill="#FFFCDB" stroke="#231815" stroke-width="0.1" stroke-linecap="round" stroke-linejoin="round"/>
<path d="M59.079 45.4517H55.0557V47.4633H59.079V45.4517Z" fill="#FFFCDB" stroke="#231815" stroke-width="0.1" stroke-linecap="round" stroke-linejoin="round"/>
<path d="M61.7387 42.791L59.0781 47.4633V45.4516L61.7387 40.7793V42.791Z" fill="#FFFCDB" stroke="#231815" stroke-width="0.1" stroke-linecap="round" stroke-linejoin="round"/>
<path d="M59.079 45.4516H55.0557L57.7163 40.7793H61.7396L59.079 45.4516Z" fill="#FFFCDB" stroke="#231815" stroke-width="0.1" stroke-linecap="round" stroke-linejoin="round"/>
<path d="M64.5302 45.4517H60.5068V47.4633H64.5302V45.4517Z" fill="#FFFCDB" stroke="#231815" stroke-width="0.1" stroke-linecap="round" stroke-linejoin="round"/>
<path d="M67.1899 42.791L64.5293 47.4633V45.4516L67.1899 40.7793V42.791Z" fill="#FFFCDB" stroke="#231815" stroke-width="0.1" stroke-linecap="round" stroke-linejoin="round"/>
<path d="M64.5302 45.4516H60.5068L63.1674 40.7793H67.1908L64.5302 45.4516Z" fill="#FFFCDB" stroke="#231815" stroke-width="0.1" stroke-linecap="round" stroke-linejoin="round"/>
<path d="M34.6138 24.7507C34.6138 24.7507 34.5489 24.9453 34.4192 25.0751C34.2894 25.2049 34.1596 25.3347 34.0298 25.3996C33.6404 25.6592 33.1862 25.6592 32.7319 25.3996C32.2777 25.2049 31.8234 24.6858 31.4341 23.9719L31.3043 23.7773C30.9149 23.0634 30.7852 22.4145 30.7852 21.8305C30.7852 21.2464 31.0447 20.8571 31.4341 20.5975C31.6288 20.4677 31.7586 20.4028 31.8883 20.4028C32.0181 20.4028 32.1479 20.4028 32.2128 20.4028L32.6022 21.1167C32.6022 21.1167 32.4075 21.1167 32.2777 21.1167C32.1479 21.1167 32.0181 21.1815 31.8883 21.3113C31.6288 21.4411 31.499 21.7656 31.5639 22.09C31.5639 22.4794 31.7586 22.9337 32.0181 23.4528C32.2777 24.0368 32.6022 24.4262 32.8617 24.6209C33.1213 24.8156 33.3809 24.8156 33.5756 24.6858C33.7053 24.556 33.8351 24.4911 33.9 24.3613C33.9649 24.2315 34.0298 24.1666 34.0947 24.0368L34.4841 24.7507H34.6138Z" fill="#00873C" stroke="#231815" stroke-width="0.1" stroke-linecap="round" stroke-linejoin="round"/>
<path d="M35.1335 19.8838L36.2366 25.2699L35.7175 25.5944L35.4579 24.1667L32.7324 21.3763L33.3814 20.987L35.2632 22.9986L34.6143 20.2083L35.1335 19.8838Z" fill="#00873C" stroke="#231815" stroke-width="0.1" stroke-linecap="round" stroke-linejoin="round"/>
<path d="M37.9885 21.8306C37.9885 21.8306 37.8587 22.0252 37.7938 22.0901C37.664 22.155 37.5342 22.0901 37.4045 22.0901C37.2747 21.9604 37.08 21.7657 36.8853 21.3763L36.7555 21.1167C36.496 20.6625 36.3662 20.338 36.3662 20.0785C36.3662 19.8838 36.3662 19.6891 36.5608 19.6242C36.6906 19.6242 36.7555 19.5593 36.8204 19.6242C36.8853 19.6242 37.0151 19.6242 37.08 19.754L37.9885 21.5061C37.9885 21.5061 37.9885 21.7657 37.9885 21.8955V21.8306ZM36.6906 17.4178L36.0417 17.8072L36.7555 19.1051C36.7555 19.1051 36.496 19.0402 36.4311 19.1051C36.3013 19.1051 36.2364 19.1051 36.1715 19.2348C35.847 19.4295 35.7172 19.754 35.6523 20.1433C35.6523 20.5327 35.7821 20.987 36.0417 21.571L36.2364 21.9604C36.5608 22.5444 36.8204 22.8689 37.1449 23.0635C37.4045 23.1933 37.664 23.1933 37.9236 23.0635C38.0534 22.9337 38.1832 22.8689 38.2481 22.6742C38.2481 22.5444 38.313 22.3497 38.313 22.0901L38.5725 22.5444L39.2215 22.155L36.7555 17.5476L36.6906 17.4178Z" fill="#00873C" stroke="#231815" stroke-width="0.1" stroke-linecap="round" stroke-linejoin="round"/>
<path d="M39.0261 19.3646C38.8314 19.0401 38.7666 18.7156 38.7666 18.521C38.7666 18.3263 38.8314 18.1965 38.9612 18.0667C39.091 18.0018 39.2857 18.0018 39.4155 18.0667C39.6102 18.1965 39.74 18.3912 39.9346 18.7156L38.9612 19.2997L39.0261 19.3646ZM40.6484 18.521C40.3889 18.0018 40.0644 17.6774 39.6751 17.4827C39.3506 17.288 38.9612 17.288 38.6368 17.4827C38.2474 17.7423 38.1176 18.0667 38.0527 18.521C38.0527 18.9752 38.1825 19.4295 38.4421 19.9486L38.5719 20.2082C38.8963 20.7273 39.2208 21.1167 39.5453 21.2465C39.9346 21.3763 40.2591 21.3763 40.6484 21.1167C40.8431 20.9869 40.9729 20.8571 41.1027 20.7273C41.2325 20.5975 41.2974 20.4029 41.3623 20.2731L41.0378 19.689C41.0378 19.689 40.8431 20.0135 40.7782 20.1433C40.6484 20.2731 40.5836 20.338 40.4538 20.4678C40.2591 20.5975 40.0644 20.5975 39.8697 20.4678C39.6751 20.4029 39.4804 20.1433 39.2857 19.7539L40.8431 18.7805C40.8431 18.7805 40.7782 18.6508 40.6484 18.4561V18.521Z" fill="#00873C" stroke="#231815" stroke-width="0.1" stroke-linecap="round" stroke-linejoin="round"/>
<path d="M42.4011 16.7689L41.8171 17.1582C41.8171 17.1582 41.6873 16.9636 41.6224 16.8987C41.6224 16.8987 41.4926 16.8987 41.4277 16.8987C41.3629 16.8987 41.298 17.0284 41.298 17.0933C41.298 17.2231 41.298 17.288 41.298 17.3529L42.6607 19.8837L42.0118 20.2731L40.1299 16.7689L40.7788 16.3795L41.1033 16.9636C41.1033 16.9636 41.1033 16.5093 41.1033 16.3795C41.1033 16.1848 41.2331 16.0551 41.3628 15.9902C41.5575 15.8604 41.7522 15.8604 41.9469 15.9902C42.1416 16.1199 42.3362 16.3795 42.5309 16.7689H42.4011Z" fill="#00873C" stroke="#231815" stroke-width="0.1" stroke-linecap="round" stroke-linejoin="round"/>
<path d="M34.6138 24.2317C34.6138 24.2317 34.5489 24.4264 34.4192 24.5562C34.2894 24.686 34.1596 24.8158 34.0298 24.8806C33.6404 25.1402 33.1862 25.1402 32.7319 24.8806C32.2777 24.686 31.8234 24.1668 31.4341 23.453L31.3043 23.2583C30.9149 22.5445 30.7852 21.8956 30.7852 21.3115C30.7852 20.7275 31.0447 20.3381 31.4341 20.0786C31.6288 19.9488 31.7586 19.8839 31.8883 19.819C32.0181 19.819 32.1479 19.7541 32.2128 19.819L32.6022 20.5328C32.6022 20.5328 32.4075 20.5328 32.2777 20.5328C32.1479 20.5328 32.0181 20.5977 31.8883 20.6626C31.6288 20.7924 31.499 21.1169 31.5639 21.4413C31.5639 21.8307 31.7586 22.2849 32.0181 22.8041C32.2777 23.453 32.6022 23.7775 32.8617 23.9721C33.1213 24.1668 33.3809 24.1668 33.5756 24.037C33.7053 23.9073 33.8351 23.8424 33.9 23.7126C33.9649 23.5828 34.0298 23.5179 34.0947 23.453L34.4841 24.1668L34.6138 24.2317Z" fill="white" stroke="#231815" stroke-width="0.1" stroke-linecap="round" stroke-linejoin="round"/>
<path d="M35.1335 19.3648L36.2366 24.7509L35.7175 25.0754L35.4579 23.6478L32.7324 20.7925L33.3814 20.4031L35.2632 22.4148L34.6143 19.6244L35.1335 19.2999V19.3648Z" fill="white" stroke="#231815" stroke-width="0.1" stroke-linecap="round" stroke-linejoin="round"/>
<path d="M37.9885 21.3115C37.9885 21.3115 37.8587 21.5062 37.7938 21.5711C37.664 21.636 37.5342 21.636 37.4045 21.5711C37.2747 21.4413 37.08 21.2466 36.8853 20.8573L36.7555 20.5977C36.496 20.1434 36.3662 19.819 36.3662 19.5594C36.3662 19.3647 36.3662 19.1701 36.5608 19.1052C36.6906 19.1052 36.7555 19.0403 36.8204 19.1052C36.8853 19.1052 37.0151 19.1052 37.08 19.2349L37.9885 20.9871C37.9885 20.9871 37.9885 21.2466 37.9885 21.3764V21.3115ZM36.6906 16.8988L36.0417 17.2882L36.7555 18.586C36.7555 18.586 36.496 18.5211 36.4311 18.586C36.3013 18.586 36.2364 18.586 36.1715 18.7158C35.847 18.9105 35.7172 19.2349 35.6523 19.6243C35.6523 20.0137 35.7821 20.4679 36.0417 21.052L36.2364 21.4413C36.5608 22.0253 36.8204 22.3498 37.1449 22.4796C37.4045 22.6094 37.664 22.6094 37.9236 22.4796C38.0534 22.4147 38.1832 22.2849 38.2481 22.1551C38.2481 22.0253 38.313 21.8307 38.313 21.5711L38.5725 22.0253L39.2215 21.636L36.7555 17.0286L36.6906 16.8988Z" fill="white" stroke="#231815" stroke-width="0.1" stroke-linecap="round" stroke-linejoin="round"/>
<path d="M39.0261 18.9105C38.8314 18.586 38.7666 18.2615 38.7666 18.0669C38.7666 17.8722 38.8314 17.7424 38.9612 17.6126C39.091 17.5477 39.2857 17.5477 39.4155 17.6126C39.6102 17.6775 39.74 17.9371 39.9346 18.2615L38.9612 18.8456L39.0261 18.9105ZM40.6484 18.0669C40.3889 17.5477 40.0644 17.2233 39.6751 17.0286C39.3506 16.8339 38.9612 16.8339 38.6368 17.0286C38.2474 17.2881 38.1176 17.6126 38.0527 18.0669C38.0527 18.5211 38.1825 18.9754 38.4421 19.4945L38.5719 19.7541C38.8963 20.2732 39.2208 20.6626 39.5453 20.7924C39.9346 20.9222 40.2591 20.9222 40.6484 20.6626C40.8431 20.5328 40.9729 20.403 41.1027 20.2732C41.2325 20.1434 41.2974 20.0137 41.3623 19.819L41.0378 19.2349C41.0378 19.2349 40.8431 19.5594 40.7782 19.6892C40.6484 19.819 40.5836 19.8839 40.4538 20.0137C40.2591 20.1434 40.0644 20.1434 39.8697 20.0137C39.6751 19.9488 39.4804 19.6892 39.2857 19.2998L40.8431 18.3264C40.8431 18.3264 40.7782 18.1967 40.6484 18.002V18.0669Z" fill="white" stroke="#231815" stroke-width="0.1" stroke-linecap="round" stroke-linejoin="round"/>
<path d="M42.4011 16.2499L41.8171 16.6393C41.8171 16.6393 41.6873 16.4446 41.6224 16.3797C41.6224 16.3797 41.4926 16.3797 41.4277 16.3797C41.3629 16.3797 41.298 16.5095 41.298 16.5744C41.298 16.7042 41.298 16.7691 41.298 16.8339L42.6607 19.3648L42.0118 19.7541L40.1299 16.2499L40.7788 15.8605L41.1033 16.3797C41.1033 16.3797 41.1033 15.9254 41.1033 15.7957C41.1033 15.601 41.2331 15.5361 41.3628 15.4063C41.5575 15.2765 41.7522 15.2765 41.9469 15.4063C42.1416 15.5361 42.3362 15.7957 42.5309 16.185L42.4011 16.2499Z" fill="white" stroke="#231815" stroke-width="0.1" stroke-linecap="round" stroke-linejoin="round"/>
<path d="M17.0934 19.5593C17.0934 19.5593 17.2881 19.2997 17.353 19.2997C17.353 19.2997 17.4179 19.2997 17.353 19.4295C17.8721 18.9104 18.2615 18.3912 18.2615 18.1966C18.2615 18.0668 18.2615 18.0668 18.1317 18.0668C18.0668 18.0668 17.4179 18.0668 16.1849 19.754C15.7956 20.2731 15.536 20.9221 15.536 21.4412C15.536 21.8955 15.7307 22.155 16.12 22.155C16.8338 22.155 18.0019 21.1167 18.586 20.5976C18.586 20.9221 18.5211 20.987 18.2615 21.2465C17.1583 22.4146 16.2498 22.804 15.7307 22.804C15.1466 22.804 14.6924 22.4146 14.6924 21.7008C14.6924 20.7923 15.3413 19.8189 15.9253 19.2348C16.3796 18.7157 17.5477 17.7423 18.1966 17.7423C18.5211 17.7423 18.7157 17.937 18.7806 18.3263C18.7806 19.17 17.353 20.7274 16.7041 20.8572C16.5743 20.8572 16.3796 20.7923 16.3796 20.5327C16.3796 20.338 16.5094 20.1433 16.6392 20.0785L17.0285 19.6891L17.0934 19.5593Z" fill="white" stroke="#231815" stroke-width="0.1" stroke-linecap="round" stroke-linejoin="round"/>
<path d="M21.0523 20.8573V20.5977L19.7545 21.8307L20.5981 20.4679C20.663 20.3381 20.8576 20.0785 20.8576 19.9488C20.8576 19.8839 20.8576 19.6243 20.7278 19.6243C20.5981 19.6243 20.2736 20.0785 19.6896 20.6626C19.43 20.9221 19.1704 21.1817 18.9108 21.1817C18.9108 21.0519 18.9108 20.9221 19.0406 20.7924C19.2353 20.6626 19.8842 20.0136 19.8842 19.7541C19.8842 19.6892 19.7545 19.4945 19.6247 19.4945C19.4949 19.4945 18.5215 20.2732 18.5215 21.0519C18.5215 21.5062 18.7811 21.7658 18.9757 21.7658C18.9757 21.7658 19.43 21.4413 19.8842 20.987L19.1704 22.4147C19.1704 22.4796 19.0406 22.6743 19.0406 22.804C19.0406 22.9338 19.0406 23.1934 19.1704 23.1934C19.2353 23.1934 19.43 22.9338 19.4949 22.8689L21.1821 20.8573H21.0523Z" fill="white" stroke="#231815" stroke-width="0.1" stroke-linecap="round" stroke-linejoin="round"/>
<path d="M22.804 20.0137C22.804 20.0137 22.3498 20.7275 22.3498 21.1169C22.3498 21.2467 22.3498 21.4413 22.4796 21.4413C22.6742 21.4413 23.1934 20.9222 23.3881 20.7924V20.9871C23.3881 20.9871 22.6093 21.9605 22.22 21.9605C22.0253 21.9605 21.9604 21.7009 21.9604 21.5062C21.9604 21.3765 21.9604 21.1818 21.9604 21.052C21.7657 21.2467 21.2466 21.8307 20.987 21.8307C20.7274 21.8307 20.5977 21.2467 20.5977 21.052C20.5977 20.3382 21.7008 19.6892 22.1551 19.6892C22.2849 19.6892 22.2849 19.7541 22.4147 19.8839C22.6093 19.5595 23.0636 18.2616 23.5178 18.2616C23.6476 18.2616 23.7125 18.3914 23.7125 18.5212C23.7125 18.7158 23.5827 18.9754 23.4529 19.1052L22.8689 20.0786L22.804 20.0137ZM21.0519 21.1818C21.0519 21.1818 21.0519 21.3116 21.1168 21.3116C21.1817 21.3116 22.0902 20.5977 22.1551 20.2084C21.1817 20.5977 21.0519 20.7924 21.0519 21.1818Z" fill="white" stroke="#231815" stroke-width="0.1" stroke-linecap="round" stroke-linejoin="round"/>
<path d="M25.1402 20.7275C25.1402 20.7275 24.3615 21.4413 23.9721 21.4413C23.7775 21.4413 23.5828 21.3764 23.6477 21.1168V20.987C24.7508 20.5977 25.0104 20.1434 25.0104 19.819C25.0104 19.5594 24.8157 19.4945 24.6211 19.4945C23.9072 19.4945 23.0636 20.3381 23.1285 21.1168C23.1285 21.5062 23.3232 21.8955 23.7126 21.8955C24.2317 21.8955 24.8806 21.3115 25.2051 20.8573V20.5977L25.1402 20.7275ZM23.7126 20.7275C23.8423 20.3381 24.1668 20.0136 24.4913 19.9488C24.4913 19.9488 24.5562 19.9488 24.5562 20.0136C24.5562 20.1434 24.2317 20.5328 23.7126 20.7275Z" fill="white" stroke="#231815" stroke-width="0.1" stroke-linecap="round" stroke-linejoin="round"/>
<path d="M25.2056 20.5328C25.0109 20.8573 24.8162 21.0519 24.5566 21.3115V21.0519C24.5566 21.0519 24.8162 20.7924 24.8811 20.5977C24.7513 20.5977 24.7513 20.5977 24.7513 20.403C24.7513 19.9488 25.3354 19.4945 25.4651 19.4945C25.4651 19.4945 25.53 19.4945 25.53 19.6243C25.53 19.6243 25.53 19.7541 25.53 19.819C26.0492 19.7541 26.3736 19.6892 26.4385 19.7541C26.5034 19.8839 26.5683 19.9488 26.5683 20.0785C26.5683 20.2732 26.4385 20.3381 26.3087 20.4679C26.179 20.5977 25.8545 20.9222 25.8545 21.1817C25.8545 21.3115 25.9194 21.3764 26.0492 21.3764C26.3087 21.3764 26.6332 20.987 26.8279 20.7924V21.0519C26.8279 21.0519 25.9843 22.0253 25.7247 22.0253C25.4651 22.0253 25.3354 21.7658 25.3354 21.5711C25.3354 21.1817 25.5949 20.8573 25.8545 20.5328L25.2705 20.6626L25.2056 20.5328Z" fill="white" stroke="#231815" stroke-width="0.1" stroke-linecap="round" stroke-linejoin="round"/>
<path d="M14.1079 23.0636C14.1079 23.0636 24.296 25.4646 28.0598 20.7274L27.8652 23.1285C27.8652 23.1285 17.8717 23.1285 14.043 25.4646V23.0636H14.1079Z" fill="white" stroke="#231815" stroke-width="0.1" stroke-linecap="round" stroke-linejoin="round"/>
<path d="M48.1129 22.155C48.1129 22.155 48.0481 22.3497 48.0481 22.4145C48.0481 22.6741 48.4374 22.739 48.6321 22.739V22.8688H47.0098V22.739C47.3991 22.739 47.5289 22.739 47.8534 22.2199L48.7619 20.922L47.7236 19.1699C47.5289 18.7805 47.2693 18.7805 47.0747 18.7805V18.6508H48.9566V18.7805C48.9566 18.7805 48.5672 18.7805 48.5672 18.9752C48.5672 18.9752 48.5672 19.105 48.5672 19.1699L49.2161 20.2731L49.9299 19.2997L49.9948 19.105C49.9948 18.8454 49.6704 18.8454 49.4757 18.8454V18.7156H50.9033V18.8454C50.9033 18.8454 50.4491 18.8454 50.1895 19.2348L49.3459 20.4678L50.514 22.4145C50.7087 22.8039 50.9033 22.8039 51.1629 22.8039V22.9337H49.281V22.8039C49.281 22.8039 49.6704 22.8039 49.6704 22.6092C49.6704 22.6092 49.6704 22.4794 49.6055 22.4145L48.8268 21.1816L48.1129 22.2199V22.155Z" fill="#231815" stroke="#231815" stroke-width="0.1" stroke-linecap="round" stroke-linejoin="round"/>
<path d="M54.0828 20.7923C54.0828 21.7008 53.953 22.804 53.1094 22.804C52.2658 22.804 52.136 21.8306 52.136 20.7923C52.136 19.754 52.3307 18.7806 53.1094 18.7806C53.8881 18.7806 54.0828 19.754 54.0828 20.7923ZM54.9913 20.7923C54.9913 19.5593 54.0179 18.5859 53.1094 18.5859C52.2009 18.5859 51.2275 19.4944 51.2275 20.7923C51.2275 22.0902 52.2009 22.9987 53.1094 22.9987C54.0179 22.9987 54.9913 22.0902 54.9913 20.7923Z" fill="#231815" stroke="#231815" stroke-width="0.1" stroke-linecap="round" stroke-linejoin="round"/>
<path d="M56.2243 22.155C56.2243 22.155 56.1594 22.3497 56.1594 22.4145C56.1594 22.6741 56.5487 22.739 56.7434 22.739V22.8688H55.1211V22.739C55.5105 22.739 55.6402 22.739 55.9647 22.2199L56.8732 20.922L55.8349 19.1699C55.5753 18.7805 55.3807 18.7805 55.186 18.7805V18.6508H57.0679V18.7805C57.0679 18.7805 56.6785 18.7805 56.6785 18.9752C56.6785 18.9752 56.6785 19.105 56.6785 19.1699L57.3274 20.2731L58.0413 19.2997L58.1062 19.105C58.1062 18.8454 57.7817 18.8454 57.587 18.8454V18.7156H59.0147V18.8454C58.6902 18.8454 58.5604 18.8454 58.236 19.2348L57.3923 20.4678L58.5604 22.4145C58.82 22.8039 58.9498 22.8039 59.2093 22.8039V22.9337H57.3274V22.8039C57.3274 22.8039 57.7168 22.8039 57.7168 22.6092C57.7168 22.6092 57.7168 22.4794 57.6519 22.4145L56.9381 21.1816L56.2243 22.2199V22.155Z" fill="#231815" stroke="#231815" stroke-width="0.1" stroke-linecap="round" stroke-linejoin="round"/>
<path d="M62.5832 21.4412V22.4146H61.6747V21.4412H62.5832ZM60.5715 19.6891L59.7279 19.2997V23.1933C59.7279 23.1933 59.7279 23.3231 59.9875 23.3231C60.1172 23.3231 60.5066 23.2582 60.5066 23.0635V21.3114C60.5066 21.3114 60.8311 21.2465 61.0257 21.1167V22.8689C61.0257 22.8689 61.0257 23.0635 61.2204 23.0635C61.5449 23.0635 61.7396 22.9337 61.7396 22.804V22.5444H62.5832V22.804C62.5832 22.804 62.5832 22.9337 62.713 22.9337C62.7779 22.9337 63.1672 22.8689 63.2321 22.7391C63.7512 22.804 63.7512 22.9986 63.7512 23.2582C63.7512 23.2582 63.7512 23.2582 63.8161 23.2582C64.2704 23.2582 64.53 23.1933 64.53 22.804V19.8189C64.53 19.8189 64.7246 19.6891 64.7246 19.6242C64.7246 19.6242 64.7246 19.5593 64.7246 19.4944L64.3353 19.17C64.3353 19.17 64.2704 19.17 64.2055 19.17C64.1406 19.17 64.0757 19.17 64.0757 19.2997L63.881 19.5593H62.9725C62.9725 19.5593 63.3619 19.17 63.6215 18.9104C63.8161 18.9104 63.8161 18.9104 63.8161 18.7806C63.8161 18.7806 63.8161 18.7806 63.7512 18.7157H63.5566V18.5859H64.8544C64.8544 18.5859 64.9842 18.5859 64.9842 18.521C64.9842 18.521 64.9842 18.4561 64.9842 18.3912L64.5949 18.0019C64.5949 18.0019 64.5949 18.0019 64.4651 18.0019C64.4651 18.0019 64.4002 18.0019 64.3353 18.0019L64.0108 18.4561H62.713V18.0019L62.9076 17.8721C62.9076 17.8721 62.9076 17.7423 62.7778 17.7423H61.9342V18.4561H59.5332V18.5859H60.7662C60.7662 18.5859 61.0257 18.9104 61.0906 19.17C61.0906 19.3646 61.0906 19.4295 61.2853 19.4944H60.7013L60.5715 19.6891ZM63.4917 19.8189C63.4917 19.8189 63.3619 20.5327 63.2321 20.5327H63.0374C63.0374 20.5327 62.9725 20.4678 62.9725 20.4029V20.0136C62.9725 20.0136 63.1023 19.8838 63.1023 19.8189H63.4917ZM63.5566 21.1167C63.5566 21.1167 63.7512 21.1167 63.8161 20.8572V22.4146C63.8161 22.4146 63.8161 22.6093 63.5566 22.6093C63.5566 22.6093 63.297 22.6093 63.2321 22.6093V21.571C63.2321 21.571 63.297 21.571 63.3619 21.5061C63.3619 21.5061 63.3619 21.5061 63.3619 21.4412C63.3619 21.4412 63.3619 21.4412 63.2321 21.3114L63.0374 21.1816H63.4268L63.5566 21.1167ZM62.2587 19.8189V20.7274C62.2587 20.7274 62.4534 21.1167 62.6481 21.1167L62.5183 21.2465H61.6098L61.1555 20.987C61.1555 20.987 61.4151 20.7923 61.7396 20.0785C61.8045 20.0785 61.8694 20.0136 61.8694 19.9487C61.8694 19.9487 61.8694 19.8838 61.8694 19.8189H61.7396L62.2587 19.754V19.8189ZM61.1555 19.8189C61.1555 20.338 60.896 20.7923 60.5066 21.0518V19.8189H61.1555ZM61.6747 19.6891C61.6747 19.6891 61.7396 19.5593 61.7396 19.4295C61.7396 19.1051 61.5449 18.9753 61.0257 18.7157H62.713C62.713 18.9753 62.5832 19.2997 62.3885 19.6891H61.6098H61.6747ZM63.881 19.8189V20.6625C63.881 20.6625 63.881 20.5976 63.6864 20.5327C63.6215 20.5327 63.6215 20.4029 63.6215 20.4029V19.8838H63.881V19.8189Z" fill="#231815" stroke="#231815" stroke-width="0.1" stroke-linecap="round" stroke-linejoin="round"/>
<path d="M67.5806 18.7158V17.9371H68.4891C68.4891 17.9371 68.554 18.0669 68.554 18.1318C68.554 18.2616 68.4242 18.2616 68.2945 18.3265V18.7807H69.4625L69.787 18.3914C69.787 18.3914 69.787 18.3914 69.9168 18.3914C69.9168 18.3914 69.9168 18.3914 70.0466 18.3914L70.5657 18.7807C70.5657 18.7807 70.5657 18.7807 70.5657 18.9105C70.5657 18.9105 70.5657 18.9754 70.4359 18.9754H66.2828V19.7541C66.2828 21.1818 66.2828 22.1552 65.0498 23.3232C65.5041 22.285 65.5689 21.5711 65.5689 19.819V18.4563L66.3477 18.8456H67.5157L67.5806 18.7158ZM69.5923 20.0137L69.9168 19.6243C69.9168 19.6243 69.9168 19.6243 70.0466 19.6243C70.0466 19.6243 70.0466 19.6243 70.1763 19.6243L70.6306 20.0137C70.6306 20.0137 70.6306 20.0137 70.6306 20.1435C70.6306 20.2733 70.6306 20.2084 70.5657 20.2084H68.554V21.2467H69.2678L69.5274 20.9871H69.6572C69.6572 20.9871 69.7221 20.9871 69.787 20.9871L70.2412 21.3765C70.2412 21.3765 70.2412 21.4414 70.2412 21.5062C70.2412 21.636 70.1763 21.636 70.0466 21.7658V23.1286C70.0466 23.1286 69.787 23.453 69.5274 23.453C69.3327 23.453 69.203 23.453 69.203 23.2584V23.0637H67.1913V23.1935C67.1913 23.1935 66.737 23.5179 66.6072 23.5179C66.4126 23.5179 66.3477 23.453 66.3477 23.3232V20.9222L67.0615 21.2467H67.6455V19.0403L68.554 19.1701C68.554 19.1701 68.6838 19.1701 68.6838 19.2999C68.6838 19.3648 68.6838 19.4297 68.4242 19.4946V20.1435H69.4625L69.5923 20.0137ZM67.3211 21.3116V22.869H69.3327V21.3116H67.3211Z" fill="#231815" stroke="#231815" stroke-width="0.1" stroke-linecap="round" stroke-linejoin="round"/>
</svg>
