<svg width="102" height="135" viewBox="0 0 102 135" fill="none" xmlns="http://www.w3.org/2000/svg">
<path d="M101 1V109.344L75.9688 134.375V25.9684L101 1Z" fill="#C9C1AA" stroke="#231815" stroke-width="0.1" stroke-linecap="round" stroke-linejoin="round"/>
<path d="M75.9684 26.0315H1V134.375H75.9684V26.0315Z" fill="#FFF5D7" stroke="#231815" stroke-width="0.1" stroke-linecap="round" stroke-linejoin="round"/>
<path d="M101 1L75.9684 25.9684L1 26.0316L25.9684 1H101Z" fill="#999999" stroke="#231815" stroke-width="0.1" stroke-linecap="round" stroke-linejoin="round"/>
<path d="M67.6248 63.5156H34.3125V75.9682H67.6248V63.5156Z" fill="#920783" stroke="#231815" stroke-width="0.1" stroke-linecap="round" stroke-linejoin="round"/>
<path d="M21.8596 63.5156H9.34375V75.9682H21.8596V63.5156Z" fill="#FFFBC7" stroke="#231815" stroke-width="0.1" stroke-linecap="round" stroke-linejoin="round"/>
<path d="M21.8596 38.4841H9.34375V50.9367H21.8596V38.4841Z" fill="#FFFBC7" stroke="#231815" stroke-width="0.1" stroke-linecap="round" stroke-linejoin="round"/>
<path d="M67.6876 88.5474H9.34375V101H67.6876V88.5474Z" fill="#9FA0A0" stroke="#231815" stroke-width="0.1" stroke-linecap="round" stroke-linejoin="round"/>
<path d="M67.6876 113.516H9.34375V125.968H67.6876V113.516Z" fill="#9FA0A0" stroke="#231815" stroke-width="0.1" stroke-linecap="round" stroke-linejoin="round"/>
<path d="M98.2179 112.125L89.874 120.469V99.6092L98.2179 91.2654V112.125Z" fill="#595757" stroke="#231815" stroke-width="0.1" stroke-linecap="round" stroke-linejoin="round"/>
<path d="M82.9219 87.7258H78.75V89.875H82.9219V87.7258Z" fill="white" stroke="#231815" stroke-width="0.1" stroke-linecap="round" stroke-linejoin="round"/>
<path d="M82.9219 87.7259H78.75L80.1406 86.3984H84.3126L82.9219 87.7259Z" fill="white" stroke="#231815" stroke-width="0.1" stroke-linecap="round" stroke-linejoin="round"/>
<path d="M84.3125 88.5476L82.9219 89.875V87.7259L84.3125 86.3984V88.5476Z" fill="white" stroke="#231815" stroke-width="0.1" stroke-linecap="round" stroke-linejoin="round"/>
<path d="M82.9219 96.0698H78.75V98.219H82.9219V96.0698Z" fill="white" stroke="#231815" stroke-width="0.1" stroke-linecap="round" stroke-linejoin="round"/>
<path d="M82.9219 96.0696H78.75L80.1406 94.7422H84.3126L82.9219 96.0696Z" fill="white" stroke="#231815" stroke-width="0.1" stroke-linecap="round" stroke-linejoin="round"/>
<path d="M84.3125 96.8914L82.9219 98.2188V96.0696L84.3125 94.7422V96.8914Z" fill="white" stroke="#231815" stroke-width="0.1" stroke-linecap="round" stroke-linejoin="round"/>
<path d="M91.2657 81.531H82.9219V102.391H91.2657V81.531Z" fill="#FFF100" stroke="#231815" stroke-width="0.1" stroke-linecap="round" stroke-linejoin="round"/>
<path d="M91.2657 81.5309H82.9219L85.7032 78.9392H94.047L91.2657 81.5309Z" fill="#727171" stroke="#231815" stroke-width="0.1" stroke-linecap="round" stroke-linejoin="round"/>
<path d="M94.0469 99.7357L91.2656 102.391V81.5309L94.0469 78.9392V99.7357Z" fill="#9FA0A0" stroke="#231815" stroke-width="0.1" stroke-linecap="round" stroke-linejoin="round"/>
<path d="M82.9219 62.6943H78.75V64.8435H82.9219V62.6943Z" fill="white" stroke="#231815" stroke-width="0.1" stroke-linecap="round" stroke-linejoin="round"/>
<path d="M82.9219 62.6944H78.75L80.1406 61.4302H84.3126L82.9219 62.6944Z" fill="white" stroke="#231815" stroke-width="0.1" stroke-linecap="round" stroke-linejoin="round"/>
<path d="M84.3125 63.5794L82.9219 64.9068V62.6944L84.3125 61.4302V63.5794Z" fill="white" stroke="#231815" stroke-width="0.1" stroke-linecap="round" stroke-linejoin="round"/>
<path d="M82.9219 71.0383H78.75V73.1875H82.9219V71.0383Z" fill="white" stroke="#231815" stroke-width="0.1" stroke-linecap="round" stroke-linejoin="round"/>
<path d="M82.9219 71.0381H78.75L80.1406 69.7107H84.3126L82.9219 71.0381Z" fill="white" stroke="#231815" stroke-width="0.1" stroke-linecap="round" stroke-linejoin="round"/>
<path d="M84.3125 71.9231L82.9219 73.1873V71.0381L84.3125 69.7107V71.9231Z" fill="white" stroke="#231815" stroke-width="0.1" stroke-linecap="round" stroke-linejoin="round"/>
<path d="M91.2657 56.563H82.9219V77.4227H91.2657V56.563Z" fill="#E60012" stroke="#231815" stroke-width="0.1" stroke-linecap="round" stroke-linejoin="round"/>
<path d="M91.2657 56.5628H82.9219L85.7032 53.908H94.047L91.2657 56.5628Z" fill="#727171" stroke="#231815" stroke-width="0.1" stroke-linecap="round" stroke-linejoin="round"/>
<path d="M94.0469 74.7676L91.2656 77.3593V56.5628L94.0469 53.908V74.7676Z" fill="#9FA0A0" stroke="#231815" stroke-width="0.1" stroke-linecap="round" stroke-linejoin="round"/>
<path d="M82.9219 37.7253H78.75V39.8745H82.9219V37.7253Z" fill="white" stroke="#231815" stroke-width="0.1" stroke-linecap="round" stroke-linejoin="round"/>
<path d="M82.9219 37.7254H78.75L80.1406 36.3979H84.3126L82.9219 37.7254Z" fill="white" stroke="#231815" stroke-width="0.1" stroke-linecap="round" stroke-linejoin="round"/>
<path d="M84.3125 38.5471L82.9219 39.8746V37.7254L84.3125 36.3979V38.5471Z" fill="white" stroke="#231815" stroke-width="0.1" stroke-linecap="round" stroke-linejoin="round"/>
<path d="M82.9219 46.0693H78.75V48.2185H82.9219V46.0693Z" fill="white" stroke="#231815" stroke-width="0.1" stroke-linecap="round" stroke-linejoin="round"/>
<path d="M82.9219 46.0691H78.75L80.1406 44.7417H84.3126L82.9219 46.0691Z" fill="white" stroke="#231815" stroke-width="0.1" stroke-linecap="round" stroke-linejoin="round"/>
<path d="M84.3125 46.8909L82.9219 48.2183V46.0691L84.3125 44.7417V46.8909Z" fill="white" stroke="#231815" stroke-width="0.1" stroke-linecap="round" stroke-linejoin="round"/>
<path d="M91.2657 31.531H82.9219V52.3275H91.2657V31.531Z" fill="#FFF100" stroke="#231815" stroke-width="0.1" stroke-linecap="round" stroke-linejoin="round"/>
<path d="M91.2657 31.5309H82.9219L85.7032 28.9392H94.047L91.2657 31.5309Z" fill="#727171" stroke="#231815" stroke-width="0.1" stroke-linecap="round" stroke-linejoin="round"/>
<path d="M94.0469 49.7357L91.2656 52.3905V31.5309L94.0469 28.9392V49.7357Z" fill="#9FA0A0" stroke="#231815" stroke-width="0.1" stroke-linecap="round" stroke-linejoin="round"/>
</svg>
