<svg width="202" height="202" viewBox="0 0 202 202" fill="none" xmlns="http://www.w3.org/2000/svg">
<path d="M197.917 1.0708H179.104C177.401 1.0708 176.021 2.45082 176.021 4.15315V22.9661C176.021 24.6685 177.401 26.0485 179.104 26.0485H197.917C199.619 26.0485 200.999 24.6685 200.999 22.9661V4.15315C200.999 2.45082 199.619 1.0708 197.917 1.0708Z" fill="#CCCCCC" stroke="#231815" stroke-width="0.1" stroke-linecap="round" stroke-linejoin="round"/>
<path d="M194.728 7.271H182.222V26.0131H194.728V7.271Z" fill="#CCCCCC" stroke="#231815" stroke-width="0.1" stroke-linecap="round" stroke-linejoin="round"/>
<path d="M191.574 10.3884H185.339V16.624H191.574V10.3884Z" fill="#7ECEF4" stroke="#231815" stroke-width="0.1" stroke-linecap="round" stroke-linejoin="round"/>
<path d="M197.917 25.9775L164.649 59.3165L145.871 59.352L179.139 25.9775H197.917Z" fill="#999999" stroke="#231815" stroke-width="0.1" stroke-linecap="round" stroke-linejoin="round"/>
<path d="M176.022 23.1081L142.754 56.4471V37.4569L176.022 4.08252V23.1081Z" fill="#CCCCCC" stroke="#231815" stroke-width="0.1" stroke-linecap="round" stroke-linejoin="round"/>
<path d="M201.001 23.1079L167.732 56.4468V37.4213L201.001 4.04688V23.1079Z" fill="#B3B3B3" stroke="#231815" stroke-width="0.1" stroke-linecap="round" stroke-linejoin="round"/>
<path d="M197.917 1L164.649 34.339L145.871 34.3744L179.139 1H197.917Z" fill="#999999" stroke="#231815" stroke-width="0.1" stroke-linecap="round" stroke-linejoin="round"/>
<path d="M197.919 1.07104C199.619 1.07104 201.001 2.45279 201.001 4.1534L167.733 37.4215C167.733 35.7209 166.351 34.3392 164.65 34.3392L197.919 1.07104Z" fill="#CCCCCC" stroke="#231815" stroke-width="0.1" stroke-linecap="round" stroke-linejoin="round"/>
<path d="M179.139 1C178.254 1 177.474 1.35429 176.907 1.95659L143.462 35.331C143.462 35.331 144.171 34.339 145.871 34.3744L179.139 1Z" fill="#CCCCCC" stroke="#231815" stroke-width="0.1" stroke-linecap="round" stroke-linejoin="round"/>
<path d="M201 22.8599C201 23.7456 200.645 24.525 200.043 25.0919L166.704 58.6081C166.704 58.6081 167.696 57.8995 167.661 56.1989L200.964 22.8953L201 22.8599Z" fill="#CCCCCC" stroke="#231815" stroke-width="0.1" stroke-linecap="round" stroke-linejoin="round"/>
<path d="M178.112 39.5472L169.786 47.8731V38.4843L178.112 30.1584V39.5472Z" fill="#7ECEF4" stroke="#231815" stroke-width="0.1" stroke-linecap="round" stroke-linejoin="round"/>
<path d="M184.348 39.5471L180.203 43.8695V28.068L184.348 23.7456V39.5471Z" fill="#999999" stroke="#231815" stroke-width="0.1" stroke-linecap="round" stroke-linejoin="round"/>
<path d="M188.529 35.1892L184.349 39.547V23.7455L188.529 19.3877V35.1892Z" fill="#999999" stroke="#231815" stroke-width="0.1" stroke-linecap="round" stroke-linejoin="round"/>
<path d="M198.945 18.7145L190.584 27.0403V17.687L198.945 9.32568V18.7145Z" fill="#7ECEF4" stroke="#231815" stroke-width="0.1" stroke-linecap="round" stroke-linejoin="round"/>
<path d="M187.466 27.2177L185.411 29.3081V26.0486L187.466 23.9583V27.2177Z" fill="#7ECEF4" stroke="#231815" stroke-width="0.1" stroke-linecap="round" stroke-linejoin="round"/>
<path d="M183.321 31.2568L181.23 33.3117V30.0876L183.321 27.9973V31.2568Z" fill="#7ECEF4" stroke="#231815" stroke-width="0.1" stroke-linecap="round" stroke-linejoin="round"/>
<path d="M145.836 34.3391H164.649C166.35 34.3391 167.732 35.7209 167.732 37.4215V56.2344C167.732 57.935 166.35 59.3168 164.649 59.3168H145.836C144.136 59.3168 142.754 57.935 142.754 56.2344V37.4215C142.754 35.7209 144.136 34.3391 145.836 34.3391Z" fill="#CCCCCC" stroke="#231815" stroke-width="0.1" stroke-linecap="round" stroke-linejoin="round"/>
<path d="M161.461 40.5747H148.954V59.3168H161.461V40.5747Z" fill="#CCCCCC" stroke="#231815" stroke-width="0.1" stroke-linecap="round" stroke-linejoin="round"/>
<path d="M158.307 43.6924H152.071V49.9279H158.307V43.6924Z" fill="#7ECEF4" stroke="#231815" stroke-width="0.1" stroke-linecap="round" stroke-linejoin="round"/>
<path d="M143.601 36.9966H162.414C164.114 36.9966 165.496 38.3783 165.496 40.0789V58.8919C165.496 60.5925 164.114 61.9743 162.414 61.9743H143.601C141.9 61.9743 140.519 60.5925 140.519 58.8919V40.0789C140.519 38.3783 141.9 36.9966 143.601 36.9966Z" fill="#CCCCCC" stroke="#231815" stroke-width="0.1" stroke-linecap="round" stroke-linejoin="round"/>
<path d="M159.225 43.2322H146.719V61.9743H159.225V43.2322Z" fill="#CCCCCC" stroke="#231815" stroke-width="0.1" stroke-linecap="round" stroke-linejoin="round"/>
<path d="M156.071 46.3499H149.836V52.5854H156.071V46.3499Z" fill="#7ECEF4" stroke="#231815" stroke-width="0.1" stroke-linecap="round" stroke-linejoin="round"/>
<path d="M162.416 61.9033L129.148 95.2423L110.37 95.2777L143.638 61.9033H162.416Z" fill="#999999" stroke="#231815" stroke-width="0.1" stroke-linecap="round" stroke-linejoin="round"/>
<path d="M140.484 59.0336L107.216 92.3726V73.3824L140.484 40.0435V59.0336Z" fill="#CCCCCC" stroke="#231815" stroke-width="0.1" stroke-linecap="round" stroke-linejoin="round"/>
<path d="M165.498 59.0336L132.229 92.3726V73.3471L165.498 39.9727V59.0336Z" fill="#B3B3B3" stroke="#231815" stroke-width="0.1" stroke-linecap="round" stroke-linejoin="round"/>
<path d="M162.416 36.9258L129.148 70.2648L110.37 70.3002L143.638 36.9258H162.416Z" fill="#999999" stroke="#231815" stroke-width="0.1" stroke-linecap="round" stroke-linejoin="round"/>
<path d="M162.416 36.9968C164.116 36.9968 165.498 38.3786 165.498 40.0792L132.23 73.3473C132.23 71.6467 130.848 70.265 129.147 70.265L162.416 36.9968Z" fill="#CCCCCC" stroke="#231815" stroke-width="0.1" stroke-linecap="round" stroke-linejoin="round"/>
<path d="M143.637 36.9258C142.751 36.9258 141.971 37.2801 141.405 37.8824L107.924 71.2568C107.924 71.2568 108.632 70.2648 110.368 70.3002L143.637 36.9258Z" fill="#CCCCCC" stroke="#231815" stroke-width="0.1" stroke-linecap="round" stroke-linejoin="round"/>
<path d="M165.498 58.8213C165.498 59.707 165.143 60.4865 164.541 61.0533L131.202 94.5695C131.202 94.5695 132.194 93.8609 132.159 92.1603L165.462 58.8567L165.498 58.8213Z" fill="#CCCCCC" stroke="#231815" stroke-width="0.1" stroke-linecap="round" stroke-linejoin="round"/>
<path d="M142.609 75.473L134.248 83.7989V74.4101L142.609 66.0842V75.473Z" fill="#7ECEF4" stroke="#231815" stroke-width="0.1" stroke-linecap="round" stroke-linejoin="round"/>
<path d="M148.846 75.4729L144.665 79.7952V64.0292L148.846 59.6714V75.4729Z" fill="#999999" stroke="#231815" stroke-width="0.1" stroke-linecap="round" stroke-linejoin="round"/>
<path d="M152.992 71.115L148.847 75.4728V59.6713L152.992 55.3135V71.115Z" fill="#999999" stroke="#231815" stroke-width="0.1" stroke-linecap="round" stroke-linejoin="round"/>
<path d="M163.407 54.6404L155.081 62.9663V53.613L163.407 45.2871V54.6404Z" fill="#7ECEF4" stroke="#231815" stroke-width="0.1" stroke-linecap="round" stroke-linejoin="round"/>
<path d="M151.963 63.1435L149.873 65.2339V61.9744L151.963 59.884V63.1435Z" fill="#7ECEF4" stroke="#231815" stroke-width="0.1" stroke-linecap="round" stroke-linejoin="round"/>
<path d="M147.818 67.1826L145.728 69.2729V66.0134L147.818 63.9231V67.1826Z" fill="#7ECEF4" stroke="#231815" stroke-width="0.1" stroke-linecap="round" stroke-linejoin="round"/>
<path d="M110.298 70.2646H129.111C130.812 70.2646 132.193 71.6464 132.193 73.347V92.16C132.193 93.8606 130.812 95.2423 129.111 95.2423H110.298C108.598 95.2423 107.216 93.8606 107.216 92.16V73.347C107.216 71.6464 108.598 70.2646 110.298 70.2646Z" fill="#CCCCCC" stroke="#231815" stroke-width="0.1" stroke-linecap="round" stroke-linejoin="round"/>
<path d="M125.959 76.5005H113.452V95.2426H125.959V76.5005Z" fill="#CCCCCC" stroke="#231815" stroke-width="0.1" stroke-linecap="round" stroke-linejoin="round"/>
<path d="M122.804 79.6182H116.568V85.8537H122.804V79.6182Z" fill="#7ECEF4" stroke="#231815" stroke-width="0.1" stroke-linecap="round" stroke-linejoin="round"/>
<path d="M108.066 72.9214H126.915C128.615 72.9214 129.997 74.3031 129.997 76.0037V94.8167C129.997 96.5173 128.615 97.8991 126.915 97.8991H108.102C106.401 97.8991 105.02 96.5173 105.02 94.8167V76.0037C105.02 74.3031 106.401 72.9214 108.102 72.9214H108.066Z" fill="#CCCCCC" stroke="#231815" stroke-width="0.1" stroke-linecap="round" stroke-linejoin="round"/>
<path d="M123.726 79.1572H111.22V97.8993H123.726V79.1572Z" fill="#CCCCCC" stroke="#231815" stroke-width="0.1" stroke-linecap="round" stroke-linejoin="round"/>
<path d="M120.571 82.2749H114.336V88.5105H120.571V82.2749Z" fill="#7ECEF4" stroke="#231815" stroke-width="0.1" stroke-linecap="round" stroke-linejoin="round"/>
<path d="M126.88 97.864L93.6115 131.168L74.834 131.203L108.102 97.864H126.88Z" fill="#999999" stroke="#231815" stroke-width="0.1" stroke-linecap="round" stroke-linejoin="round"/>
<path d="M104.985 94.9584L71.7168 128.297V109.307L104.985 75.9683V94.9584Z" fill="#CCCCCC" stroke="#231815" stroke-width="0.1" stroke-linecap="round" stroke-linejoin="round"/>
<path d="M129.963 94.9586L96.6953 128.298V109.272L129.963 75.9331V94.9586Z" fill="#B3B3B3" stroke="#231815" stroke-width="0.1" stroke-linecap="round" stroke-linejoin="round"/>
<path d="M126.88 72.8506L93.6115 106.19L74.834 106.225L108.102 72.8506H126.88Z" fill="#999999" stroke="#231815" stroke-width="0.1" stroke-linecap="round" stroke-linejoin="round"/>
<path d="M126.916 72.9214C128.616 72.9214 129.998 74.3031 129.998 76.0037L96.7298 109.272C96.7298 107.571 95.3481 106.19 93.6475 106.19L126.916 72.9214Z" fill="#CCCCCC" stroke="#231815" stroke-width="0.1" stroke-linecap="round" stroke-linejoin="round"/>
<path d="M108.102 72.8506C107.216 72.8506 106.437 73.2049 105.87 73.8072L72.4248 107.182C72.4248 107.182 73.1334 106.19 74.834 106.225L108.102 72.8506Z" fill="#CCCCCC" stroke="#231815" stroke-width="0.1" stroke-linecap="round" stroke-linejoin="round"/>
<path d="M129.999 94.7458C129.999 95.6316 129.644 96.411 129.042 96.9779L95.7031 130.494C95.7031 130.494 96.6951 129.785 96.6597 128.085L129.963 94.7813L129.999 94.7458Z" fill="#CCCCCC" stroke="#231815" stroke-width="0.1" stroke-linecap="round" stroke-linejoin="round"/>
<path d="M107.075 111.398L98.749 119.723V110.37L107.075 102.009V111.398Z" fill="#7ECEF4" stroke="#231815" stroke-width="0.1" stroke-linecap="round" stroke-linejoin="round"/>
<path d="M113.347 111.398L109.166 115.72V99.954L113.347 95.5962V111.398Z" fill="#999999" stroke="#231815" stroke-width="0.1" stroke-linecap="round" stroke-linejoin="round"/>
<path d="M117.492 107.04L113.347 111.398V95.5961L117.492 91.2737V107.04Z" fill="#999999" stroke="#231815" stroke-width="0.1" stroke-linecap="round" stroke-linejoin="round"/>
<path d="M127.909 90.5653L119.583 98.8911V89.5378L127.909 81.2119V90.5653Z" fill="#7ECEF4" stroke="#231815" stroke-width="0.1" stroke-linecap="round" stroke-linejoin="round"/>
<path d="M116.464 99.0683L114.374 101.159V97.8992L116.464 95.8088V99.0683Z" fill="#7ECEF4" stroke="#231815" stroke-width="0.1" stroke-linecap="round" stroke-linejoin="round"/>
<path d="M112.284 103.107L110.193 105.197V101.938L112.284 99.8477V103.107Z" fill="#7ECEF4" stroke="#231815" stroke-width="0.1" stroke-linecap="round" stroke-linejoin="round"/>
<path d="M74.7991 106.189H93.6121C95.3127 106.189 96.6945 107.571 96.6945 109.272V128.085C96.6945 129.785 95.3127 131.167 93.6121 131.167H74.7991C73.0985 131.167 71.7168 129.785 71.7168 128.085V109.272C71.7168 107.571 73.0985 106.189 74.7991 106.189Z" fill="#CCCCCC" stroke="#231815" stroke-width="0.1" stroke-linecap="round" stroke-linejoin="round"/>
<path d="M90.4235 112.425H77.917V131.167H90.4235V112.425Z" fill="#CCCCCC" stroke="#231815" stroke-width="0.1" stroke-linecap="round" stroke-linejoin="round"/>
<path d="M87.3049 115.543H81.0693V121.779H87.3049V115.543Z" fill="#7ECEF4" stroke="#231815" stroke-width="0.1" stroke-linecap="round" stroke-linejoin="round"/>
<path d="M72.7435 108.28H91.5565C93.2571 108.28 94.6388 109.661 94.6388 111.362V130.175C94.6388 131.875 93.2571 133.257 91.5565 133.257H72.7435C71.0429 133.257 69.6611 131.875 69.6611 130.175V111.362C69.6611 109.661 71.0429 108.28 72.7435 108.28Z" fill="#CCCCCC" stroke="#231815" stroke-width="0.1" stroke-linecap="round" stroke-linejoin="round"/>
<path d="M88.3679 114.515H75.8613V133.257H88.3679V114.515Z" fill="#CCCCCC" stroke="#231815" stroke-width="0.1" stroke-linecap="round" stroke-linejoin="round"/>
<path d="M85.2141 117.633H78.9785V123.868H85.2141V117.633Z" fill="#7ECEF4" stroke="#231815" stroke-width="0.1" stroke-linecap="round" stroke-linejoin="round"/>
<path d="M91.5213 133.222L58.2531 166.561H39.4756L72.7437 133.222H91.5213Z" fill="#999999" stroke="#231815" stroke-width="0.1" stroke-linecap="round" stroke-linejoin="round"/>
<path d="M69.6265 130.353L36.3584 163.656V144.702L69.6265 111.327V130.353Z" fill="#CCCCCC" stroke="#231815" stroke-width="0.1" stroke-linecap="round" stroke-linejoin="round"/>
<path d="M94.605 130.352L61.3369 163.656V144.63L94.605 111.292V130.352Z" fill="#B3B3B3" stroke="#231815" stroke-width="0.1" stroke-linecap="round" stroke-linejoin="round"/>
<path d="M91.5213 108.245L58.2531 141.548L39.4756 141.584L72.7437 108.245H91.5213Z" fill="#999999" stroke="#231815" stroke-width="0.1" stroke-linecap="round" stroke-linejoin="round"/>
<path d="M91.5582 108.28C93.2588 108.28 94.6405 109.662 94.6405 111.362L61.3724 144.63C61.3724 142.93 59.9906 141.548 58.29 141.548L91.5582 108.28Z" fill="#CCCCCC" stroke="#231815" stroke-width="0.1" stroke-linecap="round" stroke-linejoin="round"/>
<path d="M72.7437 108.245C71.858 108.245 71.0786 108.599 70.5117 109.201L37.0664 142.576C37.0664 142.576 37.775 141.584 39.4756 141.619L72.7437 108.28V108.245Z" fill="#CCCCCC" stroke="#231815" stroke-width="0.1" stroke-linecap="round" stroke-linejoin="round"/>
<path d="M94.6403 130.104C94.6403 130.99 94.286 131.77 93.6837 132.337L60.3447 165.853C60.3447 165.853 61.3367 165.144 61.3013 163.408L94.6049 130.104H94.6403Z" fill="#CCCCCC" stroke="#231815" stroke-width="0.1" stroke-linecap="round" stroke-linejoin="round"/>
<path d="M71.7165 146.756L63.3906 155.082V145.729L71.7165 137.403V146.756Z" fill="#7ECEF4" stroke="#231815" stroke-width="0.1" stroke-linecap="round" stroke-linejoin="round"/>
<path d="M77.9528 146.756L73.8076 151.114V135.313L77.9528 130.955V146.756Z" fill="#999999" stroke="#231815" stroke-width="0.1" stroke-linecap="round" stroke-linejoin="round"/>
<path d="M82.1348 142.434L77.9541 146.756V130.955L82.1348 126.632V142.434Z" fill="#999999" stroke="#231815" stroke-width="0.1" stroke-linecap="round" stroke-linejoin="round"/>
<path d="M92.5495 125.923L84.2236 134.249V124.896L92.5495 116.57V125.923Z" fill="#7ECEF4" stroke="#231815" stroke-width="0.1" stroke-linecap="round" stroke-linejoin="round"/>
<path d="M81.106 134.427L79.0156 136.517V133.258L81.106 131.167V134.427Z" fill="#7ECEF4" stroke="#231815" stroke-width="0.1" stroke-linecap="round" stroke-linejoin="round"/>
<path d="M76.9253 138.466L74.835 140.556V137.297L76.9253 135.206V138.466Z" fill="#7ECEF4" stroke="#231815" stroke-width="0.1" stroke-linecap="round" stroke-linejoin="round"/>
<path d="M58.2537 141.548H39.4407C37.7384 141.548 36.3584 142.928 36.3584 144.631V163.444C36.3584 165.146 37.7384 166.526 39.4407 166.526H58.2537C59.9561 166.526 61.3361 165.146 61.3361 163.444V144.631C61.3361 142.928 59.9561 141.548 58.2537 141.548Z" fill="#CCCCCC" stroke="#231815" stroke-width="0.1" stroke-linecap="round" stroke-linejoin="round"/>
<path d="M55.0651 147.784H42.5586V166.526H55.0651V147.784Z" fill="#CCCCCC" stroke="#231815" stroke-width="0.1" stroke-linecap="round" stroke-linejoin="round"/>
<path d="M51.9113 150.937H45.6758V157.173H51.9113V150.937Z" fill="#7ECEF4" stroke="#231815" stroke-width="0.1" stroke-linecap="round" stroke-linejoin="round"/>
<path d="M37.3499 143.638H56.1629C57.8635 143.638 59.2453 145.02 59.2453 146.721V165.534C59.2453 167.234 57.8635 168.616 56.1629 168.616H37.3499C35.6493 168.616 34.2676 167.234 34.2676 165.534V146.721C34.2676 145.02 35.6493 143.638 37.3499 143.638Z" fill="#CCCCCC" stroke="#231815" stroke-width="0.1" stroke-linecap="round" stroke-linejoin="round"/>
<path d="M53.0105 149.874H40.5039V168.616H53.0105V149.874Z" fill="#CCCCCC" stroke="#231815" stroke-width="0.1" stroke-linecap="round" stroke-linejoin="round"/>
<path d="M49.8557 152.992H43.6201V159.227H49.8557V152.992Z" fill="#7ECEF4" stroke="#231815" stroke-width="0.1" stroke-linecap="round" stroke-linejoin="round"/>
<path d="M56.1629 168.581L22.8947 201.92L4.11719 201.955L37.3853 168.581H56.1629Z" fill="#999999" stroke="#231815" stroke-width="0.1" stroke-linecap="round" stroke-linejoin="round"/>
<path d="M34.2681 165.711L1 199.05V180.06L34.2681 146.685V165.711Z" fill="#CCCCCC" stroke="#231815" stroke-width="0.1" stroke-linecap="round" stroke-linejoin="round"/>
<path d="M59.2457 165.711L25.9775 199.05V180.024L59.2457 146.65V165.711Z" fill="#B3B3B3" stroke="#231815" stroke-width="0.1" stroke-linecap="round" stroke-linejoin="round"/>
<path d="M22.8953 176.942H4.08235C2.38002 176.942 1 178.322 1 180.024V198.837C1 200.539 2.38002 201.919 4.08235 201.919H22.8953C24.5977 201.919 25.9777 200.539 25.9777 198.837V180.024C25.9777 178.322 24.5977 176.942 22.8953 176.942Z" fill="#CCCCCC" stroke="#231815" stroke-width="0.1" stroke-linecap="round" stroke-linejoin="round"/>
<path d="M56.1629 143.603L22.8947 176.942H4.11719L37.3853 143.603H56.1629Z" fill="#999999" stroke="#231815" stroke-width="0.1" stroke-linecap="round" stroke-linejoin="round"/>
<path d="M56.1988 143.638C57.8994 143.638 59.2811 145.02 59.2811 146.721L26.013 180.024C26.013 178.324 24.6313 176.942 22.9307 176.942L56.1988 143.674V143.638Z" fill="#CCCCCC" stroke="#231815" stroke-width="0.1" stroke-linecap="round" stroke-linejoin="round"/>
<path d="M7.19954 180.06H19.7769C21.4776 180.06 22.8593 181.441 22.8593 183.142V186.366C22.8593 188.067 21.4776 189.448 19.7769 189.448H7.19954C5.49893 189.448 4.11719 188.067 4.11719 186.366V183.142C4.11719 181.441 5.49893 180.06 7.19954 180.06Z" fill="#7ECEF4" stroke="#231815" stroke-width="0.1" stroke-linecap="round" stroke-linejoin="round"/>
<path d="M10.3527 195.648C10.3527 197.384 8.93558 198.766 7.23497 198.766C5.53436 198.766 4.11719 197.349 4.11719 195.648C4.11719 193.948 5.53436 192.531 7.23497 192.531C8.93558 192.531 10.3527 193.912 10.3527 195.648Z" fill="#FFE100" stroke="#231815" stroke-width="0.1" stroke-linecap="round" stroke-linejoin="round"/>
<path d="M22.8606 195.648C22.8606 197.384 21.4788 198.766 19.7428 198.766C18.0067 198.766 16.625 197.349 16.625 195.648C16.625 193.948 18.0067 192.531 19.7428 192.531C21.4788 192.531 22.8606 193.912 22.8606 195.648Z" fill="#FFE100" stroke="#231815" stroke-width="0.1" stroke-linecap="round" stroke-linejoin="round"/>
<path d="M37.3853 143.603C36.4996 143.603 35.7202 143.957 35.1533 144.559L1.70801 177.898C1.70801 177.898 2.41659 176.906 4.1172 176.942L37.3853 143.567V143.603Z" fill="#CCCCCC" stroke="#231815" stroke-width="0.1" stroke-linecap="round" stroke-linejoin="round"/>
<path d="M59.2816 165.463C59.2816 166.349 58.9273 167.128 58.325 167.695L25.0215 201.211C25.0215 201.211 26.0135 200.502 25.9781 198.766L59.2816 165.463Z" fill="#CCCCCC" stroke="#231815" stroke-width="0.1" stroke-linecap="round" stroke-linejoin="round"/>
<path d="M36.3581 182.115L28.0322 190.441V181.087L36.3581 172.761V182.115Z" fill="#7ECEF4" stroke="#231815" stroke-width="0.1" stroke-linecap="round" stroke-linejoin="round"/>
<path d="M42.5945 182.114L38.4492 186.472V170.671L42.5945 166.348V182.114Z" fill="#999999" stroke="#231815" stroke-width="0.1" stroke-linecap="round" stroke-linejoin="round"/>
<path d="M46.7754 177.792L42.5947 182.114V166.348L46.7754 161.99V177.792Z" fill="#999999" stroke="#231815" stroke-width="0.1" stroke-linecap="round" stroke-linejoin="round"/>
<path d="M57.1911 161.318L48.8652 169.644V160.255L57.1911 151.929V161.318Z" fill="#7ECEF4" stroke="#231815" stroke-width="0.1" stroke-linecap="round" stroke-linejoin="round"/>
<path d="M45.7476 169.821L43.6572 171.875V168.616L45.7476 166.561V169.821Z" fill="#7ECEF4" stroke="#231815" stroke-width="0.1" stroke-linecap="round" stroke-linejoin="round"/>
<path d="M41.5669 173.824L39.4766 175.914V172.655L41.5669 170.6V173.824Z" fill="#7ECEF4" stroke="#231815" stroke-width="0.1" stroke-linecap="round" stroke-linejoin="round"/>
</svg>
