<svg width="100" height="101" viewBox="0 0 100 101" fill="none" xmlns="http://www.w3.org/2000/svg">
<mask id="mask0_234_1314" style="mask-type:alpha" maskUnits="userSpaceOnUse" x="0" y="0" width="100" height="101">
<rect y="0.146484" width="100" height="100" fill="#D9D9D9"/>
</mask>
<g mask="url(#mask0_234_1314)">
<path d="M52.4096 15.2634C52.4096 15.2634 50.4948 4.33072 36.8444 7.29552L34.6826 11.7427C34.6826 11.7427 44.0094 9.76618 47.283 15.2634H52.4714H52.4096Z" fill="#B5B5B6" stroke="#231815" stroke-width="0.1" stroke-linecap="round" stroke-linejoin="round"/>
<path d="M43.2063 10.8161C43.2063 13.2867 39.9944 15.2633 36.1032 15.2633C32.2119 15.2633 29 13.2867 29 10.8161C29 8.34543 32.1501 6.43066 36.1032 6.43066C40.0562 6.43066 43.2063 8.40719 43.2063 10.8161Z" fill="#DCDDDD" stroke="#231815" stroke-width="0.1" stroke-linecap="round" stroke-linejoin="round"/>
<path d="M39.994 12.2983C39.994 14.0895 37.8321 15.5101 35.1762 15.5101C32.5202 15.5101 30.3584 14.0895 30.3584 12.2983C30.3584 10.5071 32.5202 9.08643 35.1762 9.08643C37.8321 9.08643 39.994 10.5688 39.994 12.2983Z" fill="#F9C385" stroke="#231815" stroke-width="0.1" stroke-linecap="round" stroke-linejoin="round"/>
<path d="M52.4091 15.2634V105.751H47.2207V15.2634C47.2207 15.2634 49.259 4.33072 62.8476 7.29552L65.0095 11.7427C65.0095 11.7427 55.6827 9.76618 52.4709 15.2634H52.4091Z" fill="#B5B5B6" stroke="#231815" stroke-width="0.1" stroke-linecap="round" stroke-linejoin="round"/>
<path d="M56.5479 10.8161C56.5479 13.2867 59.6979 15.2633 63.651 15.2633C67.6041 15.2633 70.7541 13.2867 70.7541 10.8161C70.7541 8.34543 67.5423 6.43066 63.651 6.43066C59.7597 6.43066 56.5479 8.40719 56.5479 10.8161Z" fill="#DCDDDD" stroke="#231815" stroke-width="0.1" stroke-linecap="round" stroke-linejoin="round"/>
<path d="M59.6973 12.2983C59.6973 14.0895 61.8591 15.5101 64.5151 15.5101C67.171 15.5101 69.3328 14.0895 69.3328 12.2983C69.3328 10.5071 67.171 9.08643 64.5151 9.08643C61.8591 9.08643 59.6973 10.5688 59.6973 12.2983Z" fill="#F9C385" stroke="#231815" stroke-width="0.1" stroke-linecap="round" stroke-linejoin="round"/>
</g>
</svg>
