<svg width="100" height="102" viewBox="0 0 100 102" fill="none" xmlns="http://www.w3.org/2000/svg">
<mask id="mask0_234_995" style="mask-type:alpha" maskUnits="userSpaceOnUse" x="0" y="0" width="100" height="102">
<rect y="0.461182" width="100" height="101.245" fill="#D9D9D9"/>
</mask>
<g mask="url(#mask0_234_995)">
</g>
<g clip-path="url(#clip0_234_995)">
<path d="M46.3482 84.091L38.668 99.6082L46.3482 91.8496L54.1068 99.6082L59.7495 91.8496L69.6241 99.6082L61.8655 84.091V53.1348L54.1068 45.3762L46.3482 53.1348V84.091Z" fill="#BF795D" stroke="#231815" stroke-width="0.1" stroke-linecap="round" stroke-linejoin="round"/>
<path d="M77.2259 25.627C77.3043 25 77.3827 24.2947 77.3827 23.5893C77.3827 17.3197 73.6209 11.9122 68.2134 9.48276C65.7839 4.1536 60.3764 0.391846 54.1068 0.391846C48.3074 0.391846 43.2918 3.60501 40.6272 8.30721C40.0002 8.30721 39.2949 8.15047 38.5896 8.15047C30.0473 8.15047 23.0723 15.1254 23.0723 23.6677C23.0723 24.373 23.0723 25 23.2291 25.7053C18.6053 28.2915 15.3921 33.3072 15.3921 39.1066C15.3921 47.6489 22.367 54.6238 30.9093 54.6238C31.5363 54.6238 32.2416 54.6238 32.8686 54.4671C35.5332 59.1693 40.5488 62.3041 46.3482 62.3041C53.088 62.3041 58.809 57.9937 60.925 51.9592C63.4328 53.605 66.4109 54.5454 69.5457 54.5454C78.088 54.5454 85.0629 47.6489 85.0629 39.0282C85.0629 33.2288 81.8498 28.2132 77.1476 25.5486L77.2259 25.627Z" fill="#8FC31F" stroke="#231815" stroke-width="0.1" stroke-linecap="round" stroke-linejoin="round"/>
</g>
<defs>
<clipPath id="clip0_234_995">
<rect width="70.5329" height="100" fill="white" transform="translate(15)"/>
</clipPath>
</defs>
</svg>
