<svg width="100" height="100" viewBox="0 0 100 100" fill="none" xmlns="http://www.w3.org/2000/svg">
<mask id="mask0_234_1265" style="mask-type:alpha" maskUnits="userSpaceOnUse" x="0" y="0" width="100" height="100">
<rect width="100" height="100" fill="#D9D9D9"/>
</mask>
<g mask="url(#mask0_234_1265)">
</g>
<path d="M13.8877 87.701C13.8877 87.701 23.534 76.7685 33.8234 83.8425C33.8234 83.8425 60.4311 103.778 69.0324 98.7943C69.0324 98.7943 52.4729 93.1673 46.6851 85.4502C46.6851 85.4502 69.0324 91.5595 75.3829 89.7107C75.3829 89.7107 44.9166 82.8779 49.8202 73.2316C49.8202 73.2316 70.1578 45.82 65.0131 29.984C65.0131 29.984 56.4118 23.0708 75.3829 12.0579C75.3829 12.0579 59.5469 11.0129 52.7945 23.2316C52.7945 23.2316 46.2832 49.9197 40.817 47.6689C40.817 47.6689 23.0517 44.4534 25.0613 30.3055L27.6337 23.2316C27.6337 23.2316 23.7752 8.92289 19.7559 19.1319C19.7559 19.1319 11.235 45.7396 36.3153 54.1801C36.3153 54.1801 41.3797 65.5949 27.7944 73.312C27.7944 73.312 13.8877 81.6721 13.8877 87.7814V87.701Z" fill="#572E1D" stroke="#231815" stroke-width="0.1" stroke-linecap="round" stroke-linejoin="round"/>
<path d="M37.1191 17.5243C35.833 16.8812 34.4664 16.64 33.0999 16.7204C32.9391 13.4246 31.251 10.4503 28.2767 9.00335C24.0966 6.91332 18.9519 8.7622 16.2992 13.0226C12.1995 11.8972 7.53715 14.0677 5.36673 18.4889C2.95516 23.3924 4.64326 29.0998 9.14487 31.2702C13.3249 33.3603 18.4696 31.5114 21.042 27.2509C21.8458 27.4921 22.7301 27.5725 23.5339 27.4921C23.6947 30.7879 25.3828 33.7622 28.3571 35.2091C32.8587 37.3796 38.4053 35.2091 40.8169 30.3056C43.2285 25.4021 41.5404 19.6947 37.0388 17.5243H37.1191Z" fill="#006428" stroke="#231815" stroke-width="0.1" stroke-linecap="round" stroke-linejoin="round"/>
<path d="M92.666 26.0452C91.3798 24.0356 89.7721 22.2671 87.9232 20.8201C88.084 20.177 88.1644 19.534 88.1644 18.8909C88.1644 13.5854 82.457 9.32495 75.3831 9.32495H75.2223C73.1322 4.34103 68.5503 0.56289 63.9683 0.402118C59.4667 0.241347 56.412 3.53717 56.0905 8.27993C52.9554 6.7526 49.6596 6.27029 46.8461 7.15453C41.2995 8.92302 39.9329 15.4343 43.7914 21.7848C47.6499 28.1352 55.2866 31.9134 60.9136 30.1449C60.9136 30.1449 60.994 30.1449 61.0744 30.1449C60.6724 32.2349 60.6724 34.5661 61.0744 37.1385C62.8429 46.3828 70.4795 54.0999 78.1162 54.341C84.949 54.5822 89.531 48.7944 89.129 40.9166C89.2094 40.9166 89.3702 40.9166 89.4506 40.9166C94.9972 39.1481 96.3638 32.6368 92.5052 26.2864L92.666 26.0452Z" fill="#006428" stroke="#231815" stroke-width="0.1" stroke-linecap="round" stroke-linejoin="round"/>
</svg>
