<svg width="60" height="61" viewBox="0 0 60 61" fill="none" xmlns="http://www.w3.org/2000/svg">
<path d="M38.2749 22.6084C45.2765 29.6173 45.1804 40.8542 38.3171 47.7557C38.3042 47.7697 38.289 47.785 38.2749 47.799L30.3999 55.674C23.4542 62.6197 12.1539 62.6188 5.20928 55.674C-1.73643 48.7295 -1.73643 37.4279 5.20928 30.4834L9.55764 26.135C10.7108 24.9819 12.6966 25.7483 12.7562 27.3779C12.8321 29.4547 13.2045 31.5412 13.8917 33.5562C14.1244 34.2384 13.9581 34.9931 13.4484 35.5029L11.9147 37.0365C8.63045 40.3208 8.52744 45.6685 11.7794 48.985C15.0635 52.3341 20.4614 52.354 23.7706 49.0447L31.6456 41.1709C34.9492 37.8673 34.9354 32.5275 31.6456 29.2377C31.2119 28.8048 30.775 28.4685 30.4338 28.2335C30.1924 28.0677 29.993 27.8478 29.8517 27.5913C29.7103 27.3348 29.6309 27.0489 29.6197 26.7562C29.5733 25.5179 30.012 24.2419 30.9905 23.2633L33.4578 20.796C34.1048 20.149 35.1198 20.0695 35.87 20.5931C36.7292 21.1931 37.5339 21.8674 38.2749 22.6084ZM54.7907 6.09174C47.8461 -0.853028 36.5458 -0.853965 29.6001 6.09174L21.7251 13.9667C21.711 13.9808 21.6958 13.996 21.6829 14.0101C14.8197 20.9115 14.7235 32.1485 21.7251 39.1574C22.4661 39.8983 23.2708 40.5726 24.1299 41.1725C24.8801 41.6961 25.8952 41.6166 26.5421 40.9697L29.0094 38.5023C29.9879 37.5238 30.4266 36.2477 30.3802 35.0094C30.369 34.7168 30.2896 34.4308 30.1482 34.1743C30.0069 33.9178 29.8075 33.6979 29.5661 33.5321C29.2249 33.2972 28.788 32.9608 28.3543 32.528C25.0645 29.2381 25.0507 23.8984 28.3543 20.5948L36.2293 12.7209C39.5385 9.41166 44.9363 9.43158 48.2205 12.7807C51.4725 16.0971 51.3696 21.4448 48.0852 24.7291L46.5515 26.2628C46.0418 26.7725 45.8755 27.5272 46.1082 28.2095C46.7954 30.2244 47.1678 32.3109 47.2437 34.3877C47.3034 36.0173 49.2891 36.7837 50.4423 35.6306L54.7906 31.2823C61.7364 24.3378 61.7364 13.0363 54.7907 6.09174Z" fill="black"/>
</svg>
